<svg width="52" height="127" viewBox="0 0 52 127" fill="none" xmlns="http://www.w3.org/2000/svg">
<path d="M39.3672 117.52H12.0672L12.0472 117.42C8.80719 100.98 8.80719 84.07 12.0472 67.63L12.0672 67.53H39.3672L39.4072 67.75C42.6272 84.18 42.6172 101.08 39.3672 117.51V117.52Z" fill="black"/>
<path d="M39.107 121.84H12.327C11.137 121.84 10.167 120.87 10.167 119.68C10.167 118.49 11.137 117.52 12.327 117.52H39.107C40.297 117.52 41.267 118.49 41.267 119.68C41.267 120.87 40.297 121.84 39.107 121.84Z" fill="black"/>
<path d="M40.0569 67.54H11.3769C11.0769 67.54 10.8369 67.3 10.8369 67C10.8369 66.7 11.0769 66.46 11.3769 66.46H40.0569C40.3569 66.46 40.5969 66.7 40.5969 67C40.5969 67.3 40.3569 67.54 40.0569 67.54Z" fill="black"/>
<path d="M41.3568 66.46H10.0669C9.76686 66.46 9.52686 66.22 9.52686 65.92C9.52686 65.62 9.76686 65.38 10.0669 65.38H41.3568C41.6568 65.38 41.8969 65.62 41.8969 65.92C41.8969 66.22 41.6568 66.46 41.3568 66.46Z" fill="black"/>
<path d="M40.857 125.27C30.807 126.65 20.617 126.65 10.577 125.27C9.38697 125.27 8.41699 124.3 8.41699 123.11C8.41699 121.92 9.38697 120.95 10.577 120.95H40.857C42.047 120.95 43.017 121.92 43.017 123.11C43.017 124.3 42.047 125.27 40.857 125.27Z" fill="black"/>
<path d="M16.597 68.01L13.8069 67.74C10.5669 84.18 10.6269 101.35 13.8669 117.79L16.747 118C13.507 101.56 13.357 84.44 16.597 68.01Z" fill="white"/>
<path d="M37.6469 67.74L30.6069 68.38C33.8269 84.81 33.5869 101.84 30.3369 118.27L37.6069 117.78C40.8569 101.35 40.8769 84.17 37.6469 67.74Z" fill="white"/>
<path d="M40.8571 120.81C40.8571 120.81 40.3871 120.89 39.5671 121.02C39.1571 121.09 38.6571 121.16 38.0871 121.24C37.7971 121.28 37.4971 121.32 37.1771 121.37C36.8571 121.41 36.5171 121.45 36.1571 121.49C35.8071 121.53 35.4371 121.57 35.0471 121.61C34.6671 121.65 34.2671 121.68 33.8571 121.72C33.0471 121.8 32.1871 121.85 31.2971 121.91C30.4071 121.95 29.4871 122.01 28.5471 122.03C27.6071 122.06 26.6571 122.07 25.7071 122.08C24.7571 122.07 23.8071 122.07 22.8671 122.03C21.9271 122.01 21.0071 121.95 20.1171 121.91C19.2271 121.85 18.3671 121.8 17.5571 121.72C17.1471 121.68 16.7571 121.65 16.3671 121.61C15.9871 121.57 15.6171 121.53 15.2571 121.49C14.9071 121.45 14.5671 121.41 14.2371 121.37C13.9171 121.33 13.6071 121.28 13.3271 121.24C12.7571 121.16 12.2571 121.09 11.8471 121.02C11.0271 120.89 10.5571 120.81 10.5571 120.81C10.5571 120.81 11.0271 120.86 11.8571 120.93C12.2671 120.98 12.7771 121.02 13.3471 121.07C13.9271 121.12 14.5771 121.17 15.2871 121.22C15.9971 121.28 16.7671 121.32 17.5771 121.37C18.3871 121.43 19.2471 121.45 20.1371 121.5C21.0271 121.53 21.9471 121.56 22.8771 121.58C23.8071 121.61 24.7571 121.6 25.7071 121.61C26.6571 121.61 27.5971 121.61 28.5371 121.58C29.4671 121.56 30.3871 121.53 31.2771 121.5C32.1671 121.45 33.0271 121.43 33.8371 121.37C34.6471 121.32 35.4171 121.27 36.1271 121.22C36.8371 121.17 37.4871 121.12 38.0671 121.07C38.6471 121.02 39.1471 120.98 39.5571 120.93C40.3871 120.85 40.8571 120.81 40.8571 120.81Z" fill="white"/>
<path d="M42.6369 124.34C42.6369 124.34 42.1169 124.42 41.1969 124.57C40.7369 124.64 40.1769 124.71 39.5369 124.79C38.8969 124.88 38.1669 124.96 37.3769 125.03C36.5869 125.12 35.7269 125.18 34.8169 125.26C33.9069 125.33 32.9469 125.4 31.9569 125.44C30.9669 125.48 29.9369 125.53 28.8869 125.55C27.8469 125.59 26.7769 125.59 25.7169 125.6C24.6569 125.59 23.5969 125.58 22.5469 125.55C21.4969 125.53 20.4769 125.48 19.4769 125.44C18.4869 125.4 17.5269 125.33 16.6169 125.26C15.7069 125.18 14.8469 125.12 14.0569 125.03C13.6569 124.99 13.2769 124.95 12.9169 124.91C12.5569 124.87 12.2169 124.82 11.8969 124.78C11.2569 124.7 10.6969 124.63 10.2369 124.55C9.31688 124.41 8.79688 124.32 8.79688 124.32C8.79688 124.32 9.32689 124.37 10.2469 124.46C10.7069 124.51 11.2669 124.55 11.9169 124.61C12.5569 124.67 13.2869 124.71 14.0769 124.77C14.8669 124.83 15.7269 124.87 16.6369 124.92C17.5469 124.96 18.5069 125 19.4969 125.04C20.4869 125.07 21.5169 125.11 22.5569 125.12C23.5969 125.15 24.6569 125.14 25.7169 125.14C26.7769 125.14 27.8369 125.14 28.8769 125.12C29.9169 125.11 30.9469 125.07 31.9369 125.04C32.9269 125 33.8869 124.96 34.7969 124.92C35.7069 124.87 36.5669 124.83 37.3569 124.77C38.1469 124.71 38.8769 124.67 39.5169 124.61C40.1569 124.56 40.7269 124.52 41.1869 124.46C42.1069 124.37 42.6369 124.32 42.6369 124.32V124.34Z" fill="white"/>
<path d="M39.3669 117.58C39.3669 117.58 38.9469 117.65 38.2069 117.76C37.8369 117.82 37.3869 117.88 36.8669 117.94C36.3469 118.01 35.7669 118.08 35.1269 118.15C34.4869 118.22 33.7969 118.29 33.0569 118.35C32.3269 118.42 31.5469 118.46 30.7469 118.51C29.9469 118.55 29.1169 118.6 28.2669 118.61C27.4269 118.64 26.5669 118.64 25.7069 118.65C24.8469 118.64 23.9969 118.64 23.1469 118.61C22.3069 118.6 21.4769 118.54 20.6669 118.51C19.8669 118.46 19.0869 118.41 18.3569 118.35C17.6269 118.29 16.9269 118.23 16.2869 118.15C15.9669 118.12 15.6569 118.08 15.3669 118.05C15.0769 118.01 14.7969 117.98 14.5469 117.94C14.0269 117.87 13.5769 117.81 13.2069 117.76C12.4669 117.65 12.0469 117.58 12.0469 117.58C12.0469 117.58 12.4769 117.61 13.2169 117.67C13.5869 117.7 14.0469 117.74 14.5669 117.77C15.0869 117.81 15.6769 117.85 16.3169 117.89C16.9569 117.93 17.6469 117.97 18.3869 118.01C19.1169 118.05 19.8969 118.07 20.6969 118.11C21.4969 118.13 22.3269 118.16 23.1669 118.17C24.0069 118.19 24.8569 118.19 25.7169 118.2C26.5669 118.2 27.4269 118.2 28.2669 118.18C29.1069 118.17 29.9369 118.14 30.7369 118.12C31.5369 118.08 32.3069 118.06 33.0469 118.02C33.7769 117.98 34.4769 117.95 35.1169 117.9C35.7569 117.86 36.3469 117.82 36.8669 117.78C37.3869 117.74 37.8369 117.71 38.2169 117.68C38.9669 117.62 39.3869 117.59 39.3869 117.59L39.3669 117.58Z" fill="white"/>
<path d="M39.3669 67.54C39.3669 67.54 38.9469 67.6 38.1969 67.7C37.8269 67.75 37.3769 67.8 36.8569 67.86C36.3369 67.92 35.7569 67.99 35.1169 68.04C34.4769 68.1 33.7869 68.16 33.0469 68.22C32.3169 68.28 31.5369 68.32 30.7369 68.37C29.9369 68.4 29.1069 68.44 28.2669 68.46C27.4269 68.49 26.5669 68.49 25.7069 68.5C24.8469 68.49 23.9969 68.49 23.1469 68.46C22.3069 68.44 21.4769 68.4 20.6769 68.37C19.8769 68.33 19.0969 68.28 18.3669 68.22C17.6369 68.16 16.9369 68.11 16.2969 68.04C15.6569 67.98 15.0769 67.92 14.5569 67.86C14.0369 67.8 13.5869 67.75 13.2169 67.7C12.4769 67.6 12.0469 67.54 12.0469 67.54C12.0469 67.54 12.4769 67.58 13.2169 67.65C13.5869 67.69 14.0369 67.73 14.5569 67.77C15.0769 67.82 15.6669 67.86 16.3069 67.91C16.9469 67.96 17.6369 68.01 18.3769 68.05C19.1069 68.1 19.8869 68.12 20.6869 68.17C21.4869 68.2 22.3169 68.23 23.1569 68.24C23.9969 68.26 24.8569 68.26 25.7069 68.27C26.5569 68.27 27.4169 68.27 28.2569 68.24C29.0969 68.23 29.9269 68.19 30.7269 68.17C31.5269 68.13 32.3069 68.1 33.0369 68.05C33.7669 68.01 34.4669 67.96 35.1069 67.91C35.7469 67.86 36.3369 67.82 36.8469 67.77C37.3669 67.73 37.8169 67.69 38.1869 67.65C38.9369 67.58 39.3569 67.54 39.3569 67.54H39.3669Z" fill="white"/>
<path d="M40.0568 66.46C40.0568 66.46 39.6068 66.52 38.8268 66.62C38.4368 66.67 37.9568 66.73 37.4068 66.79C37.1368 66.82 36.8468 66.85 36.5368 66.89C36.2268 66.92 35.9068 66.95 35.5668 66.98C34.8968 67.05 34.1568 67.1 33.3868 67.16C32.6168 67.22 31.7968 67.26 30.9468 67.3C30.0968 67.33 29.2268 67.37 28.3368 67.39C27.4468 67.42 26.5468 67.42 25.6368 67.43C24.7368 67.43 23.8268 67.43 22.9368 67.39C22.0468 67.37 21.1768 67.34 20.3268 67.31C19.4768 67.27 18.6668 67.23 17.8868 67.17C17.1168 67.11 16.3768 67.06 15.7068 67C15.3668 66.97 15.0468 66.94 14.7368 66.91C14.4268 66.88 14.1368 66.84 13.8668 66.81C13.3168 66.75 12.8468 66.7 12.4468 66.64C11.6668 66.54 11.2168 66.48 11.2168 66.48C11.2168 66.48 11.6668 66.52 12.4568 66.6C12.8468 66.64 13.3268 66.68 13.8768 66.73C14.4268 66.78 15.0468 66.82 15.7168 66.87C16.3868 66.92 17.1268 66.96 17.8968 67C18.6668 67.04 19.4868 67.07 20.3368 67.11C21.1868 67.14 22.0568 67.17 22.9468 67.18C23.8368 67.2 24.7368 67.2 25.6368 67.2C26.5368 67.2 27.4368 67.2 28.3268 67.17C29.2168 67.16 30.0868 67.12 30.9368 67.1C31.7868 67.06 32.5968 67.03 33.3768 66.99C34.1468 66.94 34.8868 66.91 35.5568 66.85C36.2368 66.8 36.8468 66.76 37.3968 66.71C37.9468 66.66 38.4268 66.62 38.8168 66.58C39.6068 66.5 40.0568 66.46 40.0568 66.46Z" fill="white"/>
<path d="M40.0569 65.38C40.0569 65.38 39.6069 65.44 38.8369 65.54C38.4469 65.59 37.9769 65.65 37.4269 65.71C37.1569 65.74 36.8669 65.77 36.5569 65.81C36.2469 65.84 35.927 65.87 35.597 65.9C34.927 65.97 34.1969 66.02 33.4269 66.07C32.6569 66.13 31.8469 66.17 30.9969 66.21C30.1569 66.24 29.2869 66.28 28.3969 66.3C27.5169 66.33 26.6169 66.33 25.7169 66.34C24.8169 66.33 23.917 66.33 23.037 66.3C22.157 66.28 21.277 66.25 20.437 66.21C19.597 66.17 18.777 66.12 18.007 66.07C17.237 66.01 16.5069 65.96 15.8369 65.9C15.4969 65.87 15.177 65.84 14.877 65.81C14.567 65.78 14.287 65.74 14.007 65.71C13.467 65.65 12.987 65.6 12.597 65.54C11.817 65.44 11.377 65.38 11.377 65.38C11.377 65.38 11.8269 65.42 12.6069 65.5C12.9969 65.54 13.4769 65.58 14.0169 65.63C14.5569 65.68 15.177 65.72 15.847 65.77C16.517 65.82 17.2469 65.86 18.0169 65.91C18.7869 65.95 19.597 65.98 20.437 66.02C21.277 66.05 22.1469 66.08 23.0269 66.09C23.9069 66.11 24.8069 66.11 25.7069 66.11C26.6069 66.11 27.5069 66.11 28.3869 66.09C29.2669 66.08 30.137 66.05 30.977 66.02C31.817 65.98 32.6269 65.95 33.3969 65.91C34.1669 65.87 34.897 65.83 35.567 65.77C36.237 65.72 36.8569 65.68 37.3969 65.63C37.9469 65.58 38.4169 65.55 38.8069 65.5C39.5869 65.42 40.037 65.38 40.037 65.38H40.0569Z" fill="white"/>
<path d="M40.0569 64.3H39.9769C30.9169 65.42 20.3969 65.43 11.3369 64.3C11.0569 64.32 10.8369 64.55 10.8369 64.84C10.8369 65.14 11.0769 65.38 11.3769 65.38H40.0569C40.3569 65.38 40.5969 65.14 40.5969 64.84C40.5969 64.54 40.3569 64.3 40.0569 64.3Z" fill="black"/>
<path d="M41.1472 122.78C41.2372 123.33 39.7072 124.02 37.7472 124.33C35.7872 124.63 34.1172 124.43 34.0372 123.89C33.9572 123.34 35.4772 122.65 37.4372 122.34C39.3972 122.03 41.0672 122.24 41.1472 122.78Z" fill="white"/>
<path d="M38.4472 119.43C38.4872 119.84 37.3272 120.29 35.8572 120.43C34.3872 120.57 33.1572 120.35 33.1172 119.94C33.0772 119.53 34.2372 119.08 35.7072 118.94C37.1772 118.8 38.4072 119.02 38.4472 119.43Z" fill="white"/>
<path d="M11.0768 123.05C11.1068 123.41 12.1668 123.73 13.4368 123.77C14.7068 123.81 15.7068 123.54 15.6768 123.18C15.6468 122.82 14.5869 122.5 13.3169 122.46C12.0469 122.42 11.0468 122.69 11.0768 123.05Z" fill="white"/>
<path d="M12.8271 119.63C12.8471 119.92 13.6271 120.17 14.5571 120.17C15.4971 120.17 16.2371 119.94 16.2171 119.65C16.1971 119.36 15.4171 119.11 14.4871 119.11C13.5471 119.11 12.8071 119.34 12.8271 119.63Z" fill="white"/>
<path d="M37.3469 65.14C37.3269 64.98 36.3969 64.93 35.2469 65.04C34.1069 65.15 33.1869 65.37 33.2069 65.53C33.2269 65.69 34.1569 65.74 35.3069 65.63C36.4469 65.52 37.3669 65.3 37.3469 65.14Z" fill="white"/>
<path d="M37.267 66.25C37.257 66.12 36.197 66.12 34.907 66.24C33.617 66.36 32.577 66.57 32.587 66.7C32.597 66.83 33.657 66.83 34.947 66.71C36.237 66.59 37.277 66.38 37.267 66.25Z" fill="white"/>
<path d="M37.3368 67.23C37.3268 67.09 35.9868 67.11 34.3368 67.26C32.6968 67.42 31.3768 67.65 31.3868 67.79C31.3968 67.93 32.7368 67.91 34.3868 67.76C36.0268 67.6 37.3468 67.37 37.3368 67.23Z" fill="white"/>
<path d="M13.927 65.14C13.947 64.98 14.267 64.87 14.637 64.91C15.017 64.95 15.307 65.11 15.297 65.27C15.277 65.43 14.957 65.54 14.587 65.5C14.207 65.46 13.917 65.3 13.927 65.14Z" fill="white"/>
<path d="M13.8768 66.24C13.8868 66.11 14.2468 66.04 14.6768 66.08C15.1068 66.12 15.4468 66.26 15.4268 66.39C15.4168 66.52 15.0568 66.59 14.6268 66.55C14.1968 66.51 13.8568 66.37 13.8768 66.24Z" fill="white"/>
<path d="M13.797 67.22C13.807 67.08 14.2671 67.01 14.8071 67.06C15.3471 67.11 15.787 67.27 15.767 67.4C15.747 67.53 15.2971 67.61 14.7571 67.56C14.2171 67.51 13.777 67.35 13.797 67.22Z" fill="white"/>
<path d="M26.5568 0.019989L25.2668 2.36C24.9068 2.36 24.3368 1.42999 24.4868 0.0399933C22.6968 0.289993 21.7468 3.75999 21.7468 3.75999C21.7468 3.75999 20.6268 2.35999 20.9768 0.269989C20.5268 0.319989 20.1968 1.17999 19.7668 1.23999C19.3168 1.29999 17.6568 0.769991 17.2168 0.849991C16.1568 3.55999 17.3268 10.14 17.3268 10.14C17.3268 10.14 15.3168 4.09999 15.8668 1.12999C15.2668 1.26999 14.6868 1.42 14.1168 1.58C13.7468 2.68 13.5568 3.92999 13.5568 3.92999C13.5568 3.92999 12.6968 3.14999 12.5568 2.04999C12.4068 2.09999 12.2568 2.15 12.1068 2.2C11.1668 3.17 11.6968 5.86 11.6968 5.86C11.6968 5.86 10.4468 3.99999 10.4268 2.81999C10.1768 2.91999 9.92683 3.02 9.68683 3.12C9.43683 3.23 9.52682 6.53 9.52682 6.53C9.52682 6.53 8.31683 4.92999 8.37683 3.70999C7.72683 4.19999 8.81683 9.54999 8.81683 9.54999C8.81683 9.54999 7.33683 4.98 7.34683 4.22C6.63683 4.98 6.95682 7.87 6.95682 7.87C6.95682 7.87 6.35684 6.27 6.19684 4.83C5.95684 4.96 5.72682 5.09999 5.49682 5.23999C5.23682 5.38999 4.98682 5.55 4.74682 5.7C4.65682 6.49 5.00683 9.98999 5.00683 9.98999C5.00683 9.98999 3.60681 7.40999 3.35681 6.62999C3.20681 6.73999 3.12683 8.81999 3.12683 8.81999C3.12683 8.81999 2.42682 7.91999 2.42682 7.31999C1.84682 7.68999 2.26681 11.78 2.26681 11.78C2.26681 11.78 1.43682 9.24999 1.21682 8.54999C1.12682 8.66999 1.04682 8.78999 0.966825 8.90999C0.776825 10.24 1.78683 14.1 1.78683 14.1C1.78683 14.1 0.636813 13.15 0.266813 10.44C0.196813 10.67 0.14683 10.9 0.0968297 11.13C-0.0531703 11.98 -0.0331739 12.87 0.186826 13.74L13.0068 64.47C18.2068 65.63 24.6568 65.22 25.6868 65.14C26.7168 65.22 33.1668 65.62 38.3668 64.47L51.1868 13.74C51.2668 13.44 51.3168 13.13 51.3468 12.83C51.4068 12.23 51.5868 10.66 51.2868 10.08C50.8768 10.81 50.3768 10.49 50.3768 10.49C50.3768 10.49 50.7268 8.93999 49.8668 8.14999C49.7868 8.75999 49.3568 9.25999 49.3568 9.25999C49.3568 9.25999 48.4568 6.76 47.9568 6.59C47.5068 7.26 46.6368 6.87 46.6368 6.87C46.6368 6.87 46.3168 5.11999 45.6368 4.90999C45.2768 5.93999 44.6068 5.89 44.6068 5.89C44.6068 5.89 44.8268 4.96999 44.2468 4.28999C42.5968 4.37999 40.8068 6.36 40.8068 6.36C40.8068 6.36 40.3568 5.41 41.3668 2.95C40.5468 3.6 39.9268 3.78 39.4868 3.62C38.4668 6.31 36.5068 6.53 36.5068 6.53C36.5068 6.53 37.3468 4.51999 37.2668 1.53999C36.1468 3.74999 35.2668 3.78999 35.2668 3.78999C35.2668 3.78999 35.6168 1.69999 34.0868 0.789993C33.1368 2.78999 32.0768 13.3 32.0768 13.3C32.0768 13.3 32.2368 6.23999 33.1368 0.48999C31.9768 0.53999 29.8368 4.79999 29.8368 4.79999C29.8368 4.79999 29.4968 1.82999 29.8368 0.48999C28.5468 0.86999 28.1068 2.45 28.1068 2.45C28.1068 2.45 26.7868 1.63 26.5368 0L26.5568 0.019989Z" fill="black"/>
<path d="M38.4268 64.61C38.4268 64.61 38.0268 64.66 37.3368 64.74C36.9868 64.78 36.5668 64.82 36.0868 64.87C35.6068 64.92 35.0568 64.97 34.4668 65.02C33.8668 65.07 33.2268 65.11 32.5468 65.16C31.8668 65.21 31.1468 65.24 30.3968 65.27C29.6468 65.3 28.8768 65.33 28.0968 65.34C27.3168 65.36 26.5168 65.36 25.7168 65.37C24.9168 65.37 24.1268 65.36 23.3368 65.34C22.5568 65.33 21.7868 65.3 21.0368 65.27C20.2868 65.24 19.5668 65.2 18.8868 65.16C18.2068 65.11 17.5568 65.07 16.9668 65.02C16.3668 64.98 15.8268 64.92 15.3468 64.87C14.8668 64.82 14.4468 64.78 14.0968 64.74C13.4068 64.66 13.0068 64.61 13.0068 64.61C13.0068 64.61 13.4068 64.64 14.0968 64.7C14.7868 64.76 15.7868 64.83 16.9768 64.9C17.5768 64.94 18.2168 64.97 18.8968 65C19.5768 65.03 20.2968 65.05 21.0468 65.08C21.7968 65.1 22.5668 65.13 23.3468 65.13C24.1268 65.15 24.9268 65.14 25.7168 65.15C26.5168 65.15 27.3068 65.15 28.0868 65.13C28.8668 65.13 29.6368 65.1 30.3868 65.08C31.1268 65.05 31.8568 65.03 32.5368 65C33.2168 64.97 33.8668 64.94 34.4568 64.9C35.6468 64.83 36.6368 64.76 37.3368 64.7C38.0268 64.64 38.4268 64.61 38.4268 64.61Z" fill="white"/>
<path d="M48.9869 8.28C48.9869 8.28 48.9069 8.73999 48.7769 9.54999C48.6369 10.36 48.4368 11.52 48.1868 12.9C47.9368 14.29 47.6369 15.9 47.2969 17.63C47.1269 18.49 46.9569 19.39 46.7769 20.29C46.5969 21.2 46.4169 22.12 46.2269 23.04C46.0369 23.96 45.8469 24.88 45.6669 25.78C45.4769 26.68 45.2868 27.57 45.1068 28.43C44.7468 30.15 44.3969 31.76 44.0869 33.13C43.7869 34.5 43.5068 35.65 43.3268 36.45C43.1368 37.25 43.0269 37.71 43.0269 37.71C43.0269 37.71 43.1068 37.25 43.2368 36.44C43.3768 35.63 43.5768 34.47 43.8268 33.09C44.0768 31.7 44.3769 30.09 44.7169 28.36C44.8869 27.5 45.0568 26.6 45.2368 25.7C45.4168 24.79 45.6069 23.87 45.7869 22.95C45.9769 22.03 46.1669 21.11 46.3469 20.21C46.5369 19.31 46.7269 18.42 46.9069 17.56C47.2769 15.84 47.6169 14.23 47.9269 12.86C48.2269 11.49 48.5068 10.34 48.6868 9.53999C48.8768 8.73999 48.9869 8.28 48.9869 8.28Z" fill="white"/>
<path d="M45.9868 5.17999C45.9868 5.17999 45.8668 5.98 45.6568 7.37C45.4368 8.75999 45.1468 10.76 44.7668 13.15C44.3868 15.54 43.9568 18.33 43.4668 21.31C42.9768 24.29 42.4468 27.47 41.9268 30.66C41.3768 33.84 40.8368 37.02 40.3268 40C39.8168 42.98 39.3067 45.76 38.8867 48.14C38.4667 50.52 38.0868 52.5 37.8368 53.89C37.5768 55.28 37.4268 56.07 37.4268 56.07C37.4268 56.07 37.5468 55.27 37.7568 53.88C37.9768 52.49 38.2668 50.49 38.6468 48.1C39.0268 45.71 39.4568 42.92 39.9468 39.94C40.4368 36.96 40.9668 33.78 41.4868 30.59C42.0368 27.41 42.5768 24.23 43.0868 21.25C43.5968 18.27 44.1068 15.49 44.5268 13.11C44.9468 10.73 45.3268 8.75 45.5768 7.36C45.8368 5.97 45.9868 5.17999 45.9868 5.17999Z" fill="white"/>
<path d="M41.2666 11.78C41.2666 11.78 41.2066 12.34 41.1066 13.33C40.9966 14.31 40.8566 15.72 40.6466 17.41C40.4466 19.1 40.2266 21.06 39.9566 23.17C39.6866 25.28 39.4066 27.52 39.1166 29.77C38.8066 32.01 38.5066 34.26 38.2166 36.36C37.9366 38.46 37.6266 40.42 37.3866 42.1C37.1466 43.78 36.9166 45.18 36.7666 46.16C36.6066 47.14 36.5166 47.7 36.5166 47.7C36.5166 47.7 36.5766 47.14 36.6766 46.15C36.7866 45.17 36.9266 43.76 37.1266 42.07C37.3266 40.38 37.5466 38.41 37.8166 36.31C38.0866 34.2 38.3666 31.96 38.6566 29.71C38.9666 27.47 39.2666 25.22 39.5566 23.12C39.8466 21.02 40.1466 19.06 40.3866 17.38C40.6266 15.7 40.8566 14.3 41.0066 13.32C41.1666 12.34 41.2566 11.78 41.2566 11.78H41.2666Z" fill="white"/>
<path d="M39.3668 4.39999C39.3668 4.39999 39.3568 4.72 39.3268 5.28C39.2968 5.84 39.2568 6.63999 39.1868 7.59999C39.1268 8.55999 39.0368 9.67999 38.9468 10.88C38.8968 11.48 38.8468 12.1 38.7868 12.73C38.7268 13.36 38.6668 14 38.6168 14.64C38.5568 15.28 38.4868 15.92 38.4268 16.55C38.3668 17.18 38.2968 17.8 38.2368 18.39C38.1068 19.59 37.9768 20.7 37.8568 21.66C37.7368 22.62 37.6268 23.41 37.5568 23.97C37.4768 24.53 37.4268 24.84 37.4268 24.84C37.4268 24.84 37.4368 24.52 37.4668 23.96C37.4968 23.4 37.5368 22.6 37.6068 21.64C37.6668 20.68 37.7468 19.56 37.8468 18.36C37.8968 17.76 37.9468 17.14 38.0068 16.51C38.0668 15.88 38.1268 15.24 38.1768 14.6C38.2368 13.96 38.3068 13.32 38.3668 12.69C38.4368 12.06 38.4968 11.44 38.5668 10.85C38.6968 9.64999 38.8268 8.54 38.9468 7.58C39.0668 6.62 39.1768 5.82999 39.2468 5.26999C39.3268 4.70999 39.3768 4.39999 39.3768 4.39999H39.3668Z" fill="white"/>
<path d="M36.5265 8.17999C36.5265 8.17999 36.5065 8.79999 36.4765 9.87999C36.4365 10.96 36.3965 12.51 36.3165 14.36C36.2365 16.21 36.1565 18.38 36.0365 20.69C35.9165 23.01 35.7965 25.48 35.6665 27.95C35.5265 30.42 35.3765 32.89 35.2365 35.2C35.1065 37.51 34.9464 39.67 34.8264 41.52C34.7064 43.37 34.5765 44.91 34.4965 45.99C34.4065 47.07 34.3564 47.69 34.3564 47.69C34.3564 47.69 34.3765 47.07 34.4065 45.99C34.4465 44.91 34.4865 43.36 34.5665 41.51C34.6465 39.66 34.7265 37.49 34.8465 35.18C34.9665 32.86 35.0865 30.39 35.2165 27.92C35.3665 25.45 35.5065 22.98 35.6465 20.67C35.7865 18.36 35.9365 16.2 36.0565 14.35C36.1765 12.5 36.3064 10.96 36.3864 9.87999C36.4764 8.79999 36.5265 8.17999 36.5265 8.17999Z" fill="white"/>
<path d="M33.7667 10.71C33.7667 10.71 33.7567 11.15 33.7367 11.93C33.7067 12.7 33.6867 13.81 33.6367 15.14C33.5867 16.47 33.5167 18.01 33.4367 19.67C33.3967 20.5 33.3467 21.35 33.3067 22.22C33.2567 23.09 33.2067 23.97 33.1567 24.86C33.1067 25.74 33.0467 26.63 32.9967 27.49C32.9367 28.36 32.8867 29.21 32.8267 30.04C32.7167 31.69 32.5967 33.24 32.4967 34.56C32.3967 35.88 32.2867 36.98 32.2267 37.76C32.1567 38.53 32.1167 38.97 32.1167 38.97C32.1167 38.97 32.1267 38.53 32.1467 37.75C32.1767 36.98 32.1967 35.87 32.2467 34.54C32.2967 33.21 32.3667 31.67 32.4467 30.01C32.4867 29.18 32.5367 28.33 32.5767 27.46C32.6267 26.59 32.6767 25.71 32.7267 24.82C32.7767 23.94 32.8367 23.05 32.8867 22.19C32.9467 21.32 32.9967 20.47 33.0567 19.64C33.1667 17.99 33.2867 16.44 33.3867 15.12C33.4867 13.8 33.5967 12.7 33.6567 11.92C33.7267 11.15 33.7667 10.71 33.7667 10.71Z" fill="white"/>
<path d="M30.3368 7.08C30.3368 7.08 30.3368 7.81999 30.3168 9.09999C30.2968 10.39 30.2868 12.23 30.2368 14.43C30.1868 16.64 30.1568 19.21 30.0768 21.97C30.0068 24.73 29.9268 27.67 29.8468 30.61C29.7468 33.55 29.6468 36.49 29.5568 39.25C29.4668 42.01 29.3468 44.58 29.2668 46.78C29.1768 48.98 29.0768 50.82 29.0268 52.11C28.9568 53.4 28.9268 54.13 28.9268 54.13C28.9268 54.13 28.9268 53.39 28.9468 52.11C28.9668 50.82 28.9768 48.98 29.0268 46.78C29.0768 44.57 29.1068 42 29.1868 39.24C29.2568 36.48 29.3368 33.54 29.4168 30.6C29.5168 27.66 29.6168 24.72 29.7068 21.96C29.7968 19.2 29.9168 16.63 30.0068 14.43C30.0968 12.23 30.1968 10.39 30.2468 9.09999C30.3168 7.80999 30.3468 7.08 30.3468 7.08H30.3368Z" fill="white"/>
<path d="M27.5069 20.17C27.5069 20.17 27.5269 20.5 27.5469 21.07C27.5669 21.64 27.6069 22.46 27.6269 23.44C27.6569 24.42 27.6769 25.56 27.6969 26.79C27.6969 27.4 27.7069 28.03 27.7169 28.68C27.7169 29.32 27.7169 29.98 27.7169 30.63C27.7169 31.28 27.7169 31.94 27.7169 32.58C27.7169 33.22 27.7069 33.86 27.6969 34.47C27.6769 35.69 27.6569 36.84 27.6269 37.82C27.6069 38.8 27.5569 39.62 27.5469 40.19C27.5269 40.76 27.5069 41.09 27.5069 41.09C27.5069 41.09 27.4869 40.76 27.4669 40.19C27.4469 39.62 27.4069 38.8 27.3869 37.82C27.3569 36.84 27.3369 35.7 27.3169 34.47C27.3169 33.86 27.2969 33.23 27.2969 32.58C27.2969 31.94 27.2969 31.28 27.2969 30.63C27.2969 29.98 27.2969 29.32 27.2969 28.68C27.2969 28.04 27.3069 27.4 27.3169 26.79C27.3369 25.57 27.3569 24.42 27.3869 23.44C27.4169 22.46 27.4569 21.64 27.4669 21.07C27.4869 20.5 27.5069 20.17 27.5069 20.17Z" fill="white"/>
<path d="M23.6968 5.12C23.6968 5.12 23.7368 5.52 23.7968 6.23C23.8568 6.94 23.9468 7.94999 24.0368 9.15999C24.1268 10.37 24.2268 11.79 24.3168 13.31C24.3668 14.07 24.4068 14.85 24.4568 15.65C24.4968 16.45 24.5468 17.26 24.5868 18.07C24.6268 18.88 24.6668 19.69 24.7068 20.49C24.7368 21.29 24.7768 22.07 24.8068 22.83C24.8668 24.35 24.9168 25.77 24.9568 26.99C24.9968 28.21 25.0068 29.22 25.0268 29.93C25.0268 30.64 25.0368 31.05 25.0368 31.05C25.0368 31.05 24.9968 30.65 24.9368 29.94C24.8768 29.23 24.7868 28.22 24.6968 27.01C24.6068 25.8 24.5068 24.38 24.4168 22.86C24.3668 22.1 24.3268 21.32 24.2768 20.52C24.2368 19.72 24.1868 18.91 24.1468 18.1C24.1068 17.29 24.0668 16.48 24.0268 15.68C23.9968 14.88 23.9568 14.1 23.9268 13.34C23.8668 11.82 23.8168 10.4 23.7768 9.17999C23.7368 7.95999 23.7268 6.94999 23.7068 6.23999C23.7068 5.52999 23.6968 5.12 23.6968 5.12Z" fill="white"/>
<path d="M19.9766 1.14C19.9766 1.14 20.0465 1.81999 20.1765 3.01999C20.2965 4.21999 20.4865 5.93 20.6765 7.98C20.8665 10.03 21.1165 12.43 21.3365 15C21.5665 17.57 21.8065 20.31 22.0465 23.05C22.2665 25.79 22.4866 28.54 22.6966 31.11C22.9066 33.68 23.0666 36.08 23.2266 38.14C23.3766 40.2 23.4866 41.92 23.5666 43.12C23.6366 44.32 23.6866 45.01 23.6866 45.01C23.6866 45.01 23.6165 44.33 23.4865 43.13C23.3665 41.93 23.1765 40.22 22.9865 38.17C22.7965 36.12 22.5465 33.72 22.3265 31.15C22.0965 28.58 21.8565 25.84 21.6165 23.1C21.3965 20.36 21.1766 17.61 20.9666 15.04C20.7566 12.47 20.5966 10.07 20.4366 8.00999C20.2866 5.94999 20.1766 4.23 20.0966 3.03C20.0266 1.83 19.9766 1.14 19.9766 1.14Z" fill="white"/>
<path d="M17.6567 7.08C17.6567 7.08 17.7067 7.42 17.7967 8C17.8767 8.59 18.0067 9.43 18.1367 10.44C18.2667 11.45 18.4167 12.63 18.5667 13.89C18.6367 14.52 18.7167 15.18 18.7867 15.84C18.8567 16.5 18.9267 17.18 19.0067 17.85C19.0767 18.53 19.1367 19.2 19.2067 19.87C19.2667 20.54 19.3267 21.19 19.3867 21.82C19.5067 23.09 19.5967 24.27 19.6767 25.29C19.7567 26.31 19.8067 27.15 19.8467 27.75C19.8867 28.34 19.8967 28.68 19.8967 28.68C19.8967 28.68 19.8467 28.34 19.7567 27.76C19.6767 27.17 19.5467 26.33 19.4167 25.32C19.2867 24.31 19.1367 23.13 18.9867 21.87C18.9167 21.24 18.8367 20.58 18.7667 19.92C18.6967 19.26 18.6267 18.58 18.5467 17.91C18.4767 17.23 18.4167 16.56 18.3467 15.89C18.2867 15.22 18.2267 14.57 18.1667 13.94C18.0467 12.67 17.9567 11.49 17.8767 10.47C17.7967 9.45 17.7467 8.60999 17.7067 8.00999C17.6667 7.41999 17.6567 7.08 17.6567 7.08Z" fill="white"/>
<path d="M14.0767 2.12999C14.0767 2.12999 14.1367 2.36999 14.2367 2.79999C14.3267 3.22999 14.4767 3.83999 14.6267 4.56999C14.7767 5.29999 14.9467 6.16 15.1267 7.08C15.2067 7.54 15.3067 8.02 15.3867 8.5C15.4667 8.98 15.5567 9.48 15.6467 9.97C15.7267 10.46 15.8067 10.96 15.8867 11.44C15.9667 11.92 16.0367 12.4 16.1067 12.87C16.2467 13.8 16.3767 14.66 16.4667 15.4C16.5667 16.14 16.6367 16.76 16.6867 17.2C16.7367 17.63 16.7567 17.88 16.7567 17.88C16.7567 17.88 16.6967 17.64 16.5967 17.21C16.5067 16.78 16.3567 16.17 16.2067 15.44C16.0567 14.71 15.8867 13.85 15.7067 12.93C15.6267 12.47 15.5267 11.99 15.4467 11.51C15.3667 11.03 15.2767 10.53 15.1867 10.04C15.1067 9.54999 15.0267 9.04999 14.9467 8.56999C14.8667 8.08999 14.7967 7.61 14.7267 7.14C14.5867 6.21 14.4667 5.35 14.3667 4.61C14.2667 3.87 14.1967 3.25 14.1467 2.81C14.0967 2.38 14.0767 2.12999 14.0767 2.12999Z" fill="white"/>
<path d="M17.6567 25.88C17.6567 25.88 17.7567 26.32 17.9167 27.09C18.0767 27.86 18.3167 28.96 18.5867 30.27C18.8567 31.59 19.1567 33.13 19.4767 34.78C19.6367 35.61 19.7967 36.46 19.9567 37.33C20.1167 38.2 20.2767 39.08 20.4467 39.96C20.6067 40.84 20.7667 41.73 20.9167 42.6C21.0667 43.47 21.2167 44.33 21.3667 45.15C21.6567 46.81 21.9067 48.36 22.1267 49.69C22.3467 51.02 22.5067 52.13 22.6267 52.9C22.7367 53.68 22.8067 54.12 22.8067 54.12C22.8067 54.12 22.7067 53.68 22.5467 52.91C22.3867 52.14 22.1467 51.05 21.8767 49.73C21.6067 48.41 21.3067 46.87 20.9867 45.22C20.8267 44.39 20.6667 43.54 20.5067 42.67C20.3467 41.8 20.1867 40.92 20.0167 40.04C19.8567 39.16 19.6967 38.27 19.5467 37.4C19.3967 36.53 19.2467 35.67 19.0967 34.85C18.8067 33.19 18.5567 31.64 18.3367 30.31C18.1167 28.98 17.9567 27.87 17.8367 27.1C17.7267 26.32 17.6567 25.88 17.6567 25.88Z" fill="white"/>
<path d="M11.2668 5.26999C11.2668 5.26999 11.3968 5.81 11.6268 6.75C11.8468 7.7 12.1868 9.04 12.5568 10.67C12.9268 12.29 13.3768 14.18 13.8268 16.22C14.2768 18.25 14.7568 20.42 15.2368 22.59C15.6968 24.76 16.1568 26.94 16.5868 28.97C17.0168 31.01 17.3868 32.92 17.7268 34.55C18.0568 36.18 18.3068 37.55 18.4968 38.5C18.6768 39.46 18.7768 40 18.7768 40C18.7768 40 18.6468 39.46 18.4068 38.52C18.1868 37.57 17.8468 36.23 17.4768 34.6C17.1068 32.98 16.6568 31.09 16.2068 29.05C15.7568 27.02 15.2768 24.85 14.7968 22.68C14.3368 20.51 13.8768 18.33 13.4468 16.3C13.0168 14.26 12.6468 12.35 12.3068 10.72C11.9768 9.09 11.7268 7.71999 11.5368 6.76999C11.3568 5.80999 11.2568 5.26999 11.2568 5.26999H11.2668Z" fill="white"/>
<path d="M8.70654 6.37999C8.70654 6.37999 8.80654 6.75999 8.98654 7.40999C9.15654 8.06999 9.40655 9.01 9.68655 10.14C9.96655 11.27 10.2966 12.59 10.6266 14.01C10.7966 14.72 10.9665 15.45 11.1365 16.19C11.3065 16.93 11.4766 17.69 11.6566 18.45C11.8266 19.21 11.9966 19.97 12.1566 20.71C12.3166 21.46 12.4765 22.19 12.6365 22.9C12.9465 24.32 13.2166 25.65 13.4466 26.8C13.6766 27.94 13.8565 28.9 13.9865 29.56C14.1065 30.23 14.1765 30.61 14.1765 30.61C14.1765 30.61 14.0765 30.23 13.8965 29.58C13.7265 28.92 13.4766 27.98 13.1966 26.85C12.9066 25.72 12.5866 24.4 12.2566 22.98C12.0866 22.27 11.9166 21.54 11.7466 20.8C11.5766 20.06 11.4066 19.3 11.2266 18.54C11.0566 17.78 10.8866 17.02 10.7266 16.28C10.5666 15.53 10.4066 14.8 10.2466 14.09C9.93655 12.67 9.66655 11.34 9.43655 10.19C9.20655 9.05 9.02655 8.08999 8.89655 7.42999C8.77655 6.75999 8.70654 6.37999 8.70654 6.37999Z" fill="white"/>
<path d="M6.4668 9.42999C6.4668 9.42999 6.64681 10.05 6.94681 11.13C7.24681 12.21 7.68681 13.76 8.19681 15.62C8.69681 17.48 9.2968 19.65 9.9068 21.98C10.5168 24.31 11.1768 26.8 11.8268 29.28C12.4568 31.77 13.0968 34.26 13.6868 36.6C14.2868 38.93 14.8068 41.12 15.2668 42.99C15.7268 44.86 16.0868 46.43 16.3568 47.52C16.6068 48.62 16.7568 49.24 16.7568 49.24C16.7568 49.24 16.5768 48.62 16.2768 47.54C15.9768 46.46 15.5368 44.91 15.0268 43.05C14.5268 41.19 13.9268 39.02 13.3168 36.69C12.7068 34.36 12.0468 31.87 11.3968 29.39C10.7668 26.9 10.1268 24.41 9.5368 22.07C8.9468 19.74 8.41679 17.55 7.95679 15.68C7.49679 13.81 7.13679 12.24 6.86679 11.15C6.61679 10.05 6.4668 9.42999 6.4668 9.42999Z" fill="white"/>
<path d="M6.02686 16.01C6.02686 16.01 6.13685 16.34 6.30685 16.93C6.47685 17.52 6.73686 18.36 7.02686 19.37C7.31686 20.38 7.64685 21.56 7.98685 22.83C8.15685 23.46 8.33687 24.12 8.50687 24.79C8.67687 25.46 8.85687 26.13 9.03687 26.81C9.20687 27.49 9.37684 28.17 9.54684 28.84C9.71684 29.51 9.87687 30.17 10.0369 30.81C10.3469 32.09 10.6369 33.28 10.8669 34.3C11.1069 35.32 11.2869 36.18 11.4169 36.78C11.5469 37.38 11.6169 37.72 11.6169 37.72C11.6169 37.72 11.5069 37.39 11.3369 36.8C11.1669 36.21 10.9069 35.37 10.6169 34.36C10.3269 33.35 9.99686 32.17 9.65686 30.9C9.48686 30.27 9.30684 29.61 9.13684 28.94C8.96684 28.27 8.78684 27.6 8.60684 26.92C8.43684 26.24 8.26686 25.56 8.09686 24.89C7.92686 24.22 7.76684 23.56 7.60684 22.92C7.29684 21.64 7.00686 20.45 6.77686 19.43C6.53686 18.41 6.35687 17.55 6.22687 16.95C6.09687 16.35 6.02686 16.01 6.02686 16.01Z" fill="white"/>
<path d="M2.55664 12.87C2.55664 12.87 2.71665 13.43 3.00665 14.42C3.28665 15.41 3.69666 16.82 4.16666 18.52C4.62666 20.22 5.18665 22.2 5.75665 24.33C6.32665 26.46 6.92664 28.73 7.52664 31C8.10664 33.28 8.69664 35.55 9.24664 37.68C9.79664 39.81 10.2766 41.81 10.7066 43.52C11.1366 45.23 11.4666 46.66 11.7066 47.66C11.9366 48.66 12.0766 49.23 12.0766 49.23C12.0766 49.23 11.9166 48.67 11.6266 47.68C11.3466 46.69 10.9366 45.28 10.4666 43.58C10.0066 41.88 9.44665 39.9 8.87665 37.77C8.30665 35.64 7.70663 33.37 7.10663 31.1C6.52663 28.82 5.93663 26.55 5.38663 24.42C4.83663 22.29 4.35664 20.29 3.92664 18.58C3.49664 16.87 3.16664 15.44 2.92664 14.44C2.69664 13.44 2.55664 12.87 2.55664 12.87Z" fill="white"/>
<path d="M27.5066 1.94C27.5066 1.94 27.5766 2.78999 27.6366 4.06999C27.6666 4.70999 27.6866 5.45 27.7066 6.25C27.7066 6.65 27.7266 7.06 27.7266 7.48C27.7266 7.9 27.7266 8.32 27.7266 8.75C27.7266 9.18 27.7266 9.59999 27.7266 10.02C27.7266 10.44 27.7166 10.85 27.7066 11.25C27.6866 12.05 27.6666 12.79 27.6366 13.43C27.5866 14.71 27.5066 15.56 27.5066 15.56C27.5066 15.56 27.4266 14.71 27.3766 13.43C27.3466 12.79 27.3266 12.05 27.3066 11.25C27.3066 10.85 27.2866 10.44 27.2866 10.02C27.2866 9.59999 27.2866 9.18 27.2866 8.75C27.2866 8.32 27.2866 7.9 27.2866 7.48C27.2866 7.06 27.2966 6.65 27.3066 6.25C27.3266 5.45 27.3466 4.70999 27.3766 4.06999C27.4266 2.78999 27.5066 1.94 27.5066 1.94Z" fill="white"/>
</svg>
