<svg width="169" height="138" viewBox="0 0 169 138" fill="none" xmlns="http://www.w3.org/2000/svg">
<path d="M69.9878 63.5578C70.3595 64.0962 71.0965 64.2372 71.6349 63.8654C72.1732 63.4937 72.3142 62.7567 71.9425 62.2184C71.5708 61.68 70.8338 61.539 70.2954 61.9107C69.757 62.2824 69.6161 63.0195 69.9878 63.5578Z" fill="white"/>
<path d="M70.0325 63.5258C70.385 64.0385 71.0836 64.1731 71.6027 63.8206C72.1154 63.4681 72.25 62.7695 71.8975 62.2504C71.545 61.7377 70.8465 61.6031 70.3273 61.9556C69.8082 62.3081 69.68 63.0067 70.0325 63.5258Z" fill="black"/>
<path d="M70.0773 63.4938C70.4105 63.9872 71.0835 64.109 71.5706 63.7758C72.0576 63.4425 72.1858 62.7695 71.8526 62.2824C71.5193 61.7954 70.8463 61.6672 70.3593 62.0005C69.8722 62.3337 69.744 63.0067 70.0773 63.4938Z" fill="white"/>
<path d="M70.1864 63.5194C70.1864 63.5194 70.148 63.5386 70.1223 63.5514C70.1095 63.5322 70.0903 63.513 70.0775 63.4938C70.0646 63.4745 70.0518 63.4489 70.0454 63.4297C70.0646 63.4168 70.0775 63.3976 70.0967 63.3848C70.3146 63.1925 70.6158 62.9618 70.9299 62.7439C71.2375 62.5388 71.5515 62.3466 71.8015 62.2184C71.8207 62.2376 71.8399 62.2568 71.8592 62.2825C71.8784 62.3081 71.8848 62.3337 71.8976 62.3594C71.6861 62.5452 71.3913 62.776 71.0901 62.9811C70.776 63.1926 70.4492 63.3912 70.1928 63.5194H70.1864Z" fill="black"/>
<path d="M29.9248 1.35871C29.9248 1.35871 29.9376 1.36513 29.944 1.37154C29.7966 1.35872 29.6492 1.35872 29.5018 1.37154C29.1301 1.4164 28.7584 1.551 28.4315 1.77531C27.3804 2.49312 27.0728 3.91589 27.7329 5.00542L77.7166 87.4249L84.8433 106.524C85.2856 108.267 84.587 110.093 83.1129 111.112L83.0104 111.183C76.6527 115.65 75.0825 124.321 79.4662 130.73C81.4658 133.653 84.9907 136.313 88.1632 137.146C90.1692 137.671 95.9885 137.864 99.898 133.819C104.948 128.596 106.602 121.815 103.615 115.829C101.821 112.234 97.5652 109.453 93.9377 108.773C87.8556 107.632 84.5742 86.6686 84.0486 83.0924L79.306 73.793L77.0116 61.1737L31.4117 1.98036C31.1425 1.62787 30.4567 1.39716 29.9248 1.35229V1.35871ZM99.3789 120.072C100.968 125.475 98.5714 130.935 94.0274 132.275C93.0917 132.551 90.5537 132.429 90.7973 132.461C91.0344 132.499 90.2077 132.377 89.7654 132.269C89.336 132.14 88.8105 131.967 88.2465 131.679C87.6761 131.41 87.0737 131.019 86.4648 130.525C85.8559 130.038 85.2599 129.429 84.7216 128.718C84.1832 128.007 83.6897 127.193 83.3052 126.295C83.2155 126.071 83.1065 125.84 83.0296 125.61C82.9527 125.372 82.8694 125.148 82.7989 124.898C82.6835 124.411 82.5361 123.924 82.472 123.411C82.3695 122.905 82.3502 122.386 82.3118 121.873L82.3759 120.316C82.4977 119.284 82.7412 118.252 83.1578 117.31C83.5744 116.368 84.1255 115.509 84.7857 114.785C84.9587 114.612 85.1189 114.426 85.2984 114.266C85.4842 114.112 85.6701 113.958 85.8495 113.811C86.2405 113.548 86.6186 113.279 87.0352 113.099C87.4326 112.875 87.8491 112.772 88.2401 112.625C88.6567 112.51 89.0476 112.433 89.4386 112.388C90.2141 112.305 90.9383 112.343 91.56 112.458C92.1816 112.567 92.7072 112.74 93.1301 112.907C93.5531 113.067 93.8672 113.24 94.0787 113.349C94.2902 113.471 94.3991 113.535 94.3991 113.535C94.3991 113.535 94.2838 113.477 94.0723 113.362C93.9697 113.311 93.8351 113.247 93.6813 113.183C96.2449 114.362 98.4175 116.836 99.3661 120.072H99.3789Z" fill="black"/>
<path d="M29.7456 0C29.7456 0 29.7584 0.0064215 29.7648 0.0128305C29.6174 1.25178e-05 29.47 1.25178e-05 29.3226 0.0128305C28.9509 0.0576933 28.5792 0.192246 28.2523 0.41656C27.2012 1.13437 26.8936 2.55718 27.5537 3.64671L77.5374 86.0662L84.6641 105.165C85.1064 106.908 84.4078 108.735 82.9337 109.754L82.8312 109.824C76.4735 114.291 74.9033 122.963 79.287 129.372C81.2866 132.294 84.8115 134.954 87.984 135.793C89.99 136.319 95.8093 136.511 99.7188 132.467C104.769 127.244 106.423 120.463 103.436 114.477C101.642 110.882 97.386 108.1 93.7585 107.421C87.6764 106.28 84.395 85.3163 83.8694 81.7401L79.1268 72.4407L76.8324 59.8214L31.2325 0.628067C30.9633 0.275574 30.2775 0.0448629 29.7456 0ZM99.2061 118.714C100.796 124.116 98.3986 129.577 93.8546 130.916C92.9189 131.192 90.3809 131.07 90.6181 131.102C90.8552 131.141 90.0285 131.019 89.5862 130.91C89.1568 130.782 88.6313 130.609 88.0673 130.32C87.4969 130.051 86.8945 129.66 86.2856 129.167C85.6768 128.679 85.0807 128.071 84.5424 127.359C84.004 126.648 83.5105 125.834 83.126 124.937C83.0363 124.712 82.9273 124.482 82.8504 124.251C82.7735 124.014 82.6902 123.789 82.6197 123.539C82.5043 123.052 82.3569 122.565 82.2928 122.053C82.1903 121.546 82.171 121.027 82.1326 120.514L82.1967 118.957C82.3185 117.925 82.562 116.893 82.9786 115.951C83.3952 115.009 83.9463 114.15 84.6065 113.426C84.7795 113.253 84.9397 113.067 85.1192 112.907C85.305 112.753 85.4909 112.599 85.6703 112.452C86.0613 112.189 86.4394 111.92 86.856 111.741C87.2534 111.516 87.6699 111.414 88.0609 111.266C88.4775 111.151 88.8684 111.074 89.2594 111.029C90.0349 110.946 90.7591 110.984 91.3808 111.1C92.0024 111.209 92.528 111.382 92.951 111.548C93.3739 111.708 93.688 111.882 93.8995 111.99C94.111 112.112 94.2199 112.176 94.2199 112.176C94.2199 112.176 94.1046 112.119 93.8931 112.01C93.7905 111.958 93.6559 111.894 93.5021 111.83C96.0657 113.01 98.2383 115.483 99.1869 118.72L99.2061 118.714Z" fill="black"/>
<path d="M27.5409 4.62084C27.5409 4.62084 26.7013 2.69815 27.4511 1.33945C28.0472 0.269148 28.9444 2.99296 28.7714 3.0186C28.5984 3.03782 27.5345 4.62084 27.5345 4.62084H27.5409Z" fill="black"/>
<path d="M77.0889 124.219C77.0889 124.219 77.1273 124.385 77.2106 124.687C77.294 124.994 77.4221 125.437 77.6272 125.988C77.8323 126.539 78.1143 127.199 78.5117 127.917C78.9026 128.635 79.4217 129.404 80.0562 130.179C80.6907 130.955 81.4598 131.737 82.3442 132.467C83.2287 133.198 84.2285 133.896 85.3308 134.486C85.8756 134.787 86.4588 135.05 87.0548 135.268C87.6509 135.492 88.2853 135.672 88.9198 135.742C90.2144 135.902 91.5539 135.858 92.8678 135.64C94.1816 135.441 95.4634 135.044 96.6234 134.454C97.7899 133.871 98.8281 133.089 99.6869 132.192C100.559 131.275 101.321 130.346 101.969 129.391C102.616 128.442 103.141 127.481 103.545 126.564C103.949 125.642 104.237 124.764 104.449 123.975C104.647 123.181 104.763 122.476 104.821 121.892C104.878 121.309 104.904 120.841 104.904 120.527C104.904 120.213 104.904 120.04 104.904 120.04C104.904 120.04 104.91 120.207 104.923 120.527C104.942 120.841 104.942 121.309 104.91 121.899C104.833 123.078 104.577 124.783 103.795 126.673C103.411 127.622 102.898 128.603 102.263 129.59C101.635 130.57 100.866 131.563 99.9946 132.48C99.1101 133.422 98.0398 134.242 96.8285 134.858C95.6236 135.479 94.297 135.902 92.9447 136.12C91.586 136.332 90.208 136.37 88.8622 136.191C88.17 136.101 87.5355 135.915 86.9074 135.678C86.2857 135.441 85.6897 135.172 85.1321 134.858C84.0042 134.249 83.0043 133.505 82.1199 132.736C81.2355 131.967 80.4792 131.16 79.8447 130.352C78.5693 128.744 77.9092 127.148 77.5439 126.026C77.358 125.462 77.2555 125.007 77.1914 124.7C77.1273 124.392 77.0953 124.225 77.0953 124.225L77.0889 124.219Z" fill="white"/>
<path d="M67.2701 69.1337C68.2058 70.4988 69.1031 71.8831 69.9875 73.2739C70.8848 74.6582 71.7436 76.0682 72.6088 77.4718C73.4676 78.8817 74.3136 80.2981 75.1468 81.7209L76.3773 83.8679C76.7939 84.5793 77.1912 85.3035 77.5886 86.0277V86.0406C77.7296 86.4571 77.8578 86.8737 77.9859 87.2903C77.8065 86.8865 77.6335 86.4892 77.4668 86.0854V86.0982C77.0118 85.4125 76.5567 84.7203 76.1145 84.0281L74.7815 81.9452C73.9034 80.5481 73.0382 79.1445 72.1858 77.7281C71.3334 76.3117 70.4874 74.8953 69.6735 73.4661C68.8467 72.0369 68.0328 70.6013 67.2573 69.1401L67.2701 69.1337Z" fill="white"/>
<path d="M28.2518 0.416565C28.2518 0.416565 28.207 0.455041 28.1173 0.519131C28.0275 0.589629 27.9058 0.704983 27.7712 0.871617C27.5084 1.19847 27.1815 1.80734 27.2649 2.60846C27.3033 3.01223 27.4635 3.41597 27.7391 3.81973C28.0019 4.23631 28.2775 4.68496 28.5787 5.15922C29.1747 6.12057 29.8477 7.1973 30.5847 8.38296C32.046 10.7479 33.7508 13.5101 35.5773 16.4711C37.3911 19.4384 39.3202 22.6044 41.2557 25.7705C43.172 28.9493 45.0818 32.1218 46.8763 35.102C48.658 38.0886 50.318 40.8765 51.7408 43.267C53.1507 45.664 54.33 47.6636 55.1503 49.0607C55.9643 50.4643 56.4321 51.2654 56.4321 51.2654C56.4321 51.2654 55.9386 50.4835 55.067 49.112C54.2082 47.7341 52.9777 45.7729 51.5036 43.4144C50.0424 41.0495 48.3376 38.2872 46.511 35.3263C44.6973 32.3589 42.7682 29.1929 40.8327 26.0269C38.9164 22.848 37.0065 19.6756 35.212 16.6954C33.4303 13.7088 31.7704 10.9209 30.3476 8.53035C29.6426 7.33187 28.9953 6.23592 28.4185 5.26175C28.1301 4.77467 27.8673 4.31967 27.6174 3.89667C27.4956 3.69159 27.3738 3.47365 27.2969 3.26215C27.2264 3.04425 27.1751 2.83275 27.1623 2.62126C27.1046 1.78168 27.47 1.17923 27.7455 0.858786C27.8929 0.692153 28.0211 0.58322 28.1108 0.519131C28.2006 0.455041 28.2454 0.416565 28.2454 0.416565H28.2518Z" fill="white"/>
<path d="M82.1516 120.021V118.951C82.2605 117.688 82.5489 116.419 83.1385 115.272C83.4269 114.701 83.7666 114.15 84.1704 113.644C84.2729 113.509 84.3627 113.407 84.4908 113.259L84.8177 112.92L84.9907 112.74L85.1702 112.587L85.5355 112.285H85.5419L85.5547 112.272C85.9328 112.016 86.3174 111.734 86.7724 111.535H86.7532C87.157 111.318 87.5992 111.196 87.9837 111.048H87.9965L88.8041 110.882L89.2078 110.798C89.3488 110.779 89.4834 110.766 89.6244 110.76C90.1756 110.722 90.7268 110.747 91.2715 110.837C91.8099 110.927 92.3482 111.074 92.861 111.266L93.0596 111.343L93.2391 111.427L93.598 111.6L93.9569 111.773C94.1107 111.856 94.2004 111.907 94.3222 111.978L94.1171 112.362L93.771 112.183L93.4057 112.01L93.5852 111.625C93.9377 111.798 94.2837 111.984 94.617 112.189C94.7772 112.298 94.9439 112.401 95.1041 112.522C95.2579 112.644 95.4181 112.753 95.5655 112.881C95.8668 113.131 96.1552 113.394 96.4243 113.676C96.6935 113.958 96.9499 114.253 97.187 114.561C97.4242 114.868 97.6485 115.182 97.8535 115.515C97.9497 115.682 98.0586 115.849 98.142 116.022C98.2317 116.195 98.3278 116.361 98.4047 116.541C98.4816 116.72 98.5714 116.887 98.6418 117.066C98.7123 117.246 98.7893 117.425 98.8533 117.605C98.9879 117.964 99.0905 118.335 99.1866 118.707C99.0584 118.342 98.9174 117.989 98.7636 117.637C98.6931 117.457 98.6034 117.291 98.5201 117.118C98.4432 116.945 98.3406 116.778 98.2509 116.611C98.1612 116.445 98.0586 116.285 97.9625 116.118C97.8664 115.951 97.7574 115.797 97.6485 115.644C97.437 115.33 97.2062 115.028 96.9627 114.74C96.7192 114.452 96.4628 114.17 96.1872 113.913C95.918 113.65 95.6296 113.407 95.3284 113.176C95.181 113.054 95.0208 112.958 94.8734 112.843C94.7196 112.734 94.5529 112.644 94.3991 112.535C94.0787 112.337 93.7454 112.164 93.4057 112.01L93.5852 111.625L93.9505 111.792L94.3158 111.978L94.1107 112.362L93.7774 112.176L93.4121 112.01L93.0468 111.843L92.8674 111.76L92.6943 111.696C92.2072 111.516 91.7009 111.388 91.1882 111.311C90.6819 111.234 90.1628 111.209 89.6436 111.234C89.5155 111.241 89.3809 111.247 89.2591 111.266L88.8746 111.337L88.1119 111.484H88.1311C87.7081 111.632 87.3044 111.741 86.9519 111.933H86.9391L86.9327 111.939C86.5353 112.106 86.1636 112.369 85.7726 112.625L85.7919 112.612L85.4265 112.913L85.2407 113.061L85.0805 113.215L84.7408 113.541C84.6575 113.631 84.5357 113.759 84.4396 113.875C84.0358 114.343 83.6833 114.862 83.3821 115.406C82.7796 116.496 82.4079 117.707 82.222 118.957L82.1323 120.021H82.1516Z" fill="white"/>
<path d="M89.5926 108.972C88.6248 108.959 87.6443 109.087 86.6829 109.369C86.4522 109.433 86.2279 109.51 86.01 109.594C86.6701 108.19 86.8495 106.568 86.4586 105.005L86.4265 104.87L85.7344 103.018C86.9136 105.748 88.189 107.716 89.599 108.965L89.5926 108.972Z" fill="white"/>
<path d="M84.4206 131.435C82.985 130.583 81.7352 129.416 80.7739 128.013C78.6269 124.873 78.2039 121.13 79.3062 117.829C78.9217 119.918 79.0242 122.162 79.6715 124.36C80.5431 127.321 82.2672 129.769 84.427 131.435H84.4206Z" fill="white"/>
<path d="M100.757 115.214C102.667 118.239 102.987 121.886 101.911 125.097C102.423 122.847 102.372 120.38 101.667 117.976C101.18 116.317 100.417 114.81 99.4688 113.522C99.943 114.041 100.372 114.605 100.757 115.208V115.214Z" fill="white"/>
<path d="M76.8643 69.4413L77.691 74.0814V74.1134L77.7102 74.1326L80.9532 78.6574L77.9282 74.0237L77.3257 69.3836C77.1655 69.4092 77.0245 69.422 76.8707 69.4413H76.8643Z" fill="white"/>
<path d="M28.6367 0.499877C29.0853 0.60242 29.4827 0.858783 29.7647 1.22409L70.9808 55.7261C71.0321 55.7261 71.9486 56.0529 72.3652 56.149L30.4441 0.704969C30.0403 0.179432 28.6367 0.499877 28.6367 0.499877Z" fill="white"/>
<path d="M69.8848 70.1334L79.1137 85.3548L84.2921 99.2302C83.8948 98.0061 83.5038 96.6794 83.1257 95.2438C82.1003 91.3407 81.3889 87.5402 80.9851 85.1176L71.1473 70.0309L69.8848 70.127V70.1334Z" fill="white"/>
<path d="M93.0404 72.2612C96.6359 71.928 117.709 69.986 120.259 75.6195C121.778 78.9843 124.726 81.6824 128.533 82.9642C135.417 85.2843 143.062 81.9067 145.972 75.2542C146.158 74.8248 146.325 74.3954 146.466 73.9596C146.812 72.9085 147.921 72.3061 148.997 72.5817C153.125 73.6392 162.559 75.2799 168.166 70.1719C167.974 69.6656 167.667 69.0696 167.667 69.0696H167.654C167.654 69.0696 167.667 69.0696 167.673 69.0568C167.66 69.0375 167.654 69.0183 167.641 68.9991C166.641 67.1533 164.417 66.3522 162.45 67.0892C160.886 67.6724 158.764 68.2428 156.291 68.339C151.561 68.5184 147.216 65.8715 144.966 61.712C143.402 58.828 140.839 56.4695 137.525 55.2198C130.257 52.4767 122.201 56.0529 119.369 63.2887L119.324 63.4104C118.683 65.0896 117.068 66.1984 115.273 66.1791L95.0336 63.7758L3.12887 34.7174C1.91116 34.3329 0.603725 34.9674 0.155097 36.1595C0.0140993 36.5312 -0.030763 36.9221 0.0205088 37.2939C0.0397358 37.4413 0.0717816 37.5822 0.116644 37.7232C0.116644 37.7232 0.103826 37.7168 0.103826 37.7104C0.276869 38.2167 0.507592 38.6974 0.687043 39.0371C0.751133 39.1973 0.83445 39.3447 0.930585 39.4857C0.943403 39.5114 0.956219 39.5242 0.956219 39.5242C1.19976 39.8574 1.52662 40.1394 1.93038 40.3189L69.3977 70.0694L82.1644 68.9414L93.0468 72.2548L93.0404 72.2612ZM142.473 69.0119C142.249 73.7417 137.506 77.3628 131.885 77.1C127.912 76.9142 124.566 74.8376 123.022 71.9664C122.708 71.0756 122.554 70.1334 122.605 69.1593C122.829 64.4295 127.572 60.8084 133.193 61.0712C137.166 61.257 140.512 63.3335 142.063 66.2048C142.377 67.0956 142.531 68.0377 142.479 69.0055L142.473 69.0119Z" fill="black"/>
<path d="M71.3783 61.7698C71.9936 62.0005 72.3012 62.6862 72.0705 63.2951C71.8398 63.9104 71.154 64.218 70.5451 63.9872C69.9299 63.7565 69.6222 63.0707 69.853 62.4619C70.0837 61.8466 70.7695 61.539 71.3783 61.7698Z" fill="white"/>
<path d="M71.3586 61.821C71.9419 62.0389 72.2367 62.6926 72.0188 63.2758C71.8009 63.859 71.1471 64.1539 70.5639 63.936C69.9807 63.7181 69.6859 63.0643 69.9038 62.4811C70.1217 61.8979 70.7754 61.6031 71.3586 61.821Z" fill="black"/>
<path d="M71.3397 61.8723C71.8973 62.0838 72.1729 62.7054 71.9678 63.2566C71.7563 63.8142 71.1346 64.0898 70.5835 63.8847C70.0259 63.6732 69.7503 63.0515 69.9554 62.5004C70.1669 61.9428 70.7886 61.6672 71.3397 61.8723Z" fill="white"/>
<path d="M71.3908 61.9684C71.3908 61.9684 71.4036 61.9235 71.4036 61.9043C71.3844 61.8915 71.3587 61.8787 71.3395 61.8723C71.3139 61.8659 71.2947 61.8595 71.269 61.8531C71.2562 61.8723 71.2498 61.8915 71.237 61.9171C71.1024 62.1735 70.9486 62.5196 70.814 62.8785C70.6858 63.2246 70.5768 63.5771 70.5063 63.8527C70.532 63.8655 70.5576 63.8783 70.5833 63.8911C70.6089 63.9039 70.6409 63.9039 70.6666 63.9103C70.8012 63.6604 70.9486 63.3207 71.0832 62.9746C71.2177 62.6157 71.3267 62.2568 71.3972 61.9748L71.3908 61.9684Z" fill="black"/>
<path d="M120.151 70.0694C119.907 69.1273 119.798 68.1467 119.849 67.1469C119.862 66.9097 119.881 66.6726 119.907 66.4355C118.696 67.4096 117.164 67.9672 115.555 67.9544H115.414L113.453 67.7237C116.388 68.2236 118.6 68.9991 120.151 70.0694Z" fill="white"/>
<path d="M140.743 59.7317C139.57 58.5332 138.147 57.5975 136.557 57.0015C133 55.662 129.258 56.1298 126.316 57.982C128.251 57.1168 130.463 56.681 132.744 56.79C135.827 56.9374 138.615 58.0333 140.743 59.7317Z" fill="white"/>
<path d="M144.953 69.954C145.882 69.1657 147.106 68.7619 148.363 68.8645C146.94 68.0185 145.652 66.9354 144.556 65.6343C144.915 66.7495 145.088 67.9288 145.03 69.1401C145.017 69.4092 144.991 69.6848 144.959 69.954H144.953Z" fill="white"/>
<path d="M128.854 79.4393C132.244 80.5801 135.865 80.0289 138.73 78.2216C136.666 79.2534 134.256 79.7854 131.757 79.67C130.026 79.5867 128.386 79.2086 126.905 78.5869C127.521 78.9266 128.168 79.2086 128.847 79.4393H128.854Z" fill="white"/>
<path d="M166.923 69.6784C166.429 70.0565 165.66 70.5821 164.597 71.0628C163.539 71.5499 162.18 71.9921 160.572 72.2484C158.969 72.5112 157.13 72.5881 155.13 72.4663C153.137 72.3446 150.984 72.0113 148.766 71.4537C148.497 71.3832 148.19 71.3063 147.888 71.3191C147.587 71.3319 147.279 71.4088 147.004 71.537C146.728 71.6716 146.472 71.8639 146.273 72.101C146.068 72.3317 145.927 72.6394 145.831 72.915C145.722 73.197 145.613 73.4789 145.504 73.7609C145.446 73.9019 145.402 74.0558 145.331 74.1775L145.126 74.5877C144.985 74.8569 144.863 75.1389 144.703 75.408C144.536 75.6708 144.376 75.9336 144.21 76.1964C142.832 78.2665 140.832 80.0161 138.467 81.112C138.179 81.2659 137.871 81.3684 137.563 81.4902C137.256 81.6055 136.955 81.7337 136.634 81.8106C136.32 81.9003 136.006 81.9965 135.686 82.0734L134.718 82.2592C133.417 82.4515 132.084 82.4964 130.77 82.3297C130.443 82.2913 130.123 82.2208 129.796 82.1695C129.636 82.1375 129.469 82.1183 129.309 82.0798L128.828 81.9452C128.514 81.8491 128.174 81.7786 127.879 81.6632L127.412 81.4966C127.258 81.4389 127.104 81.3684 126.957 81.3043C125.739 80.798 124.611 80.0994 123.592 79.2855C122.586 78.4587 121.695 77.5038 120.971 76.4527C120.605 75.9208 120.285 75.3824 120.009 74.812C119.939 74.671 119.875 74.5236 119.798 74.3826C119.759 74.3121 119.721 74.2352 119.682 74.1647L119.548 73.9596C119.356 73.6968 119.144 73.4533 118.894 73.2482C118.413 72.8252 117.862 72.5048 117.298 72.242C116.734 71.9792 116.157 71.7741 115.574 71.5947C114.414 71.2422 113.248 71.0243 112.107 70.8513C109.825 70.518 107.653 70.4027 105.647 70.3514C103.641 70.3001 101.801 70.3385 100.173 70.3962C98.5456 70.4539 97.1292 70.5436 95.9628 70.627C93.6299 70.7936 92.3032 70.9474 92.3032 70.9474C92.3032 70.9474 93.6299 70.8128 95.9692 70.6782C98.302 70.5436 101.641 70.4091 105.647 70.5116C107.646 70.5757 109.819 70.6974 112.081 71.0371C113.209 71.2102 114.369 71.4345 115.517 71.787C116.087 71.96 116.657 72.1715 117.209 72.4279C117.76 72.6907 118.292 72.9983 118.753 73.4084C118.984 73.6071 119.189 73.8378 119.368 74.0878L119.497 74.2801C119.535 74.3441 119.567 74.4146 119.605 74.4851C119.676 74.6261 119.746 74.7672 119.817 74.9146C120.093 75.4914 120.419 76.0554 120.785 76.5873C121.515 77.664 122.413 78.6382 123.438 79.4842C124.47 80.3173 125.617 81.0287 126.854 81.5543C127.463 81.8299 128.117 82.0413 128.757 82.2144L129.238 82.3554C129.398 82.3938 129.571 82.4195 129.738 82.4515C130.071 82.5092 130.405 82.5861 130.738 82.6246C132.077 82.7912 133.436 82.7399 134.763 82.5348L135.75 82.3426C136.077 82.2656 136.391 82.1567 136.717 82.067C137.044 81.9837 137.352 81.8555 137.66 81.7337C137.967 81.6055 138.281 81.503 138.576 81.3428C140.979 80.2148 143.005 78.4267 144.395 76.3181C144.562 76.049 144.729 75.7798 144.889 75.517C145.049 75.2478 145.171 74.9594 145.312 74.6838L145.517 74.2673C145.594 74.1199 145.632 73.9788 145.69 73.8378C145.799 73.5558 145.908 73.2675 146.01 72.9855C146.113 72.6907 146.228 72.4471 146.414 72.2228C146.594 72.0049 146.824 71.8318 147.081 71.7037C147.331 71.5819 147.613 71.5114 147.888 71.4986C148.17 71.4858 148.433 71.5498 148.715 71.6203C150.952 72.1651 153.112 72.492 155.118 72.6073C157.124 72.7291 158.976 72.6201 160.584 72.3382C162.193 72.0626 163.552 71.5947 164.609 71.0948C165.673 70.6013 166.429 70.0694 166.923 69.6784C167.179 69.4925 167.346 69.3259 167.474 69.2234C167.346 69.3259 167.173 69.4925 166.917 69.672L166.923 69.6784Z" fill="white"/>
<path d="M124.099 73.5494C124.265 73.7225 124.355 73.8186 124.355 73.8186C124.355 73.8186 124.272 73.7225 124.111 73.5366C123.958 73.3508 123.733 73.0752 123.49 72.697C123.24 72.3253 122.971 71.8447 122.733 71.2679C122.496 70.691 122.31 70.0053 122.221 69.249C122.182 68.8709 122.169 68.4671 122.189 68.0634C122.246 67.6532 122.259 67.211 122.387 66.8008C122.471 66.3778 122.644 65.9548 122.81 65.5318C122.913 65.3267 123.015 65.1216 123.124 64.9101C123.233 64.705 123.374 64.5128 123.496 64.3077C124.028 63.5194 124.72 62.8016 125.521 62.1991C126.322 61.5967 127.239 61.1288 128.194 60.7827C128.437 60.7058 128.668 60.5969 128.918 60.5456L129.655 60.3533C130.155 60.27 130.649 60.1611 131.155 60.1418C131.655 60.0777 132.155 60.1034 132.642 60.1034C132.879 60.1162 133.135 60.1419 133.379 60.1547C133.622 60.1739 133.859 60.2188 134.09 60.2508C135.032 60.4046 135.93 60.661 136.737 61.0007C137.551 61.3339 138.275 61.7505 138.89 62.2055C139.506 62.6606 140.038 63.1284 140.448 63.6027C140.871 64.0641 141.172 64.5192 141.416 64.8973C141.634 65.2883 141.807 65.6023 141.89 65.8266C141.986 66.0509 142.037 66.1663 142.037 66.1663C142.037 66.1663 141.992 66.0445 141.903 65.8202C141.826 65.5895 141.672 65.269 141.46 64.8717C141.23 64.4807 140.941 64.0129 140.525 63.5322C140.127 63.0387 139.608 62.5452 138.987 62.0774C138.371 61.6031 137.641 61.1673 136.82 60.8084C136 60.4495 135.096 60.1675 134.129 60.0073C133.885 59.9752 133.642 59.9239 133.398 59.9047C133.154 59.8855 132.911 59.8599 132.655 59.8471C132.155 59.8471 131.642 59.8214 131.129 59.8791C130.616 59.8983 130.11 60.0073 129.597 60.0906L128.841 60.2829C128.585 60.3405 128.348 60.4431 128.098 60.5264C127.124 60.8917 126.181 61.3724 125.361 61.994C124.547 62.6221 123.836 63.3592 123.291 64.1795C123.163 64.391 123.022 64.5897 122.913 64.8012C122.81 65.0191 122.701 65.2306 122.599 65.4485C122.439 65.8907 122.266 66.3201 122.189 66.7687C122.067 67.211 122.06 67.6404 122.016 68.0505C122.003 68.4863 122.022 68.8837 122.067 69.2746C122.169 70.0501 122.381 70.7423 122.637 71.3191C122.894 71.8959 123.182 72.3702 123.445 72.7419C123.701 73.1136 123.938 73.3764 124.099 73.5622V73.5494Z" fill="white"/>
<path d="M87.7787 69.9412C86.8686 69.6079 85.9586 69.2746 85.0421 68.9542C84.132 68.6273 83.2155 68.3069 82.299 67.9928L82.2413 67.9736H82.1773C81.1647 68.0826 80.152 68.1979 79.1394 68.3133C78.6331 68.371 78.1268 68.4287 77.6205 68.4928L76.108 68.6786C75.0953 68.8068 70.7693 69.1913 69.9489 69.2746L67.0585 68.0249L55.7595 63.0195L44.4412 58.0461L21.8047 48.1058L10.4864 43.1452L4.82089 40.6778L1.98812 39.4408C1.75099 39.3383 1.51386 39.2422 1.28314 39.1268C1.05882 39.005 0.847328 38.8512 0.667876 38.6654C0.308973 38.2937 0.0782499 37.8066 0.0141602 37.3003C0.071841 37.813 0.302563 38.3 0.661466 38.6782C0.840917 38.864 1.046 39.0243 1.27673 39.1461C1.50745 39.2614 1.74458 39.3575 1.98172 39.4665L4.80167 40.7291L10.448 43.2478L21.747 48.2596L44.3515 58.2704L55.6569 63.2694L66.9752 68.2364L70.1348 69.6143C70.2758 69.5823 71.2371 69.4926 71.6025 69.4669L73.1278 69.3708C74.1468 69.3003 75.1594 69.217 76.1721 69.1272L77.691 68.9863C78.1973 68.9414 78.7036 68.8901 79.2099 68.8388C80.2033 68.7363 81.1967 68.6402 82.1837 68.5248C83.0809 68.826 83.9846 69.1337 84.8819 69.4221C85.8048 69.7297 86.7276 70.0245 87.6505 70.3193L89.0413 70.7551C89.5027 70.8961 89.9642 71.0435 90.432 71.1845C91.3613 71.4601 92.2906 71.7485 93.2263 72.0049C92.3291 71.6395 91.419 71.2999 90.5153 70.941C90.0667 70.7615 89.6053 70.6013 89.1566 70.4283L87.7915 69.9219L87.7787 69.9412Z" fill="white"/>
<path d="M64.1356 59.142L0.872559 35.1661L64.0138 60.1995L64.2573 60.2957L64.4817 60.1483L70.8458 56.1299L69.3974 55.6684L64.1356 59.142Z" fill="white"/>
<path d="M0.328125 36.5119C0.328125 36.5119 0.353761 37.954 0.956205 38.2167L70.7179 68.403L83.4269 66.993L88.6503 68.8388L83.4846 66.7623H83.459L83.4269 66.7559L70.8141 67.525L1.30229 37.4348C0.879297 37.249 0.539623 36.9221 0.334535 36.5119H0.328125Z" fill="white"/>
<path d="M69.9876 57.6552L66.6934 59.7445C68.8916 59.001 71.2822 59.0139 73.4741 59.7894L94.9313 67.3519C97.3795 67.1725 101.244 66.961 105.275 67.0379C106.756 67.0635 108.14 67.1277 109.422 67.2238L94.7198 65.4805L69.9876 57.6616V57.6552Z" fill="white"/>
<path d="M56.8169 51.6948C56.8169 51.6948 57.9641 52.0281 59.6753 52.528C60.5277 52.7843 61.5275 53.0919 62.5978 53.4124C63.6617 53.7457 64.8025 54.0982 65.9433 54.4506C67.0777 54.816 68.2121 55.1813 69.276 55.521C70.3398 55.8735 71.3268 56.2003 72.1792 56.4759C73.8712 57.0527 74.9992 57.4373 74.9992 57.4373C74.9992 57.4373 73.852 57.104 72.1408 56.6041C71.2884 56.3477 70.2886 56.0401 69.2183 55.7197C68.1544 55.3864 67.0136 55.0339 65.8728 54.6814C64.7384 54.3161 63.604 53.9507 62.5401 53.6111C61.4762 53.2586 60.4892 52.9317 59.6369 52.6561C57.9449 52.0793 56.8169 51.6948 56.8169 51.6948Z" fill="white"/>
<path d="M67.27 69.1337C67.6481 69.2426 68.0071 69.3772 68.3724 69.5118C68.7313 69.6592 69.0902 69.8002 69.4427 69.9604H69.385C70.9103 69.8258 72.4357 69.6848 73.961 69.5759C75.4863 69.4605 77.0181 69.3516 78.5434 69.2619C77.0245 69.4413 75.4992 69.6015 73.9738 69.7553C72.4485 69.9155 70.9231 70.0438 69.3978 70.1912H69.3722L69.3401 70.1847C68.9812 70.0309 68.6351 69.8643 68.2891 69.6977C67.943 69.5182 67.5969 69.3452 67.27 69.1401V69.1337Z" fill="white"/>
</svg>
