<svg width="192" height="183" viewBox="0 0 192 183" fill="none" xmlns="http://www.w3.org/2000/svg">
<path d="M159.81 3.5237C157.78 -0.446299 150.18 -1.46631 147.77 2.57369C144.09 7.93369 97.8997 92.0537 23.6198 144.344C18.5198 147.934 15.5498 153.894 13.7498 159.874C13.0598 162.164 12.5898 164.604 12.5998 166.964C12.5998 166.964 12.5998 166.984 12.5998 167.024C12.5998 168.044 12.6998 169.054 12.9098 170.034C13.3298 172.674 14.3097 176.414 16.5797 178.774C16.7197 177.964 16.7998 177.204 16.8198 176.484C16.8498 176.504 16.8698 176.534 16.8998 176.554C16.9298 176.584 16.9698 176.614 16.9998 176.634C21.3698 180.084 27.1498 179.184 31.6798 175.944C65.9998 151.444 137.07 80.9037 159.42 9.23366C160.31 9.77366 161.18 10.0637 161.35 9.34371C161.87 7.12371 159.79 3.52369 159.78 3.51369L159.81 3.5237Z" fill="black"/>
<path d="M93.29 29.5636C93.86 27.4236 94.88 25.4837 96.22 23.8337C99.45 19.8637 104.52 17.8636 109.61 18.3136L128.99 20.2737C129.4 20.3137 129.82 20.3436 130.23 20.3736C139.49 21.0536 146.42 18.5836 155.08 15.2436L158.05 14.1037C164.34 11.9237 172.37 11.5436 175.02 11.4236C183.09 11.0436 189.28 7.48364 190.69 4.87364C192.14 2.19364 189 0.593664 187.46 1.96366C182.19 6.65366 174.51 7.06365 172.88 7.26365C166.27 8.05365 104.44 11.5637 22.67 9.09367C22.67 9.09367 -0.550031 7.36364 0.00996876 21.2536C0.00996876 21.3036 0.00995777 21.3537 0.0299578 21.4037L1.99996 31.0237C2.06996 31.3837 2.35997 31.6637 2.72997 31.7137C8.51997 32.5437 54.77 38.7636 93.07 30.5036C93.18 30.1336 93.16 30.0737 93.29 29.5837V29.5636Z" fill="black"/>
<path d="M2.69019 30.7137C2.69019 30.7137 3.04018 30.7537 3.68018 30.8237C4.33018 30.9037 5.28017 30.9836 6.49017 31.1136C7.70017 31.2236 9.18018 31.3737 10.8702 31.5037C11.7202 31.5737 12.6202 31.6437 13.5602 31.7137C14.5102 31.7837 15.5102 31.8537 16.5502 31.9337C18.6302 32.0937 20.8902 32.2036 23.2802 32.3636C24.4702 32.4236 25.7002 32.4737 26.9602 32.5337C27.5902 32.5637 28.2202 32.5937 28.8602 32.6237C29.5002 32.6437 30.1502 32.6737 30.8002 32.7037C32.1002 32.7537 33.4302 32.8037 34.7702 32.8537C36.1102 32.8937 37.4702 32.9137 38.8402 32.9437C41.5802 33.0237 44.3602 33.0137 47.1402 33.0237C48.5302 33.0437 49.9202 33.0237 51.3102 33.0037C52.7002 32.9837 54.0802 32.9737 55.4502 32.9537C56.8202 32.9137 58.1802 32.8637 59.5202 32.8237C60.1902 32.8037 60.8602 32.7837 61.5202 32.7537C62.1802 32.7337 62.8402 32.7137 63.4902 32.6637C64.7902 32.5937 66.0702 32.5137 67.3302 32.4437C68.5802 32.3737 69.8102 32.3337 71.0002 32.2137C73.3802 32.0137 75.6402 31.8537 77.7202 31.6437C79.7902 31.4137 81.7002 31.1937 83.3802 31.0137C83.8002 30.9637 84.2102 30.9337 84.6002 30.8737C84.9902 30.8137 85.3702 30.7637 85.7302 30.7037C86.4602 30.5937 87.1202 30.4937 87.7302 30.4037C90.1402 30.0537 91.5202 29.8537 91.5202 29.8537C91.5202 29.8537 90.1502 30.0937 87.7502 30.5137C87.1502 30.6137 86.4802 30.7337 85.7602 30.8537C85.4002 30.9137 85.0202 30.9837 84.6302 31.0437C84.2402 31.1137 83.8302 31.1537 83.4102 31.2137C81.7302 31.4337 79.8302 31.6837 77.7502 31.9637C75.6702 32.1937 73.4202 32.3937 71.0302 32.6237C69.8402 32.7537 68.6102 32.8137 67.3502 32.9037C66.0902 32.9837 64.8102 33.0637 63.5102 33.1537C62.8602 33.2037 62.2002 33.2237 61.5402 33.2437C60.8802 33.2737 60.2102 33.2937 59.5402 33.3237C58.2002 33.3737 56.8402 33.4237 55.4702 33.4737C54.1002 33.4937 52.7202 33.5137 51.3302 33.5437C49.9402 33.5637 48.5502 33.6037 47.1502 33.5837C44.3602 33.5537 41.5802 33.5537 38.8302 33.4637C37.4602 33.4237 36.1002 33.4037 34.7502 33.3537C33.4102 33.2937 32.0802 33.2437 30.7702 33.1837C29.4602 33.1337 28.1802 33.0736 26.9302 32.9836C25.6802 32.9036 24.4502 32.8337 23.2502 32.7537C20.8602 32.5637 18.6002 32.4236 16.5202 32.2336C15.4802 32.1436 14.4802 32.0537 13.5302 31.9737C12.5802 31.8737 11.6802 31.7837 10.8402 31.6937C9.15018 31.5237 7.68018 31.3337 6.47018 31.2037C5.26018 31.0437 4.3102 30.9337 3.6702 30.8337C3.0202 30.7337 2.68018 30.6837 2.68018 30.6837L2.69019 30.7137Z" fill="white"/>
<path d="M6.26974 12.5637C6.26974 12.5637 6.43975 12.5037 6.77975 12.3837C7.11975 12.2737 7.61976 12.1037 8.28976 11.9237C9.62976 11.5637 11.6198 11.1237 14.1998 10.8837C15.4898 10.7637 16.9197 10.6837 18.4897 10.6737C19.2697 10.6737 20.0898 10.6937 20.9198 10.7237C21.7598 10.7337 22.6298 10.7537 23.5298 10.7737C27.1298 10.8437 31.1898 10.9237 35.6198 11.0037C40.0498 11.0637 44.8497 11.1237 49.9297 11.1937C55.0098 11.2237 60.3597 11.2637 65.8997 11.2937C71.4398 11.2937 77.1598 11.3437 82.9798 11.2937C85.8898 11.2737 88.8198 11.2637 91.7598 11.2437C94.6998 11.2137 97.6598 11.1737 100.61 11.1437C103.56 11.1237 106.52 11.0637 109.46 11.0237C110.93 11.0037 112.4 10.9837 113.86 10.9637C115.32 10.9337 116.78 10.9037 118.24 10.8737C124.05 10.7637 129.78 10.6137 135.31 10.4437C140.85 10.2637 146.2 10.0937 151.27 9.89369C156.34 9.69369 161.14 9.46369 165.56 9.20368C166.66 9.13368 167.75 9.05365 168.8 8.98365C169.33 8.94365 169.85 8.8937 170.36 8.8437C170.62 8.8237 170.88 8.79369 171.13 8.77369C171.39 8.75369 171.64 8.7437 171.9 8.7237C173.91 8.6237 175.81 8.4137 177.56 8.0337C179.31 7.6637 180.91 7.1437 182.31 6.4737C183.01 6.1437 183.65 5.7537 184.27 5.4037C184.88 5.0437 185.46 4.68368 185.99 4.32368C186.52 3.96368 187.02 3.6037 187.44 3.2237C187.65 3.0337 187.83 2.83368 188.02 2.63368C188.21 2.43368 188.42 2.26371 188.67 2.16371C188.91 2.06371 189.19 2.0637 189.41 2.1537C189.64 2.2337 189.82 2.38367 189.96 2.56367C190.22 2.91367 190.29 3.33367 190.26 3.68367C190.23 4.03367 190.1 4.32371 189.95 4.54371C189.8 4.76371 189.63 4.91369 189.49 5.02369C189.35 5.13369 189.23 5.19366 189.15 5.24366C189.23 5.20366 189.35 5.13369 189.49 5.02369C189.63 4.91369 189.79 4.7537 189.93 4.5337C190.07 4.3137 190.19 4.02367 190.22 3.68367C190.24 3.34367 190.17 2.94366 189.91 2.61366C189.78 2.45366 189.6 2.31366 189.39 2.24366C189.17 2.17366 188.94 2.17368 188.72 2.26368C188.5 2.35368 188.3 2.52369 188.12 2.71369C187.95 2.91369 187.76 3.13368 187.55 3.32368C187.12 3.72368 186.63 4.09369 186.1 4.46369C185.57 4.83369 185 5.20369 184.38 5.58369C183.76 5.94369 183.13 6.34368 182.42 6.69368C181.02 7.39367 179.4 7.95371 177.64 8.35371C175.88 8.76371 173.96 9.00369 171.94 9.14369C171.43 9.17369 170.95 9.22369 170.42 9.27369C169.9 9.32369 169.38 9.38366 168.85 9.42366C167.79 9.50366 166.71 9.59366 165.6 9.67366C161.18 9.98366 156.38 10.2537 151.31 10.5137C148.77 10.6537 146.17 10.7537 143.5 10.8837C140.84 11.0137 138.11 11.0837 135.34 11.1937C129.8 11.3737 124.08 11.5537 118.26 11.6837C116.81 11.7137 115.35 11.7537 113.88 11.7837C112.42 11.8137 110.95 11.8337 109.47 11.8637C106.53 11.9137 103.57 11.9837 100.62 12.0037C97.6598 12.0237 94.7097 12.0537 91.7697 12.0737C88.8297 12.0737 85.8898 12.0837 82.9798 12.0937C77.1598 12.1237 71.4398 12.0537 65.8898 12.0337C60.3498 11.9937 54.9898 11.8837 49.9098 11.8037C44.8298 11.6837 40.0298 11.5737 35.5998 11.4637C31.1698 11.3137 27.1098 11.1837 23.5098 11.0637C22.6098 11.0337 21.7397 11.0037 20.8997 10.9737C20.0497 10.9237 19.2498 10.8837 18.4698 10.8837C16.9198 10.8637 15.4898 10.9237 14.1998 11.0237C11.6298 11.2237 9.62975 11.6037 8.27975 11.9337C7.60975 12.1037 7.09977 12.2537 6.75977 12.3537C6.41977 12.4637 6.23975 12.5237 6.23975 12.5237L6.26974 12.5637Z" fill="white"/>
<path d="M83.44 17.5237C21.88 17.0037 15.97 14.8837 5.5 17.0437C7.73 15.9837 14.47 15.1537 18.31 14.9737C20.6 14.8637 22.25 14.9737 22.27 14.9737H22.39L22.52 14.9836C50.32 15.8236 72.75 16.1737 93.78 15.9937C92.6 18.7137 92.46 21.1537 92.29 25.4337C92.15 23.0837 90.15 20.4337 88.61 19.4437C87.21 18.5537 85.11 17.5237 83.46 17.5137L83.44 17.5237Z" fill="white"/>
<path d="M92.7798 30.4737C92.7798 30.4737 92.8198 29.5036 92.8998 28.0536C92.9798 26.6037 93.1098 24.6636 93.2998 22.7336C93.3498 22.2536 93.3998 21.7637 93.4598 21.2937C93.5198 20.8237 93.5898 20.3537 93.6598 19.9037C93.7398 19.4537 93.8298 19.0236 93.9398 18.6136C94.0498 18.2036 94.1498 17.8236 94.2598 17.4836C94.4798 16.7836 94.6998 16.2237 94.8798 15.8337C95.0598 15.4437 95.1998 15.2437 95.1998 15.2437C95.1998 15.2437 95.0698 15.4537 94.9098 15.8437C94.7498 16.2337 94.5498 16.8037 94.3698 17.5137C94.1898 18.2137 94.0198 19.0437 93.8898 19.9337C93.8298 20.3837 93.7798 20.8437 93.7398 21.3237C93.6998 21.7937 93.6598 22.2837 93.6298 22.7637C93.4998 24.6937 93.4398 26.6237 93.4098 28.0837C93.3698 29.5337 93.3698 30.5037 93.3698 30.5037H92.7798V30.4737Z" fill="white"/>
<path d="M114.16 17.4537C114.16 17.4537 114.81 17.5337 115.94 17.6637C117.07 17.8037 118.69 17.9737 120.64 18.1637C121.61 18.2537 122.67 18.3437 123.78 18.4437C124.34 18.4937 124.91 18.5337 125.5 18.5737C126.09 18.6137 126.68 18.6637 127.29 18.6937C127.9 18.7337 128.52 18.7737 129.14 18.7937C129.77 18.8237 130.4 18.8536 131.04 18.8636C131.36 18.8636 131.68 18.8837 132 18.8937C132.32 18.8937 132.64 18.8937 132.97 18.8937C133.62 18.8937 134.26 18.8836 134.91 18.8636C135.56 18.8636 136.2 18.7937 136.84 18.7537C137.15 18.7437 137.48 18.6837 137.8 18.6437C138.12 18.6037 138.44 18.5737 138.76 18.5237C140.01 18.3237 141.25 18.1037 142.43 17.8137C142.73 17.7437 143.02 17.6737 143.31 17.6037C143.6 17.5337 143.89 17.4537 144.17 17.3837C144.74 17.2437 145.29 17.0837 145.83 16.9337C146.9 16.6337 147.91 16.3237 148.84 16.0237C149.77 15.7237 150.62 15.4437 151.37 15.1837C152.12 14.9237 152.77 14.6836 153.3 14.4836C153.83 14.2836 154.25 14.1237 154.54 14.0137C154.82 13.9037 154.98 13.8437 154.98 13.8437C154.98 13.8437 154.4 14.1337 153.35 14.5837C152.83 14.8137 152.19 15.0737 151.45 15.3737C150.71 15.6737 149.88 16.0037 148.96 16.3337C148.04 16.6637 147.04 17.0137 145.96 17.3437C145.42 17.5037 144.87 17.6837 144.3 17.8337C143.73 18.0037 143.15 18.1537 142.55 18.2937C141.36 18.5937 140.12 18.8537 138.83 19.0637C138.51 19.1237 138.19 19.1537 137.87 19.1937C137.55 19.2337 137.24 19.2836 136.9 19.3036C136.25 19.3436 135.59 19.4236 134.94 19.4236C134.28 19.4436 133.63 19.4637 132.98 19.4437C132.65 19.4437 132.33 19.4437 132 19.4437C131.68 19.4337 131.35 19.4237 131.03 19.4137C130.71 19.4037 130.39 19.3937 130.07 19.3837C129.75 19.3637 129.44 19.3437 129.12 19.3237C128.49 19.2937 127.87 19.2437 127.26 19.1937C126.04 19.1037 124.86 18.9837 123.75 18.8537C122.63 18.7337 121.58 18.5937 120.61 18.4637C119.64 18.3337 118.75 18.2037 117.97 18.0737C117.19 17.9437 116.5 17.8337 115.94 17.7437C115.38 17.6537 114.94 17.5637 114.64 17.5137C114.34 17.4537 114.18 17.4236 114.18 17.4236L114.16 17.4537Z" fill="white"/>
<path d="M148.84 6.36363C145.16 11.7236 98.9701 95.8437 24.6901 148.134C19.5901 151.724 16.6201 157.684 14.8201 163.664C13.0801 169.474 12.7501 176.164 17.9801 180.354C18.0101 180.384 18.0501 180.414 18.0801 180.434C22.4501 183.884 28.2301 182.984 32.7601 179.744C67.4101 155.014 139.51 83.3437 161.13 10.9737C163.15 4.21367 151.86 1.26368 148.83 6.35368L148.84 6.36363Z" fill="black"/>
<path d="M24.8701 179.674C101.9 119.144 149.57 40.7237 158.31 10.1437C146.48 49.7537 119.84 87.0437 99.5701 111.344C73.6101 142.484 47.1501 165.854 31.0501 177.354C29.0801 178.754 26.8901 179.584 24.8701 179.674Z" fill="white"/>
<path d="M160.24 13.9137C160.24 13.9137 160.51 13.0137 161.02 11.3337C161.09 11.1237 161.15 10.9037 161.2 10.6637C161.22 10.5437 161.27 10.4237 161.28 10.2937C161.3 10.1637 161.31 10.0337 161.33 9.90367C161.37 9.37367 161.36 8.77368 161.17 8.16368C160.99 7.55368 160.67 6.94366 160.19 6.39366C159.72 5.84366 159.11 5.34366 158.39 4.95366C157.68 4.56366 156.86 4.25365 155.98 4.07365C155.1 3.88365 154.15 3.81364 153.17 3.93364C152.2 4.04364 151.2 4.35364 150.32 4.93364C149.89 5.23364 149.5 5.60367 149.17 6.03367L148.94 6.37364L148.71 6.73362C148.56 6.97362 148.41 7.21366 148.26 7.45366C145.91 11.3737 143.29 15.8237 140.3 20.5937C134.34 30.1437 127.11 41.1337 118.82 52.5137C114.67 58.2037 110.3 64.0236 105.71 69.8136C101.11 75.6036 96.3401 81.4037 91.4201 87.0737C90.1901 88.4937 88.9301 89.8837 87.6901 91.2937L85.8201 93.3937C85.1901 94.0837 84.5501 94.7737 83.9201 95.4637C82.6501 96.8337 81.4001 98.2237 80.1201 99.5837C78.8401 100.934 77.5601 102.274 76.2801 103.614C75.0201 104.964 73.7101 106.254 72.4201 107.564C71.7801 108.214 71.1301 108.864 70.4901 109.514C69.8501 110.164 69.2101 110.814 68.5601 111.434C65.9601 113.954 63.4101 116.474 60.8201 118.854C59.5301 120.044 58.2701 121.254 56.9801 122.414C55.6901 123.564 54.4101 124.704 53.1401 125.834C52.5101 126.394 51.8801 126.954 51.2501 127.514C50.6101 128.054 49.9801 128.594 49.3401 129.134C48.0801 130.204 46.8301 131.264 45.6001 132.304C44.9901 132.834 44.3601 133.334 43.7401 133.834C43.1201 134.334 42.5101 134.834 41.9001 135.324C40.6801 136.304 39.4801 137.274 38.2901 138.224C35.8701 140.064 33.5501 141.854 31.3001 143.554C29.0201 145.204 26.8301 146.784 24.7401 148.284C22.6501 149.754 20.9801 151.544 19.6701 153.404C18.3501 155.264 17.3601 157.164 16.5701 158.974C15.7801 160.784 15.2001 162.504 14.7201 164.074C14.2601 165.644 13.9701 167.084 13.8101 168.354C13.6601 169.614 13.6301 170.704 13.6701 171.584C13.7101 172.464 13.8201 173.134 13.8901 173.574C13.9801 174.014 14.0301 174.244 14.0301 174.244C14.0301 174.244 13.9801 174.014 13.8801 173.574C13.8001 173.124 13.6901 172.464 13.6401 171.584C13.5901 170.704 13.6101 169.614 13.7501 168.344C13.9001 167.074 14.1801 165.634 14.6301 164.044C15.0901 162.464 15.6501 160.734 16.4301 158.904C17.2101 157.084 18.1801 155.154 19.4901 153.274C20.1501 152.344 20.8801 151.394 21.7301 150.514C22.5701 149.634 23.5301 148.794 24.5701 148.034C26.6401 146.524 28.8201 144.934 31.0901 143.274C33.3301 141.574 35.6401 139.764 38.0401 137.914C39.2201 136.954 40.4101 135.984 41.6301 134.994C42.2401 134.504 42.8501 134.004 43.4601 133.504C44.0801 133.004 44.7001 132.504 45.3101 131.974C46.5301 130.924 47.7701 129.864 49.0301 128.784C49.6601 128.244 50.2901 127.704 50.9201 127.164C51.5401 126.604 52.1701 126.044 52.8001 125.474C54.0601 124.344 55.3301 123.204 56.6201 122.054C57.9001 120.894 59.1601 119.694 60.4501 118.494C63.0401 116.114 65.5801 113.594 68.1701 111.074C68.8201 110.444 69.4601 109.804 70.1001 109.154C70.7401 108.504 71.3801 107.854 72.0201 107.204C73.3001 105.894 74.6101 104.604 75.8701 103.254C77.1401 101.914 78.4201 100.574 79.7001 99.2237C80.9701 97.8637 82.2201 96.4837 83.4801 95.1037C84.1101 94.4137 84.7401 93.7237 85.3701 93.0337L87.2301 90.9336C88.4701 89.5236 89.7201 88.1337 90.9501 86.7137C95.8701 81.0537 100.65 75.2736 105.26 69.4936C109.86 63.7136 114.24 57.9136 118.39 52.2336C122.53 46.5436 126.45 40.9937 130.06 35.6437C133.67 30.3037 137 25.1936 140 20.4336C143.01 15.6736 145.67 11.2637 148.06 7.35368C148.21 7.10368 148.36 6.87365 148.52 6.63365L148.75 6.28367L148.99 5.93364C149.34 5.48364 149.74 5.10363 150.2 4.80363C151.11 4.20363 152.14 3.90363 153.13 3.80363C154.12 3.69363 155.09 3.77368 155.98 3.97368C156.87 4.17368 157.69 4.48366 158.41 4.89366C159.13 5.30366 159.74 5.80364 160.22 6.37364C160.69 6.93364 161.02 7.56364 161.19 8.18364C161.37 8.80364 161.38 9.40365 161.33 9.94365C161.31 10.0736 161.29 10.2137 161.28 10.3337C161.26 10.4637 161.22 10.5837 161.2 10.7037C161.15 10.9437 161.08 11.1636 161.01 11.3736C160.48 13.0536 160.2 13.9436 160.2 13.9436L160.24 13.9137Z" fill="white"/>
<path d="M140.43 26.8137C140.43 26.8137 140.05 27.4537 139.33 28.6637C138.97 29.2637 138.52 30.0137 138 30.8837C137.48 31.7637 136.87 32.7637 136.17 33.8737C134.79 36.1137 133.1 38.8137 131.12 41.8837C129.13 44.9537 126.87 48.4036 124.32 52.1136C121.77 55.8236 118.99 59.8337 115.93 63.9937C112.88 68.1537 109.63 72.5237 106.14 76.9437C105.27 78.0537 104.38 79.1537 103.49 80.2837C103.04 80.8437 102.6 81.4037 102.15 81.9637C101.7 82.5237 101.24 83.0837 100.78 83.6437C99.8601 84.7637 98.9501 85.9037 98.0101 87.0237C97.0701 88.1437 96.1201 89.2737 95.1701 90.4037C91.3301 94.9037 87.3601 99.4137 83.3001 103.844C79.2101 108.244 75.0501 112.584 70.8501 116.754C69.8101 117.804 68.7401 118.824 67.7001 119.844C66.6401 120.864 65.6001 121.884 64.5401 122.864C63.4801 123.854 62.4301 124.834 61.3801 125.814C60.3301 126.784 59.2701 127.734 58.2301 128.674C56.1501 130.574 54.0501 132.384 52.0001 134.164C50.9801 135.054 49.9401 135.904 48.9201 136.754C47.9001 137.604 46.9001 138.454 45.9001 139.264C44.8901 140.074 43.9001 140.874 42.9201 141.654C41.9401 142.444 40.9801 143.214 40.0101 143.944C39.0501 144.684 38.1001 145.404 37.1701 146.124C36.7001 146.474 36.2501 146.834 35.7801 147.174C35.3201 147.514 34.8601 147.854 34.4001 148.184C33.4901 148.854 32.6001 149.504 31.7301 150.134C30.8701 150.774 30.0001 151.384 29.1601 151.964C28.3201 152.554 27.5001 153.124 26.7001 153.674C26.3001 153.954 25.9101 154.224 25.5201 154.494L25.2301 154.694L24.9601 154.894C24.7701 155.034 24.5901 155.164 24.4001 155.304C22.9801 156.374 21.8101 157.614 20.8301 158.814C19.8501 160.024 19.0601 161.244 18.4101 162.364C17.7701 163.494 17.2601 164.544 16.8301 165.474C16.4201 166.404 16.0901 167.204 15.8401 167.864C15.5901 168.524 15.4101 169.024 15.3001 169.374C15.1801 169.714 15.1201 169.894 15.1201 169.894C15.1201 169.894 15.1701 169.714 15.2701 169.364C15.3701 169.014 15.5201 168.494 15.7301 167.824C16.1601 166.484 16.8301 164.524 18.0401 162.174C18.6501 161.004 19.4001 159.734 20.3501 158.454C21.3101 157.164 22.4601 155.864 23.9201 154.674C24.1001 154.534 24.2801 154.394 24.4601 154.254L24.7501 154.034L25.0301 153.824C25.4101 153.544 25.7901 153.254 26.1801 152.964C26.9601 152.384 27.7501 151.784 28.5701 151.174C30.2201 149.964 31.9001 148.624 33.6801 147.254C37.2201 144.494 40.9701 141.404 44.9101 138.094C45.8901 137.264 46.8701 136.404 47.8601 135.534C48.8501 134.664 49.8701 133.804 50.8701 132.894C52.8701 131.074 54.9501 129.274 56.9901 127.344C61.1301 123.564 65.2501 119.484 69.4301 115.344C73.5901 111.184 77.7101 106.844 81.7701 102.444C85.8301 98.0437 89.8001 93.5737 93.6401 89.1037C97.4601 84.6237 101.18 80.1736 104.7 75.8036C108.21 71.4236 111.56 67.1537 114.68 63.0637C115.46 62.0337 116.22 61.0237 116.98 60.0337C117.73 59.0337 118.46 58.0437 119.19 57.0737C119.92 56.1037 120.62 55.1437 121.31 54.2037C122 53.2637 122.69 52.3437 123.34 51.4337C124 50.5237 124.64 49.6337 125.27 48.7637C125.89 47.8837 126.5 47.0337 127.1 46.2037C128.3 44.5437 129.4 42.9437 130.46 41.4537C132.54 38.4537 134.36 35.8337 135.82 33.6637C137.29 31.4937 138.44 29.7836 139.23 28.6136C140.01 27.4436 140.43 26.8237 140.43 26.8237V26.8137Z" fill="white"/>
<path d="M155.31 11.2037C156.17 12.6237 155.72 14.4837 154.29 15.3437C152.86 16.2037 151.01 15.7536 150.15 14.3236C149.29 12.9036 149.74 11.0436 151.17 10.1836C152.59 9.32363 154.45 9.77365 155.31 11.2037Z" fill="white"/>
<path d="M155.19 11.2837C156.01 12.6437 155.58 14.4036 154.22 15.2336C152.86 16.0636 151.1 15.6236 150.27 14.2636C149.45 12.9036 149.88 11.1436 151.24 10.3136C152.6 9.49363 154.36 9.92366 155.19 11.2837Z" fill="black"/>
<path d="M155.07 11.3537C155.85 12.6437 155.44 14.3337 154.15 15.1137C152.86 15.8937 151.17 15.4837 150.39 14.1937C149.61 12.9037 150.02 11.2137 151.31 10.4337C152.6 9.65368 154.29 10.0637 155.07 11.3537Z" fill="white"/>
<path d="M155.01 11.6337C155.01 11.6337 155.1 11.5637 155.15 11.5237C155.12 11.4637 155.1 11.4137 155.07 11.3537C155.04 11.3037 154.99 11.2537 154.96 11.2037C154.91 11.2237 154.86 11.2537 154.8 11.2737C154.13 11.5737 153.27 12.0237 152.44 12.5237C151.64 13.0137 150.87 13.5437 150.3 13.9937C150.33 14.0537 150.35 14.1237 150.39 14.1837C150.43 14.2437 150.48 14.2937 150.52 14.3537C151.18 14.0537 152.01 13.6237 152.81 13.1337C153.64 12.6337 154.43 12.0737 155.01 11.6237V11.6337Z" fill="black"/>
<path d="M29.46 168.664C28.13 169.664 26.24 169.404 25.24 168.074C24.24 166.744 24.5 164.854 25.83 163.854C27.16 162.854 29.05 163.114 30.05 164.444C31.05 165.774 30.79 167.664 29.46 168.664Z" fill="white"/>
<path d="M29.3702 168.544C28.1002 169.494 26.3002 169.244 25.3502 167.974C24.4002 166.704 24.6502 164.904 25.9202 163.954C27.1902 163.004 28.9902 163.254 29.9402 164.524C30.8902 165.794 30.6402 167.594 29.3702 168.544Z" fill="black"/>
<path d="M29.29 168.434C28.08 169.344 26.37 169.104 25.46 167.894C24.55 166.684 24.79 164.974 26 164.064C27.21 163.154 28.92 163.394 29.83 164.604C30.74 165.814 30.5 167.524 29.29 168.434Z" fill="white"/>
<path d="M29.0099 168.414C29.0099 168.414 29.0899 168.494 29.1299 168.544C29.1799 168.514 29.2399 168.484 29.2899 168.444C29.3399 168.404 29.3798 168.354 29.4298 168.314C29.3998 168.264 29.3698 168.214 29.3398 168.164C28.9798 167.524 28.4399 166.714 27.8599 165.944C27.2899 165.194 26.6798 164.484 26.1798 163.964C26.1198 164.004 26.0498 164.034 25.9998 164.074C25.9398 164.114 25.8998 164.174 25.8398 164.224C26.1998 164.854 26.7198 165.634 27.2798 166.384C27.8598 167.154 28.4999 167.894 29.0099 168.424V168.414Z" fill="black"/>
</svg>
