<svg width="137" height="137" viewBox="0 0 137 137" fill="none" xmlns="http://www.w3.org/2000/svg">
<path d="M121.611 54.9215C121.341 54.334 120.982 53.8961 120.696 53.5878C120.237 53.0389 119.566 52.7023 118.773 52.683L115.787 52.598C115.301 52.5766 114.897 52.418 114.572 52.1535C114.27 51.3429 114.38 50.2876 115.019 49.365C115.659 48.4425 116.491 47.5683 117.285 46.8742C117.541 46.6553 117.719 46.3377 117.783 46.0023L118.639 41.3189L118.028 40.4236L73.1026 39.1692L28.1776 37.9149L27.3217 42.5983C27.2581 42.9337 27.3134 43.2559 27.4946 43.4842C28.026 44.2126 28.5282 45.1272 28.8205 46.0682C29.3996 47.9129 27.8011 50.1262 25.9448 50.0769L22.9589 49.992C21.1759 49.936 19.4314 51.5175 19.0672 53.5237L16.7923 65.8472L16.6898 66.4311L14.415 78.7546C14.366 78.9969 14.3448 79.239 14.3412 79.4747C14.3377 80.1013 14.4832 80.6649 14.7546 81.1345C14.9757 81.6417 15.3236 82.1914 15.8431 82.6407C16.2865 83.0781 16.8908 83.3406 17.5822 83.3669L20.5681 83.4518C21.0544 83.4733 21.4581 83.6318 21.7839 83.8963C22.0854 84.7069 21.9758 85.7623 21.3361 86.6848C20.6964 87.6073 19.864 88.4816 19.0709 89.1756C18.8141 89.3945 18.6364 89.7121 18.5727 90.0476L17.7169 94.7309L18.3279 95.6263L63.2529 96.8806L108.178 98.1349L109.034 93.4516C109.097 93.1161 109.042 92.7939 108.861 92.5656C108.329 91.8372 107.827 90.9226 107.535 89.9817C106.956 88.137 108.554 85.9237 110.411 85.973L113.397 86.0579C115.18 86.1139 116.924 84.5324 117.288 82.5261L119.563 70.2026L119.666 69.6187L121.94 57.2952C122.102 56.407 121.965 55.5767 121.604 54.934L121.611 54.9215ZM105.86 71.5375L105.25 70.6422L105.179 71.5174C105.195 71.2381 105.219 70.9464 105.25 70.6422L103.953 70.6077L98.1757 75.8398C97.5085 76.44 96.6221 76.415 96.1875 75.7791L93.0128 71.1793L92.4018 70.2839L91.1051 70.2494C90.2502 73.5059 88.9465 75.8971 87.9386 75.8668C87.8448 75.8613 87.7586 75.8432 87.6772 75.7942C87.339 74.7915 87.2696 73.0674 87.4791 71.0188L86.8681 70.1235L74.2358 69.7761C72.8414 73.0301 69.7447 75.3592 66.5713 75.2631C64.8821 75.2127 63.4669 74.478 62.4718 73.3C61.985 72.4286 61.6719 71.4072 61.614 70.2847L61.0031 69.3894L48.3707 69.0421C47.5157 72.2986 46.212 74.6897 45.2041 74.6594C45.1103 74.6539 45.0241 74.6359 44.9428 74.5868C44.6046 73.5842 44.5351 71.86 44.7446 69.8114L44.1337 68.9161L42.837 68.8816L37.0598 74.1137C36.3927 74.7138 35.5063 74.6889 35.0717 74.0529L31.897 69.4531L31.286 68.5578L29.9894 68.5233C29.1344 71.7799 27.8307 74.171 26.8227 74.1407C26.729 74.1351 26.6428 74.1171 26.5615 74.0681C26.1123 72.7436 26.1211 70.2001 26.6617 67.2807C27.4494 63.032 29.0705 59.6089 30.2836 59.644C30.3773 59.6495 30.4635 59.6675 30.5449 59.7166C30.8831 60.7192 30.9526 62.4434 30.743 64.492L31.354 65.3873L32.6507 65.4218L38.4278 60.1897C39.095 59.5895 39.9814 59.6145 40.416 60.2505L43.5907 64.8503L44.2017 65.7456L45.4984 65.7801C46.3533 62.5236 47.657 60.1324 48.6649 60.1627C48.7587 60.1683 48.8449 60.1863 48.9263 60.2354C49.2645 61.238 49.3339 62.9621 49.1244 65.0107L49.7354 65.9061L62.3677 66.2534C63.762 62.9994 66.8589 60.6704 70.0322 60.7664C71.7215 60.8168 73.1366 61.5515 74.1318 62.7296C74.6185 63.6009 74.9316 64.6224 74.9895 65.7448L75.6004 66.6401L88.2328 66.9875C89.0878 63.7309 90.3915 61.3398 91.3994 61.3701C91.4932 61.3757 91.5794 61.3937 91.6607 61.4427C91.9989 62.4454 92.0684 64.1695 91.8589 66.2181L92.4699 67.1135L93.7665 67.1479L99.5437 61.9158C100.211 61.3157 101.097 61.3406 101.532 61.9766L104.707 66.5764L105.318 67.4717L106.614 67.5063C107.469 64.2497 108.773 61.8586 109.781 61.8888C109.874 61.8944 109.961 61.9124 110.042 61.9615C110.491 63.286 110.482 65.8295 109.942 68.7489C109.154 72.9976 107.533 76.4207 106.32 76.3856C106.226 76.38 106.14 76.362 106.059 76.3129C105.72 75.3103 105.651 73.5862 105.86 71.5375Z" fill="black"/>
<path d="M60.5393 65.3541L73.1735 42.9839L70.7649 42.9074L62.6963 42.6962L50.0444 65.0726L60.5393 65.3541Z" fill="white"/>
<path d="M48.3657 69.0731C47.5107 72.3296 46.207 74.7207 45.1991 74.6904C45.0041 74.6918 44.8312 74.5875 44.6756 74.4087L33.8672 92.9014L44.3545 93.1953L58.2451 69.3401L48.3732 69.0606L48.3657 69.0731Z" fill="white"/>
<path d="M98.186 75.846C97.5188 76.4461 96.6324 76.4212 96.1978 75.7852L92.4019 70.2839L91.1712 70.2552L91.0509 70.4545C90.2004 73.6118 88.9365 75.891 87.9489 75.8729L77.2806 94.1104L87.7679 94.4043L99.0922 75.0333L98.186 75.846Z" fill="white"/>
<path d="M98.9078 61.0393C99.5749 60.4392 100.461 60.4641 100.896 61.1L104.27 65.9901L116.774 44.204L115.692 44.1804L106.091 43.9115L93.7901 65.6837L98.9002 61.0518L98.9078 61.0393Z" fill="white"/>
<path d="M48.0417 59.3109C48.5355 59.3199 48.8888 59.9068 49.0749 60.8857L59.3731 42.595L57.2002 42.5417L47.7357 59.3812C47.8418 59.3433 47.9404 59.3178 48.0417 59.3109Z" fill="white"/>
<path d="M44.1287 68.9471L42.832 68.9126L41.6313 70.0065L28.3817 92.7531L30.5546 92.8064L44.0646 69.6052C44.0809 69.3941 44.1048 69.1706 44.1287 68.9471Z" fill="white"/>
<path d="M45.1967 63.797L44.5482 64.9181L44.8647 64.9221C44.9659 64.5244 45.08 64.1514 45.1865 63.7909L45.1967 63.797Z" fill="white"/>
<path d="M103.945 70.6201L101.987 72.3954L89.1303 94.4445L91.3133 94.5039L105.204 70.6487L103.945 70.6201Z" fill="white"/>
<path d="M106.944 63.7632L105.314 66.6033L105.985 66.6172C106.27 65.5483 106.588 64.5845 106.944 63.7632Z" fill="white"/>
<path d="M109.153 60.9999C109.563 61.0094 109.874 61.4353 110.076 62.1349L115.562 52.5809C114.843 52.4866 114.305 52.0437 114.013 51.4253L108.194 61.5772C108.531 61.2026 108.854 60.9895 109.153 60.9999Z" fill="white"/>
<path d="M31.3552 41.8199L28.8937 46.4523C29.1334 47.8712 28.1913 49.41 26.8982 49.9214L16.2997 68.3878L14.4727 78.3137L35.1616 41.924L31.3552 41.8199Z" fill="white"/>
<path d="M74.322 69.7941L60.4315 93.6493L63.706 93.7385L64.2379 93.7534L78.1285 69.8982L74.322 69.7941Z" fill="white"/>
<path d="M80.4117 65.906L93.0635 43.5295L89.2571 43.4254L76.6053 65.8019L80.4117 65.906Z" fill="white"/>
<path d="M105.242 70.6547C105.242 70.6547 105.245 70.7415 105.252 70.9152C105.258 71.0888 105.262 71.3121 105.266 71.6037C105.283 72.1743 105.287 72.9249 105.345 73.6565C105.36 74.0224 105.403 74.3881 105.451 74.7228C105.482 74.8777 105.499 75.0575 105.538 75.1999C105.569 75.3548 105.605 75.4786 105.642 75.6024C105.685 75.7138 105.722 75.8376 105.77 75.9179C105.811 76.0107 105.86 76.091 105.896 76.1466C105.942 76.2083 105.975 76.2453 106.016 76.2698C106.046 76.2882 106.059 76.3129 106.059 76.3129C106.059 76.3129 106.039 76.3007 106.008 76.2823C105.978 76.2639 105.912 76.2581 105.856 76.1903C105.723 76.1105 105.578 75.9378 105.442 75.703C105.306 75.4682 105.198 75.165 105.112 74.8244C105.078 74.6509 105.034 74.4713 105.018 74.2915C104.991 74.1056 104.982 73.9133 104.956 73.7274C104.938 73.3429 104.931 72.9645 104.961 72.5921C104.974 72.226 105.017 71.8783 105.061 71.5989C105.102 71.3008 105.151 71.0585 105.193 70.8969C105.243 70.7229 105.257 70.6298 105.257 70.6298L105.242 70.6547Z" fill="white"/>
<path d="M86.8601 70.1359C86.8601 70.1359 86.8659 70.2414 86.8721 70.415C86.8783 70.5887 86.8774 70.843 86.892 71.1407C86.8964 71.4322 86.9088 71.7796 86.9164 72.1579C86.915 72.344 86.9313 72.5238 86.9402 72.7161C86.949 72.9083 86.9579 73.1006 86.9769 73.299C87.0402 74.0678 87.1387 74.8239 87.3646 75.3C87.4186 75.4175 87.48 75.5226 87.5388 75.609C87.572 75.646 87.6052 75.683 87.6282 75.7139C87.6689 75.7384 87.6993 75.7568 87.7298 75.7752C87.7833 75.8245 87.8417 75.8427 87.8722 75.8611C87.9027 75.8795 87.923 75.8918 87.923 75.8918C87.923 75.8918 87.9027 75.8795 87.8572 75.886C87.8192 75.8801 87.7383 75.8992 87.6697 75.8749C87.6392 75.8565 87.591 75.8444 87.5429 75.8323C87.5022 75.8078 87.4615 75.7833 87.4107 75.7526C87.309 75.6913 87.2298 75.5926 87.1481 75.4753C87.0663 75.3579 86.992 75.2282 86.9226 75.0673C86.8633 74.9127 86.7939 74.7519 86.7497 74.5723C86.7055 74.3927 86.6613 74.2131 86.6321 74.0085C86.5954 73.8165 86.5764 73.6181 86.5574 73.4197C86.537 73.0166 86.5167 72.6135 86.5445 72.2225C86.5547 71.8378 86.598 71.4901 86.6365 71.1735C86.6851 70.863 86.724 70.6145 86.7633 70.4344C86.8027 70.2542 86.8248 70.1486 86.8248 70.1486L86.8601 70.1359Z" fill="white"/>
<path d="M60.998 69.4205C60.998 69.4205 61.0263 69.4885 61.0524 69.6062C61.0785 69.7239 61.1302 69.891 61.1873 70.0954C61.2443 70.2997 61.3142 70.5288 61.384 70.7578C61.464 70.993 61.5467 71.2468 61.6471 71.4942C61.8376 71.983 62.0636 72.4591 62.2457 72.8239C62.3354 72.997 62.4124 73.1453 62.4663 73.2628C62.5176 73.3617 62.5459 73.4298 62.5459 73.4298C62.5459 73.4298 62.3221 73.2948 62.0569 72.9988C61.9242 72.8509 61.7863 72.6657 61.6356 72.4558C61.5025 72.2396 61.3743 71.9924 61.2814 71.7325C61.235 71.6025 61.1886 71.4726 61.1497 71.3302C61.1033 71.2002 61.0821 71.0515 61.0458 70.9276C60.9985 70.6612 60.9614 70.4009 60.9574 70.1776C60.9392 69.7249 60.998 69.4205 60.998 69.4205Z" fill="white"/>
<path d="M44.1289 68.9471C44.1289 68.9471 44.1421 69.0401 44.1381 69.2076C44.1443 69.3813 44.1408 69.617 44.1527 69.8961C44.1691 70.4667 44.1739 71.2173 44.2243 71.9614C44.2495 72.3334 44.2925 72.6992 44.3402 73.0338C44.3716 73.1887 44.3879 73.3685 44.4269 73.5109C44.4582 73.6658 44.5047 73.7957 44.5409 73.9196C44.5949 74.037 44.6209 74.1547 44.6797 74.2412C44.7209 74.3339 44.777 74.4018 44.823 74.4635C44.869 74.5252 44.9097 74.5498 44.9428 74.5868C44.9123 74.5684 44.8464 74.5626 44.7752 74.5197C44.7142 74.4829 44.6329 74.4338 44.5639 74.3412C44.4799 74.2736 44.4185 74.1686 44.3442 74.0388C44.2085 73.804 44.09 73.4946 44.0042 73.154C43.9185 72.8134 43.8729 72.4291 43.8375 72.0509C43.8198 71.6664 43.8097 71.2695 43.8326 70.9095C43.8454 70.5434 43.8888 70.1957 43.9299 69.8976C43.971 69.5996 44.0201 69.3573 44.0594 69.1772C44.0988 68.997 44.1235 68.9099 44.1235 68.9099L44.1289 68.9471Z" fill="white"/>
<path d="M30.5324 59.7601C30.5324 59.7601 30.5143 59.6982 30.4528 59.5932C30.4015 59.4943 30.3219 59.3273 30.1867 59.1607C30.054 59.0128 29.8401 58.8157 29.5518 58.8798C29.4709 58.8989 29.3874 58.8995 29.3295 58.9495C29.2614 58.9934 29.1906 59.0187 29.1252 59.0812C28.9815 59.1814 28.8458 59.3375 28.7101 59.4935C28.4413 59.8241 28.2035 60.2414 27.9886 60.6895C27.7636 61.1315 27.5744 61.6291 27.3777 62.1392C27.1911 62.6553 27.0249 63.1838 26.8613 63.7308C26.6978 64.2779 26.562 64.8247 26.4392 65.3963C26.3061 65.9617 26.2084 66.5145 26.1107 67.0673C26.0307 67.6138 25.9405 68.1541 25.8857 68.6818C25.7659 69.731 25.7191 70.7053 25.7523 71.524C25.7855 72.3426 25.881 73.0119 26.0507 73.4202C26.1281 73.6368 26.205 73.7851 26.274 73.8777C26.3429 73.9703 26.3863 74.0134 26.3863 74.0134C26.3863 74.0134 26.3354 73.9827 26.2664 73.8902C26.19 73.81 26.0777 73.6743 25.9826 73.4641C25.88 73.2663 25.7947 72.9939 25.7041 72.6843C25.6312 72.3684 25.5604 72.0029 25.5197 71.5876C25.4791 71.1722 25.4609 70.7195 25.4578 70.2418C25.4622 69.7517 25.4742 69.2492 25.5188 68.7153C25.5634 68.1815 25.6333 67.6289 25.7106 67.0639C25.7981 66.5049 25.9109 65.9272 26.0262 65.3681C26.1593 64.8027 26.2999 64.2248 26.4635 63.6777C26.6169 63.1246 26.8184 62.5835 27.0227 62.061C27.2371 61.5446 27.4541 61.0468 27.7043 60.586C27.9647 60.1314 28.2202 59.7078 28.5244 59.3645C28.6778 59.2021 28.8312 59.0398 29.0103 58.9269C29.0934 58.8581 29.1893 58.814 29.2778 58.7824C29.3737 58.7383 29.4471 58.7316 29.5306 58.731C29.8874 58.6913 30.0991 58.938 30.2167 59.1109C30.3445 59.2899 30.3989 59.4757 30.4427 59.5871C30.4865 59.6984 30.4971 59.7728 30.4971 59.7728L30.5324 59.7601Z" fill="white"/>
<path d="M40.0737 59.8062L39.7036 59.362C39.5812 59.2202 39.4185 59.122 39.2536 59.0735C38.911 58.9518 38.5113 59.0167 38.1709 59.2361C37.9994 59.3366 37.8535 59.4865 37.6824 59.6551L37.1917 60.1238C36.8646 60.4362 36.5273 60.7425 36.1899 61.0488C35.5255 61.6675 34.8407 62.274 34.1634 62.868C33.8261 63.1743 33.4862 63.462 33.1285 63.756L32.0834 64.6378L32.0608 64.6752L32.0202 64.6507C31.5944 64.5978 31.1639 64.5759 30.7456 64.5106C31.186 64.4703 31.6214 64.4611 32.0569 64.4519L31.9862 64.4773L32.9649 63.5214C33.2921 63.2089 33.6267 62.884 33.9538 62.5716C34.6183 61.9529 35.293 61.3403 35.9676 60.7277C36.3049 60.4214 36.6523 60.1212 36.9821 59.8274L37.5034 59.3772C37.6696 59.2396 37.8584 59.0646 38.0754 58.9576C38.4994 58.7376 38.9778 58.7033 39.3385 58.8869C39.5189 58.9787 39.6692 59.1203 39.7841 59.2746C39.8916 59.4414 39.9813 59.6145 40.0812 59.7937L40.0737 59.8062Z" fill="white"/>
<path d="M48.8467 60.0684C48.7008 59.8275 48.5346 59.5742 48.2958 59.4642C48.245 59.4335 48.1792 59.4278 48.1133 59.4221C48.093 59.4098 48.0372 59.4102 48.0297 59.4227L47.921 59.442C47.8374 59.4426 47.787 59.4801 47.7265 59.5116C47.6734 59.5306 47.608 59.593 47.5474 59.6245C47.4391 59.7121 47.3158 59.8246 47.2128 59.9494C47.0996 60.068 47.0169 60.205 46.9241 60.336C46.7512 60.6225 46.5859 60.8966 46.4334 61.1954C46.2809 61.4942 46.1385 61.7992 46.0138 62.0978C45.8816 62.4089 45.7596 62.7261 45.6451 63.0309C45.4086 63.6529 45.2027 64.2933 44.979 64.94L44.9316 65.0644L44.8379 65.0588C44.4121 65.0059 43.9891 64.9716 43.5607 64.9001C44.001 64.8599 44.4339 64.8321 44.8768 64.8104L44.7433 64.9168C44.8171 64.5875 44.891 64.2582 44.975 63.935C45.059 63.6119 45.1606 63.2824 45.2724 62.959C45.3843 62.6357 45.5063 62.3185 45.6359 61.9888C45.7756 61.6652 45.9179 61.3603 46.0854 61.0365C46.2455 60.7253 46.4435 60.4199 46.6442 60.1332C46.7547 59.9959 46.8551 59.8526 46.9935 59.7151C47.1142 59.584 47.2552 59.4652 47.409 59.3711C47.4873 59.3333 47.5527 59.2708 47.6513 59.2453C47.7397 59.2137 47.8383 59.1882 47.9042 59.194L48.0156 59.1932C48.0815 59.199 48.1093 59.1988 48.1575 59.2108C48.2362 59.2413 48.3047 59.2657 48.3684 59.3211C48.6177 59.5055 48.7512 59.7899 48.8215 60.0872L48.8467 60.0684Z" fill="white"/>
<path d="M73.528 61.89C72.7782 61.0639 71.8198 60.4687 70.7419 60.2094C70.4807 60.1367 70.2044 60.089 69.9232 60.0724C69.6394 60.0371 69.3609 60.039 69.0749 60.0534C68.7862 60.0492 68.4979 60.1132 68.2145 60.1461C67.9263 60.2102 67.6455 60.2617 67.3524 60.3568C67.0668 60.4394 66.7866 60.5592 66.5063 60.679C66.2287 60.8174 65.9483 60.9372 65.676 61.1127C65.5372 61.1819 65.4112 61.2758 65.275 61.3636C65.1491 61.4575 65.0103 61.5268 64.8869 61.6393L64.5116 61.9396L64.1491 62.2647C64.0332 62.3648 63.9126 62.4959 63.8069 62.6021C63.6937 62.7207 63.5806 62.8393 63.4775 62.9641C63.2614 63.2075 63.058 63.4757 62.8724 63.7375C62.6995 64.0241 62.5037 64.2798 62.3613 64.5847C62.1885 64.8713 62.0637 65.1699 61.9289 65.4624L61.8387 65.6119L61.7097 65.619L58.554 65.5166C57.508 65.4804 56.4443 65.4505 55.4058 65.4018L52.2625 65.2559C51.2214 65.1886 50.1653 65.1463 49.1317 65.0665C50.1976 65.0468 51.2484 65.052 52.3068 65.0447L55.4797 65.0725C56.5306 65.0777 57.5841 65.1015 58.6376 65.1252L61.7981 65.1966L61.5788 65.3531C61.7286 65.0357 61.8608 64.7246 62.0412 64.4256C62.2012 64.1143 62.4019 63.8276 62.6026 63.5409C62.8135 63.2603 63.0169 62.9921 63.2481 62.7237C63.3586 62.5865 63.4718 62.4679 63.6027 62.3429C63.726 62.2304 63.8365 62.0931 63.97 61.9868L64.3502 61.6554L64.7432 61.3487C64.8768 61.2423 65.0129 61.1545 65.1491 61.0667C65.2852 60.979 65.4289 60.8787 65.5677 60.8095C65.8502 60.6401 66.138 60.5078 66.4333 60.3631C66.7238 60.2494 67.0218 60.1233 67.3277 60.053C67.6208 59.9579 67.9294 59.9062 68.2278 59.8483C68.5213 59.8214 68.8401 59.7758 69.1212 59.7925C69.3998 59.7906 69.7088 59.8071 69.9926 59.8423C70.2764 59.8776 70.5554 59.9439 70.8269 60.0227C71.9051 60.3503 72.8538 61.0075 73.5409 61.9147L73.528 61.89Z" fill="white"/>
<path d="M91.653 61.4552C91.5474 61.1705 91.3887 60.9049 91.1849 60.714C91.0779 60.6154 90.951 60.5729 90.809 60.5553C90.7609 60.5432 90.6623 60.5687 90.5889 60.5754C90.5182 60.6007 90.4576 60.6321 90.3869 60.6574C90.3188 60.7013 90.2507 60.7452 90.1928 60.7952L90.0116 60.9578C89.8984 61.0764 89.7879 61.2137 89.695 61.3446C89.5845 61.4818 89.5045 61.6374 89.4116 61.7684C89.3215 61.9179 89.2313 62.0674 89.1614 62.2292C88.8489 62.8393 88.5898 63.4986 88.3662 64.1453C88.2543 64.4687 88.1526 64.7982 88.0509 65.1276C87.9492 65.4571 87.8578 65.7928 87.7738 66.1159L87.7242 66.29L87.5646 66.2787C86.5111 66.2549 85.4501 66.2436 84.4041 66.2073L81.256 66.0925C80.21 66.0563 79.1587 65.9828 78.1127 65.9466C77.064 65.8918 76.0229 65.8245 74.9791 65.7387C76.0349 65.7128 77.1007 65.693 78.1617 65.7043C79.2228 65.7157 80.271 65.7023 81.3245 65.726L84.4926 65.7849C85.5461 65.8087 86.5947 65.8635 87.6482 65.8873L87.4418 66.0686C87.5333 65.733 87.6248 65.3973 87.734 65.0554C87.8357 64.7259 87.9448 64.384 88.0744 64.0543C88.3233 63.3888 88.6128 62.7478 88.9682 62.1126C89.0584 61.9631 89.1561 61.8011 89.2463 61.6516C89.3467 61.5083 89.4443 61.3463 89.565 61.2152C89.6654 61.0718 89.8038 60.9344 89.9346 60.8094L90.1512 60.6342C90.2268 60.5779 90.3051 60.5401 90.3732 60.4962C90.4616 60.4646 90.55 60.433 90.6208 60.4077C90.7043 60.4071 90.7574 60.3881 90.8612 60.3998C91.0133 60.4236 91.1557 60.5095 91.2627 60.608C91.4793 60.8236 91.5876 61.1268 91.6756 61.4178L91.653 61.4552Z" fill="white"/>
<path d="M101.187 61.5137L100.816 61.0696C100.694 60.9278 100.542 60.8358 100.366 60.7811C100.024 60.6594 99.6241 60.7242 99.2837 60.9437C99.1122 61.0441 98.9663 61.194 98.7952 61.3627L98.3045 61.8313C97.9774 62.1437 97.64 62.45 97.3027 62.7563C96.6383 63.375 95.9535 63.9815 95.2762 64.5755C94.9389 64.8818 94.599 65.1695 94.2413 65.4635L93.1962 66.3454L93.1737 66.3828L93.133 66.3582C92.7072 66.3053 92.2767 66.2835 91.8584 66.2181C92.2988 66.1779 92.7342 66.1687 93.1697 66.1595L93.0989 66.1848L94.0777 65.2289C94.4048 64.9165 94.7395 64.5916 95.0666 64.2791C95.7311 63.6604 96.4057 63.0478 97.0804 62.4353C97.4177 62.129 97.7651 61.8288 98.0949 61.5349L98.6162 61.0847C98.7824 60.9471 98.9712 60.7721 99.1882 60.6652C99.6122 60.4451 100.091 60.4108 100.451 60.5944C100.632 60.6862 100.782 60.8279 100.897 60.9822C101.004 61.149 101.094 61.322 101.194 61.5013L101.187 61.5137Z" fill="white"/>
<path d="M110.011 61.8749C109.873 61.6215 109.714 61.3558 109.49 61.2208C109.379 61.1534 109.244 61.1233 109.143 61.1302C108.978 61.1499 108.875 61.2065 108.756 61.2879C108.638 61.3694 108.522 61.4695 108.419 61.5942C108.306 61.7129 108.213 61.8438 108.12 61.9747C107.927 62.249 107.764 62.5417 107.602 62.8344C107.439 63.1271 107.307 63.4381 107.167 63.7617C107.035 64.0728 106.913 64.39 106.791 64.7072C106.547 65.3417 106.333 65.9945 106.12 66.6473L106.08 66.7593L105.986 66.7537C105.561 66.7008 105.138 66.6665 104.719 66.6012C105.16 66.5609 105.593 66.5331 106.035 66.5114L105.902 66.6178C105.976 66.2885 106.057 65.9468 106.141 65.6236C106.233 65.288 106.334 64.9585 106.446 64.6352C106.548 64.3057 106.688 63.9821 106.817 63.6524C106.957 63.3289 107.107 63.0115 107.274 62.6878C107.434 62.3765 107.642 62.0772 107.851 61.778C107.961 61.6408 108.079 61.4911 108.21 61.3661C108.341 61.2412 108.482 61.1223 108.646 61.0343C108.722 60.978 108.82 60.9525 108.909 60.9209C109.005 60.8768 109.073 60.9011 109.146 60.8944C109.341 60.8931 109.474 60.9728 109.591 61.0775C109.818 61.2993 109.933 61.59 110.004 61.8873L110.011 61.8749Z" fill="white"/>
<path d="M118.02 40.436L117.226 44.9701C117.188 45.355 117.006 45.7719 116.691 46.0408C116.402 46.291 116.125 46.5658 115.858 46.8468C115.325 47.4088 114.807 48.0141 114.389 48.6621C113.97 49.3102 113.803 50.093 113.937 50.7683C113.995 51.1091 114.123 51.4246 114.3 51.6839C114.476 51.9432 114.728 52.1462 114.997 52.2746C115.262 52.4341 115.581 52.4567 115.918 52.473L116.933 52.4909C117.614 52.511 118.283 52.5064 118.967 52.5451C119.668 52.5775 120.301 52.9081 120.773 53.4136C121.244 53.919 121.53 54.6181 121.576 55.3932C121.611 55.7714 121.558 56.1812 121.492 56.5663L121.282 57.6968L120.871 59.9639L119.218 69.0263L117.537 78.0889L117.117 80.3498L116.906 81.4804L116.879 81.617L116.845 81.7661C116.82 81.8531 116.805 81.9463 116.773 82.0458C116.709 82.2447 116.644 82.4437 116.559 82.6304C116.222 83.3957 115.687 84.0756 115.04 84.5516C114.392 85.0275 113.642 85.3056 112.935 85.3042C112.247 85.2966 111.591 85.2577 110.909 85.2375C110.241 85.2421 109.551 85.098 108.927 85.3504C108.609 85.4643 108.301 85.6525 108.022 85.9087C107.75 86.1525 107.514 86.4519 107.329 86.782C106.958 87.4421 106.837 88.2184 107.006 88.881C107.185 89.5498 107.477 90.1681 107.793 90.7491C107.964 91.0395 108.133 91.3113 108.322 91.5954C108.529 91.8731 108.565 92.3195 108.461 92.6986L107.574 97.2271L108.185 98.1225L107.556 97.2335L108.35 92.6994C108.436 92.3266 108.403 91.967 108.209 91.714C108.012 91.4424 107.816 91.1708 107.644 90.8804C107.301 90.2996 106.991 89.6876 106.799 88.9941C106.597 88.2945 106.723 87.4189 107.121 86.6904C107.311 86.3293 107.569 85.9925 107.874 85.7174C108.178 85.4424 108.519 85.2229 108.873 85.0964C108.961 85.0648 109.049 85.0332 109.148 85.0077L109.429 84.9561C109.611 84.9301 109.768 84.9228 109.955 84.9339L110.971 84.9517C111.642 84.9657 112.323 84.9858 112.991 84.9812C113.632 84.9768 114.309 84.7054 114.899 84.2795C115.478 83.8475 115.965 83.2238 116.26 82.5518C116.337 82.3776 116.397 82.2096 116.446 82.0356C116.471 81.9486 116.493 81.843 116.518 81.7559L116.545 81.6193L116.572 81.4826L116.782 80.3521L117.193 78.085L118.846 69.0226L120.527 59.9601L120.947 57.6991L121.158 56.5686C121.226 56.2021 121.277 55.842 121.237 55.4948C121.202 54.7941 120.945 54.1631 120.534 53.6944C120.116 53.2382 119.552 52.9319 118.903 52.8806C118.247 52.8416 117.558 52.8339 116.895 52.8075L115.887 52.7772C115.55 52.7609 115.19 52.7137 114.888 52.5483C114.595 52.389 114.331 52.1614 114.131 51.8712C113.932 51.581 113.808 51.2344 113.747 50.875C113.624 50.1377 113.815 49.2678 114.267 48.5885C114.718 47.9092 115.249 47.3287 115.799 46.7603C116.076 46.4855 116.363 46.2168 116.663 45.9728C116.945 45.7351 117.125 45.3678 117.166 45.0016L118.053 40.473L118.02 40.436Z" fill="white"/>
<path d="M14.8291 81.3324C14.8291 81.3324 14.8751 81.3942 14.9542 81.4929C15.0435 81.5977 15.1735 81.7271 15.372 81.8808C15.5603 82.0284 15.8221 82.1693 16.1342 82.2726C16.4565 82.3821 16.8389 82.3919 17.2845 82.3888C17.7226 82.3982 18.1961 82.3949 18.6974 82.3915C19.2014 82.4066 19.7253 82.3658 20.2828 82.4302C20.8633 82.5255 21.3743 82.8508 21.6992 83.3696C21.8655 83.6228 21.9738 83.926 22.0468 84.2419C22.102 84.5641 22.1245 84.9175 22.0711 85.2591C21.9769 85.967 21.5839 86.6645 21.1569 87.1886C20.7325 87.7312 20.2824 88.2244 19.8346 88.6679C19.6056 88.8866 19.3766 89.1053 19.1449 89.3054C18.9358 89.4681 18.7931 89.7049 18.7161 89.9473C18.5955 90.4693 18.4978 91.022 18.3895 91.5005C18.1857 92.482 18.0035 93.2897 17.8806 93.8613C17.7476 94.4268 17.6737 94.756 17.6737 94.756C17.6737 94.756 17.7197 94.4269 17.7971 93.8619C17.8921 93.2905 17.9982 92.4709 18.1564 91.4958C18.2444 91.0051 18.312 90.5022 18.4296 89.8934C18.5061 89.5827 18.7117 89.2649 18.9584 89.0399C19.1798 88.8337 19.4013 88.6274 19.6127 88.4151C20.053 87.984 20.4853 87.4971 20.8743 86.9672C21.0702 86.7115 21.2634 86.4372 21.3907 86.1571C21.5357 85.8708 21.6047 85.5725 21.656 85.2806C21.6971 84.9825 21.6926 84.691 21.6426 84.406C21.5852 84.1334 21.4999 83.861 21.3491 83.6512C21.0803 83.2002 20.6201 82.9056 20.1537 82.8281C20.022 82.8166 19.8698 82.7928 19.7584 82.7936C19.6267 82.7821 19.4875 82.7831 19.3659 82.7777C19.1126 82.7608 18.8517 82.7564 18.5984 82.7395C18.1019 82.7119 17.6333 82.6842 17.2027 82.6623C16.7748 82.6591 16.3566 82.5937 16.0391 82.4532C15.7142 82.3252 15.4648 82.1408 15.2765 81.9932C15.0855 81.827 14.9706 81.6727 14.899 81.5615C14.8273 81.4503 14.7814 81.3886 14.7814 81.3886L14.8291 81.3324Z" fill="white"/>
<path d="M107.51 97.4944L107.544 97.277L107.534 97.2709L107.921 94.1912L107.161 97.2672L106.946 97.2563L107.324 94.1705L106.581 97.2402L106.359 97.2417L106.736 94.1559L105.994 97.2256L105.771 97.2272L106.149 94.1414L105.406 97.211L105.173 97.2065L105.561 94.1268L104.819 97.1965L104.586 97.1919L104.973 94.1122L104.231 97.1819L103.998 97.1773L104.393 94.0852L103.634 97.1612L103.411 97.1627L103.796 94.0645L103.046 97.1466L102.823 97.1482L103.208 94.0499L102.458 97.132L102.225 97.1275L102.621 94.0354L101.871 97.1175L101.638 97.1129L102.033 94.0208L101.283 97.1029L101.05 97.0983L101.446 94.0062L100.686 97.0822L100.463 97.0837L100.848 93.9855L100.098 97.0676L99.8754 97.0692L100.26 93.971L99.5106 97.0531L99.2953 97.0422L99.6728 93.9564L98.9231 97.0385L98.6976 97.0215L99.0853 93.9418L98.3355 97.0239L98.11 97.0069L98.4977 93.9272L97.748 97.0094L97.5225 96.9923L97.9102 93.9127L97.1503 96.9887L96.935 96.9777L97.3125 93.8919L96.5628 96.9741L96.3474 96.9631L96.7249 93.8774L95.9827 96.9471L95.7497 96.9425L96.1374 93.8628L95.3951 96.9325L95.1622 96.9279L95.5498 93.8483L94.8076 96.9179L94.5747 96.9133L94.9623 93.8337L94.2201 96.9033L93.9871 96.8988L94.3823 93.8067L93.6224 96.8826L93.3996 96.8842L93.7846 93.786L93.0348 96.8681L92.812 96.8696L93.1971 93.7714L92.4473 96.8535L92.2143 96.8489L92.6095 93.7568L91.8598 96.8389L91.6267 96.8343L92.0219 93.7422L91.2722 96.8244L91.0392 96.8197L91.4344 93.7277L90.6745 96.8037L90.4517 96.8052L90.8367 93.707L90.087 96.7891L89.8641 96.7906L90.2491 93.6924L89.4994 96.7745L89.2739 96.7574L89.6616 93.6778L88.9119 96.7599L88.6864 96.7429L89.0741 93.6632L88.3243 96.7454L88.0989 96.7283L88.4865 93.6487L87.7368 96.7308L87.5113 96.7138L87.899 93.6341L87.1391 96.7101L86.9238 96.6992L87.3013 93.6134L86.5515 96.6955L86.3363 96.6846L86.7138 93.5988L85.9715 96.6685L85.7386 96.6639L86.1262 93.5843L85.384 96.6539L85.151 96.6493L85.5386 93.5697L84.7965 96.6394L84.5634 96.6348L84.9511 93.5551L84.1987 96.6187L83.9759 96.6202L84.3534 93.5344L83.6112 96.6041L83.3884 96.6056L83.7734 93.5074L83.0236 96.5895L82.8008 96.5911L83.1858 93.4928L82.4361 96.5749L82.2031 96.5704L82.5983 93.4783L81.8485 96.5604L81.6156 96.5558L82.0108 93.4637L81.261 96.5458L81.028 96.5412L81.4232 93.4491L80.6633 96.5251L80.4405 96.5266L80.8255 93.4284L80.0758 96.5105L79.853 96.5121L80.238 93.4139L79.4882 96.496L79.2553 96.4914L79.6504 93.3993L78.9007 96.4814L78.6752 96.4643L79.0629 93.3847L78.3132 96.4668L78.0876 96.4498L78.4753 93.3701L77.7154 96.4461L77.5001 96.4352L77.8776 93.3494L77.1279 96.4316L76.9126 96.4206L77.2901 93.3348L76.5403 96.417L76.3251 96.4061L76.7025 93.3203L75.9528 96.4024L75.7273 96.3854L76.115 93.3057L75.3728 96.3754L75.1398 96.3708L75.5275 93.2912L74.7852 96.3608L74.5523 96.3562L74.9399 93.2766L74.1875 96.3401L73.9647 96.3417L74.3422 93.2559L73.6 96.3256L73.3772 96.3271L73.7622 93.2289L73.0124 96.311L72.7795 96.3064L73.1747 93.2143L72.4249 96.2964L72.1919 96.2918L72.5871 93.1997L71.8374 96.2818L71.6044 96.2772L71.9995 93.1851L71.2397 96.2611L71.0168 96.2626L71.412 93.1706L70.6521 96.2466L70.4293 96.2481L70.8143 93.1499L70.0645 96.232L69.8417 96.2335L70.2268 93.1353L69.477 96.2174L69.244 96.2128L69.6392 93.1207L68.8895 96.2028L68.6565 96.1983L69.0517 93.1061L68.3019 96.1883L68.0765 96.1712L68.4641 93.0916L67.7042 96.1676L67.489 96.1567L67.8664 93.0709L67.1167 96.153L66.9014 96.1421L67.2789 93.0563L66.5292 96.1384L66.3037 96.1214L66.6914 93.0417L65.9416 96.1239L65.7161 96.1068L66.1038 93.0271L65.3541 96.1093L65.1286 96.0922L65.5162 93.0126L64.774 96.0822L64.541 96.0777L64.9287 92.998L64.1764 96.0616L63.9535 96.0631L64.331 92.9773L63.5888 96.047L63.366 96.0485L63.7435 92.9627L63.0012 96.0324L62.7683 96.0278L63.1634 92.9357L62.4137 96.0178L62.1807 96.0132L62.5759 92.9212L61.8261 96.0033L61.5932 95.9987L61.9884 92.9066L61.2284 95.9826L61.0056 95.9841L61.3907 92.8859L60.6409 95.968L60.4181 95.9695L60.8031 92.8713L60.0534 95.9534L59.8305 95.955L60.2156 92.8568L59.4658 95.9389L59.2328 95.9342L59.628 92.8421L58.8783 95.9243L58.6453 95.9197L59.0405 92.8276L58.2907 95.9097L58.0653 95.8927L58.4529 92.813L57.6931 95.889L57.4777 95.8781L57.8552 92.7923L57.1055 95.8744L56.8902 95.8635L57.2677 92.7778L56.5179 95.8599L56.2925 95.8428L56.6801 92.7632L55.9304 95.8453L55.705 95.8282L56.0926 92.7486L55.3429 95.8307L55.1174 95.8137L55.5051 92.734L54.7527 95.7976L54.5299 95.7991L54.9074 92.7134L54.1651 95.783L53.9423 95.7846L54.3198 92.6988L53.5776 95.7684L53.3547 95.77L53.7323 92.6842L52.9901 95.7539L52.757 95.7492L53.1522 92.6572L52.4025 95.7393L52.1695 95.7347L52.5647 92.6426L51.8149 95.7247L51.582 95.7201L51.9772 92.628L51.2173 95.7041L50.9944 95.7056L51.3794 92.6073L50.6297 95.6894L50.4069 95.691L50.7919 92.5927L50.0421 95.6749L49.8092 95.6703L50.2044 92.5782L49.4546 95.6603L49.2217 95.6557L49.6168 92.5636L48.8671 95.6457L48.6341 95.6412L49.0293 92.549L48.2694 95.625L48.0541 95.6141L48.4316 92.5284L47.6818 95.6105L47.4666 95.5996L47.8441 92.5138L47.0943 95.5959L46.879 95.585L47.2565 92.4992L46.5068 95.5814L46.2813 95.5642L46.6689 92.4846L45.9192 95.5668L45.6937 95.5497L46.0814 92.47L45.3316 95.5522L45.1062 95.5351L45.4938 92.4555L44.7415 95.5191L44.5187 95.5206L44.8961 92.4348L44.1539 95.5044L43.9311 95.506L44.3086 92.4202L43.5664 95.4899L43.3334 95.4853L43.7211 92.4057L42.9788 95.4753L42.7459 95.4707L43.1335 92.3911L42.3913 95.4607L42.1583 95.4561L42.5535 92.3641L41.8038 95.4462L41.5708 95.4416L41.966 92.3495L41.2061 95.4255L40.9833 95.427L41.3683 92.3288L40.6185 95.4109L40.3957 95.4124L40.7807 92.3142L40.031 95.3963L39.798 95.3917L40.1931 92.2996L39.4435 95.3818L39.2104 95.3771L39.6056 92.2851L38.8559 95.3672L38.6229 95.3626L39.0181 92.2705L38.2582 95.3465L38.0354 95.348L38.4204 92.2498L37.6706 95.3319L37.4553 95.321L37.8328 92.2352L37.0831 95.3173L36.8576 95.3003L37.2453 92.2207L36.4955 95.3028L36.2701 95.2857L36.6578 92.2061L35.908 95.2882L35.6826 95.2711L36.0702 92.1915L35.3205 95.2736L35.095 95.2566L35.4827 92.1769L34.7228 95.2529L34.5075 95.242L34.885 92.1563L34.1427 95.2259L33.9199 95.2274L34.2974 92.1417L33.5552 95.2113L33.3222 95.2067L33.7099 92.1271L32.9677 95.1968L32.7347 95.1921L33.1223 92.1125L32.3801 95.1822L32.1471 95.1776L32.5423 92.0855L31.7824 95.1615L31.5596 95.163L31.9446 92.0648L31.1948 95.1469L30.9721 95.1485L31.357 92.0502L30.6073 95.1323L30.3845 95.1339L30.7695 92.0357L30.0198 95.1178L29.7868 95.1132L30.182 92.0211L29.4322 95.1032L29.1993 95.0986L29.5944 92.0065L28.8447 95.0886L28.6117 95.0841L29.0069 91.992L28.247 95.068L28.0242 95.0695L28.4092 91.9713L27.6595 95.0534L27.4441 95.0424L27.8217 91.9567L27.0719 95.0388L26.8464 95.0217L27.2341 91.9421L26.4844 95.0243L26.2589 95.0071L26.6465 91.9275L25.8968 95.0096L25.6713 94.9926L26.059 91.9129L25.2991 94.989L25.0838 94.978L25.4613 91.8923L24.7115 94.9744L24.4963 94.9635L24.8737 91.8777L24.124 94.9598L23.9087 94.9489L24.2862 91.8631L23.544 94.9328L23.311 94.9282L23.6987 91.8486L22.9565 94.9182L22.7235 94.9136L23.1112 91.834L22.3689 94.9036L22.1359 94.8991L22.5236 91.8194L21.7712 94.883L21.5484 94.8845L21.9334 91.7863L21.1837 94.8684L20.9608 94.8699L21.3459 91.7717L20.5961 94.8538L20.3631 94.8492L20.7583 91.7571L20.0086 94.8392L19.7756 94.8346L20.1707 91.7425L19.421 94.8246L19.188 94.8201L19.5832 91.728L18.8233 94.804L18.6005 94.8055L18.9855 91.7073L18.2358 94.7894L18.0965 94.7904L18.0183 95.2189L107.466 97.7056L107.51 97.4944Z" fill="white"/>
<path d="M117.939 40.9143L117.973 40.6969L28.5335 38.1978L28.4478 38.6388L28.5871 38.6379L28.2021 41.7362L28.9518 38.654L29.1848 38.6586L28.7896 41.7507L29.5394 38.6686L29.7723 38.6732L29.3771 41.7653L30.1269 38.6832L30.3598 38.6878L29.9647 41.7799L30.7246 38.7039L30.9474 38.7023L30.5624 41.8005L31.3121 38.7184L31.5349 38.7169L31.1499 41.8151L31.8997 38.733L32.1326 38.7376L31.7375 41.8297L32.4872 38.7476L32.7202 38.7522L32.325 41.8443L33.0747 38.7621L33.3002 38.7792L32.9125 41.8588L33.6623 38.7767L33.8878 38.7938L33.5001 41.8734L34.26 38.7974L34.4753 38.8084L34.0978 41.8941L34.8475 38.812L35.0628 38.8229L34.6854 41.9087L35.435 38.8265L35.6606 38.8436L35.2729 41.9233L36.0226 38.8411L36.2481 38.8582L35.8604 41.9378L36.6027 38.8682L36.8356 38.8727L36.448 41.9524L37.2004 38.8889L37.4232 38.8873L37.0457 41.9731L37.7879 38.9034L38.0107 38.9019L37.6332 41.9877L38.3754 38.918L38.6084 38.9226L38.2132 42.0147L38.963 38.9326L39.1959 38.9371L38.8008 42.0292L39.5505 38.9471L39.7835 38.9517L39.3883 42.0438L40.138 38.9617L40.3711 38.9663L39.9759 42.0584L40.7358 38.9824L40.9586 38.9809L40.5736 42.0791L41.3233 38.997L41.5461 38.9955L41.1611 42.0937L41.9108 39.0115L42.1439 39.0161L41.7487 42.1083L42.4984 39.0261L42.7314 39.0307L42.3362 42.1228L43.086 39.0407L43.3114 39.0577L42.9237 42.1374L43.6837 39.0614L43.8989 39.0723L43.5215 42.1581L44.2712 39.076L44.4865 39.0869L44.109 42.1727L44.8587 39.0905L45.074 39.1014L44.6965 42.1872L45.4463 39.1051L45.6717 39.1222L45.2841 42.2018L46.0338 39.1197L46.2593 39.1367L45.8716 42.2164L46.6138 39.1467L46.8469 39.1513L46.4592 42.2309L47.2115 39.1674L47.4344 39.1659L47.0569 42.2517L47.7991 39.182L48.0219 39.1805L47.6444 42.2662L48.3866 39.1965L48.6196 39.2012L48.232 42.2808L48.9742 39.2111L49.2072 39.2157L48.812 42.3078L49.5617 39.2257L49.7947 39.2303L49.3995 42.3224L50.1594 39.2464L50.3822 39.2449L49.9972 42.3431L50.747 39.261L50.9698 39.2594L50.5848 42.3576L51.3345 39.2755L51.5573 39.274L51.1723 42.3722L51.9221 39.2901L52.155 39.2947L51.7598 42.3868L52.5096 39.3047L52.7426 39.3093L52.3474 42.4014L53.0971 39.3192L53.3301 39.3239L52.935 42.416L53.6948 39.3399L53.9102 39.3509L53.5327 42.4366L54.2824 39.3545L54.4977 39.3654L54.1202 42.4512L54.8699 39.3691L55.0954 39.3862L54.7077 42.4658L55.4575 39.3837L55.6829 39.4007L55.2953 42.4804L56.045 39.3982L56.2705 39.4153L55.8828 42.4949L56.6427 39.4189L56.858 39.4298L56.4704 42.5095L57.2228 39.446L57.4455 39.4444L57.0681 42.5302L57.8103 39.4605L58.0331 39.459L57.6556 42.5448L58.3978 39.4751L58.6308 39.4797L58.2431 42.5593L58.9854 39.4897L59.2183 39.4942L58.8231 42.5863L59.5729 39.5042L59.8059 39.5088L59.4107 42.601L60.1706 39.5249L60.3935 39.5234L60.0085 42.6216L60.7581 39.5395L60.981 39.538L60.596 42.6362L61.3457 39.5541L61.5787 39.5587L61.1835 42.6508L61.9333 39.5687L62.1662 39.5732L61.7711 42.6654L62.5208 39.5832L62.7538 39.5878L62.3586 42.6799L63.1083 39.5978L63.3413 39.6024L62.9461 42.6945L63.706 39.6185L63.9213 39.6294L63.5438 42.7152L64.2936 39.6331L64.5089 39.644L64.1314 42.7297L64.8811 39.6476L65.1066 39.6647L64.7189 42.7443L65.4687 39.6622L65.6941 39.6792L65.3064 42.7589L66.0562 39.6768L66.2817 39.6938L65.894 42.7735L66.6539 39.6975L66.8692 39.7084L66.4918 42.7942L67.2339 39.7245L67.4568 39.723L67.0793 42.8088L67.8214 39.7391L68.0443 39.7376L67.6668 42.8233L68.4091 39.7537L68.642 39.7582L68.2543 42.8379L68.9966 39.7682L69.2296 39.7728L68.8419 42.8524L69.5841 39.7828L69.8171 39.7874L69.4219 42.8795L70.1818 39.8035L70.4046 39.8019L70.0196 42.9002L70.7694 39.8181L70.9922 39.8165L70.6072 42.9147L71.3569 39.8326L71.5899 39.8372L71.1947 42.9293L71.9444 39.8472L72.1774 39.8518L71.7822 42.9439L72.532 39.8618L72.765 39.8664L72.3698 42.9585L73.1297 39.8825L73.3525 39.881L72.9675 42.9792L73.7172 39.897L73.9401 39.8955L73.5551 42.9937L74.3048 39.9116L74.5201 39.9225L74.1426 43.0083L74.8923 39.9262L75.1178 39.9433L74.7301 43.0229L75.4799 39.9408L75.7053 39.9578L75.3177 43.0375L76.0674 39.9553L76.2929 39.9724L75.9052 43.052L76.6651 39.976L76.8804 39.9869L76.5029 43.0727L77.2527 39.9906L77.4679 40.0015L77.0904 43.0873L77.8327 40.0176L78.0656 40.0222L77.678 43.1019L78.4202 40.0322L78.6532 40.0368L78.2655 43.1164L79.0077 40.0468L79.2408 40.0514L78.8531 43.131L79.6055 40.0675L79.8283 40.0659L79.4433 43.1642L80.193 40.082L80.4158 40.0805L80.0308 43.1787L80.7805 40.0966L81.0034 40.0951L80.6184 43.1933L81.3681 40.1112L81.6011 40.1158L81.2059 43.2079L81.9557 40.1258L82.1886 40.1303L81.7934 43.2224L82.5432 40.1403L82.7762 40.1449L82.381 43.237L83.1409 40.161L83.3637 40.1595L82.9787 43.2577L83.7284 40.1756L83.9512 40.1741L83.5662 43.2723L84.316 40.1902L84.5414 40.2072L84.1538 43.2868L84.9035 40.2047L85.129 40.2218L84.7413 43.3014L85.491 40.2193L85.7166 40.2364L85.3289 43.316L86.0786 40.2339L86.3041 40.2509L85.9164 43.3306L86.6763 40.2546L86.8916 40.2655L86.5141 43.3513L87.2638 40.2691L87.4792 40.2801L87.1017 43.3659L87.8439 40.2962L88.0769 40.3008L87.6892 43.3804L88.4314 40.3108L88.6644 40.3153L88.2767 43.395L89.019 40.3253L89.2519 40.3299L88.8643 43.4095L89.6167 40.346L89.8395 40.3445L89.462 43.4302L90.2042 40.3606L90.427 40.359L90.042 43.4573L90.7918 40.3751L91.0247 40.3798L90.6295 43.4718L91.3793 40.3897L91.6123 40.3943L91.2171 43.4864L91.9668 40.4043L92.1999 40.4089L91.8047 43.501L92.5544 40.4189L92.7874 40.4235L92.3922 43.5156L93.1521 40.4396L93.3749 40.4381L92.9899 43.5363L93.7396 40.4541L93.9624 40.4526L93.5774 43.5508L94.3272 40.4687L94.5602 40.4733L94.165 43.5654L94.9147 40.4833L95.1402 40.5004L94.7525 43.58L95.5023 40.4979L95.7277 40.5149L95.34 43.5946L96.1 40.5186L96.3153 40.5295L95.9378 43.6152L96.6875 40.5331L96.9028 40.544L96.5253 43.6298L97.275 40.5477L97.4903 40.5586L97.1128 43.6444L97.8626 40.5623L98.088 40.5793L97.7004 43.659L98.4426 40.5893L98.6756 40.5939L98.288 43.6736L99.0301 40.6038L99.2632 40.6085L98.8755 43.6881L99.6278 40.6246L99.8507 40.623L99.4732 43.7088L100.215 40.6391L100.438 40.6376L100.053 43.7358L100.803 40.6537L101.036 40.6583L100.641 43.7504L101.391 40.6683L101.623 40.6729L101.228 43.765L101.978 40.6829L102.211 40.6874L101.816 43.7795L102.576 40.7036L102.799 40.702L102.414 43.8003L103.163 40.7181L103.386 40.7166L103.001 43.8148L103.751 40.7327L103.974 40.7311L103.589 43.8294L104.338 40.7473L104.571 40.7518L104.176 43.8439L104.926 40.7618L105.151 40.7789L104.764 43.8585L105.513 40.7764L105.739 40.7935L105.351 43.8731L106.111 40.7971L106.326 40.808L105.949 43.8938L106.699 40.8116L106.914 40.8226L106.537 43.9084L107.286 40.8263L107.512 40.8433L107.124 43.9229L107.874 40.8408L108.099 40.8579L107.712 43.9375L108.454 40.8678L108.687 40.8724L108.299 43.9521L109.052 40.8886L109.274 40.887L108.887 43.9666L109.639 40.9031L109.862 40.9016L109.484 43.9873L110.227 40.9177L110.449 40.9161L110.072 44.0019L110.814 40.9322L111.047 40.9369L110.652 44.0289L111.402 40.9468L111.635 40.9514L111.24 44.0435L111.989 40.9614L112.222 40.966L111.827 44.0581L112.587 40.9821L112.81 40.9806L112.425 44.0788L113.174 40.9967L113.397 40.9951L113.012 44.0934L113.762 41.0113L113.995 41.0159L113.6 44.1079L114.35 41.0258L114.583 41.0304L114.187 44.1225L114.937 41.0404L115.17 41.045L114.775 44.1371L115.525 41.055L115.75 41.072L115.362 44.1516L116.122 41.0757L116.338 41.0866L115.96 44.1723L116.71 41.0902L116.925 41.1011L116.548 44.1869L117.297 41.1048L117.523 41.1218L117.135 44.2015L117.885 41.1194L117.895 41.1255L117.939 40.9143Z" fill="white"/>
</svg>
