<svg width="70" height="15" viewBox="0 0 70 15" fill="none" xmlns="http://www.w3.org/2000/svg">
<path d="M51.1374 6.11142C40.6998 4.31202 41.3863 0.427179 38.6768 0.0215324C37.3455 -0.17609 36.2014 1.18647 35.0624 1.18127C33.8767 1.18127 32.6961 -0.186491 31.318 0.0215324C28.6085 0.427179 29.2897 4.30682 18.8574 6.11142C7.74889 8.03044 0 3.89598 0 3.89598C9.06983 16.0862 21.1716 15.4257 28.5253 13.4755C32.769 12.3469 37.231 12.3469 41.4747 13.4755C48.8284 15.4257 60.9302 16.0862 70 3.89598C70 3.89598 62.2511 8.03044 51.1426 6.11142H51.1374Z" fill="black"/>
<path d="M30.3716 1.3425C30.096 1.70654 29.7579 2.09658 29.3575 2.49183C28.9519 2.88187 28.4734 3.26671 27.9481 3.64116C27.6777 3.81798 27.4021 4.01041 27.1056 4.17683C26.8144 4.35365 26.5024 4.50967 26.1903 4.67608C26.0343 4.75929 25.8679 4.8269 25.7067 4.90491C25.5403 4.97772 25.3791 5.06093 25.2126 5.12853C25.041 5.19614 24.8746 5.26374 24.703 5.33135C24.6146 5.36255 24.5313 5.39896 24.4429 5.43016L24.1777 5.51858C24.0009 5.58098 23.8241 5.63819 23.6473 5.7006C23.4704 5.76301 23.2884 5.80981 23.1064 5.86182C22.9244 5.91382 22.7423 5.96582 22.5603 6.01783L22.0091 6.15305C21.827 6.19466 21.6398 6.24666 21.4578 6.28307C21.2706 6.31947 21.0886 6.35587 20.9013 6.39227C20.7141 6.42868 20.5321 6.47028 20.3449 6.50148C20.1576 6.53269 19.9756 6.55869 19.7884 6.5899C19.6064 6.6211 19.4192 6.64711 19.2371 6.67832C19.0551 6.70432 18.8731 6.72511 18.6911 6.74591C18.5091 6.76671 18.3271 6.78753 18.1502 6.80833C17.9734 6.82913 17.7914 6.84992 17.6146 6.86032C17.2609 6.89153 16.9125 6.91753 16.5692 6.94353C16.226 6.96954 15.8932 6.97474 15.5655 6.99554C14.9154 7.03715 14.2966 7.02676 13.7297 7.03716C13.4437 7.04236 13.1733 7.03716 12.9132 7.03716C12.6532 7.03716 12.4088 7.02674 12.1748 7.02154C11.7119 7.02154 11.3114 6.99034 10.9786 6.97474C10.3129 6.94353 9.93848 6.92274 9.93848 6.92274C9.93848 6.92274 10.3181 6.94354 10.9786 6.98515C11.3114 7.00595 11.7119 7.03715 12.1748 7.04235C12.4036 7.04755 12.6532 7.05795 12.9132 7.06315C13.1733 7.07356 13.4437 7.07876 13.7297 7.07876C14.3018 7.07876 14.9155 7.08915 15.5707 7.05795C15.8984 7.04235 16.2312 7.03715 16.5744 7.01635C16.9177 6.99035 17.2661 6.96954 17.6198 6.94353C17.7966 6.93313 17.9786 6.91753 18.1554 6.89673C18.3375 6.87593 18.5143 6.85513 18.6963 6.83953C18.8783 6.81873 19.0603 6.80313 19.2476 6.77713C19.4296 6.75113 19.6168 6.72512 19.7988 6.69392C19.986 6.66791 20.1681 6.63671 20.3553 6.61071C20.5425 6.5795 20.7245 6.54309 20.9117 6.50669C21.099 6.47028 21.2862 6.43389 21.4734 6.40268C21.6606 6.36628 21.8426 6.31946 22.0299 6.27786L22.5863 6.14784C22.7683 6.09584 22.9504 6.04384 23.1376 5.99183C23.3196 5.93983 23.5017 5.89301 23.6837 5.83581C23.8605 5.7786 24.0425 5.71619 24.2193 5.65899L24.4846 5.57059C24.573 5.53938 24.6614 5.50298 24.7446 5.47177C24.9162 5.40417 25.093 5.33656 25.2646 5.27415C25.4363 5.20654 25.6027 5.12853 25.7691 5.05572C25.9355 4.97771 26.1019 4.91531 26.2631 4.8321C26.5804 4.67088 26.8976 4.51487 27.1941 4.33805C27.4957 4.17163 27.7765 3.9844 28.0522 3.80758C28.593 3.43314 29.0819 3.04829 29.5031 2.65305C29.9192 2.2578 30.2728 1.85736 30.5588 1.48812C30.8449 1.11368 31.0581 0.76524 31.2193 0.468806C31.3129 0.297187 31.3805 0.146372 31.4429 0.0163574C31.4013 0.0163574 31.3597 0.026758 31.3181 0.0319586C31.2609 0.0423598 31.2037 0.0527597 31.1465 0.0631609C31.1049 0.151571 31.0581 0.250381 31.0061 0.354393C30.8553 0.640425 30.6525 0.983666 30.3768 1.34771L30.3716 1.3425Z" fill="white"/>
<path d="M31.8587 0.785965C31.7287 1.0512 31.5674 1.34763 31.3594 1.64927C31.1514 1.9509 30.9174 2.26814 30.6313 2.57497C30.5637 2.65298 30.4909 2.73099 30.4129 2.809C30.3349 2.88701 30.2621 2.96501 30.1841 3.04302C30.0229 3.19384 29.8617 3.34986 29.6796 3.49028C29.3312 3.79191 28.9464 4.06234 28.5459 4.33277C28.3431 4.45759 28.1351 4.59281 27.927 4.71242C27.7138 4.82684 27.5058 4.95685 27.2822 5.06606C26.8453 5.28968 26.4033 5.4925 25.956 5.67972C25.7324 5.76814 25.514 5.86175 25.2903 5.93975C25.0667 6.01776 24.8483 6.09578 24.6298 6.17379C24.193 6.309 23.7666 6.44941 23.3609 6.55342C23.1581 6.60543 22.9605 6.66784 22.7681 6.70945C22.5756 6.75625 22.3884 6.79786 22.2116 6.83946C21.8527 6.92787 21.5199 6.98507 21.2287 7.04228C20.9374 7.10468 20.6774 7.14629 20.4694 7.1775C20.0481 7.24511 19.8037 7.28671 19.8037 7.28671C19.8037 7.28671 20.0481 7.25031 20.4694 7.1827C20.6826 7.1515 20.9374 7.1099 21.2339 7.05269C21.5251 6.99548 21.8632 6.94347 22.2168 6.85506C22.3988 6.81346 22.5808 6.77184 22.7784 6.73024C22.9709 6.68863 23.1685 6.63144 23.3713 6.57943C23.7822 6.48062 24.2034 6.34019 24.6455 6.21018C24.8639 6.13737 25.0823 6.05936 25.3059 5.98135C25.5296 5.90334 25.7532 5.80974 25.9768 5.72653C26.4241 5.54451 26.8765 5.34688 27.3134 5.12326C27.537 5.01925 27.745 4.88924 27.9634 4.77483C28.1767 4.65521 28.3847 4.52519 28.5875 4.39518C28.9932 4.12475 29.3832 3.85432 29.7368 3.55789C29.9189 3.41747 30.0801 3.25625 30.2465 3.11063C30.3297 3.03262 30.4025 2.95462 30.4805 2.87661C30.5585 2.7986 30.6314 2.72579 30.7042 2.64258C30.9954 2.33575 31.2398 2.0133 31.4531 1.71167C31.6663 1.41004 31.8327 1.1084 31.9679 0.837974C32.1031 0.567543 32.2019 0.323108 32.2695 0.115084C32.2695 0.115084 32.2695 0.109889 32.2695 0.104689C32.2279 0.0942874 32.1915 0.0838875 32.1499 0.0734863C32.0823 0.276309 31.9939 0.515529 31.8587 0.780759V0.785965Z" fill="white"/>
<path d="M32.5922 0.947256C32.535 1.14488 32.4361 1.35291 32.3425 1.58693C32.2853 1.70135 32.2281 1.81576 32.1657 1.94057C32.1345 2.00298 32.1085 2.06539 32.0721 2.1226C32.0357 2.185 31.9993 2.24221 31.9629 2.30462C31.8849 2.42943 31.8173 2.55944 31.7288 2.68425C31.6404 2.80907 31.552 2.93388 31.4584 3.0587C31.37 3.18871 31.2608 3.30832 31.1568 3.43314C31.0528 3.55795 30.9488 3.68277 30.8344 3.80758C30.7147 3.922 30.5951 4.04162 30.4755 4.15603C30.3559 4.27564 30.2363 4.39526 30.1063 4.49927C29.9763 4.60848 29.8462 4.71249 29.7162 4.8217C29.6486 4.87371 29.5862 4.93091 29.5186 4.97772C29.451 5.02452 29.3834 5.07134 29.3106 5.11814C29.1753 5.21175 29.0401 5.30535 28.9049 5.39896C28.8373 5.44577 28.7697 5.49258 28.7073 5.53418C28.6397 5.57579 28.5669 5.6122 28.4993 5.6538C28.2236 5.80982 27.9584 5.96583 27.7036 6.10105C27.4384 6.22586 27.1939 6.34028 26.9651 6.44949C26.8507 6.5015 26.7415 6.5535 26.6375 6.6055C26.5283 6.64711 26.4242 6.68351 26.3306 6.71992C26.1382 6.79273 25.9718 6.85514 25.8314 6.90715C25.5558 7.01116 25.3945 7.07355 25.3945 7.07355C25.3945 7.07355 25.5558 7.01635 25.8314 6.91234C25.9718 6.86033 26.1382 6.79792 26.3306 6.73031C26.4294 6.69391 26.5283 6.6575 26.6375 6.6159C26.7415 6.56909 26.8559 6.5171 26.9703 6.46509C27.1991 6.36108 27.454 6.24667 27.7192 6.12706C27.9792 5.99184 28.2445 5.84102 28.5201 5.685C28.5877 5.6486 28.6605 5.607 28.7281 5.57059C28.7957 5.52379 28.8633 5.48218 28.9309 5.43537C29.0661 5.34176 29.2014 5.25335 29.3418 5.15974C29.4094 5.11293 29.4822 5.06613 29.5498 5.01933C29.6174 4.97252 29.6798 4.91531 29.7474 4.8633C29.8774 4.75929 30.0127 4.65008 30.1427 4.54607C30.2779 4.44206 30.3975 4.32245 30.5223 4.20804C30.6419 4.09362 30.7667 3.974 30.8864 3.85959C31.0008 3.73998 31.1048 3.60997 31.214 3.49035C31.3232 3.36554 31.4324 3.24593 31.5208 3.11591C31.6144 2.9859 31.7081 2.86108 31.8017 2.73626C31.8901 2.61145 31.9629 2.48144 32.0409 2.35663C32.0773 2.29422 32.1189 2.23181 32.1553 2.1746C32.1917 2.1122 32.2229 2.04978 32.2541 1.98737C32.3165 1.86256 32.3789 1.74815 32.4361 1.63374C32.5349 1.39971 32.6337 1.18649 32.6962 0.98887C32.769 0.796448 32.8106 0.619617 32.8522 0.474C32.8626 0.427195 32.873 0.38559 32.8834 0.343985C32.847 0.328384 32.8054 0.307594 32.769 0.291992C32.7586 0.338798 32.7482 0.390797 32.7378 0.448004C32.6962 0.58842 32.6598 0.76004 32.587 0.952462L32.5922 0.947256Z" fill="white"/>
<path d="M33.5594 1.79485C33.4294 2.15369 33.263 2.54894 33.0445 2.97019C32.8261 3.38624 32.5505 3.81789 32.2332 4.25474C31.9056 4.68639 31.5311 5.11284 31.1099 5.52368C30.6782 5.92413 30.2154 6.32457 29.7005 6.66781C29.1961 7.02665 28.65 7.33869 28.0936 7.63512C27.8127 7.77554 27.5267 7.90555 27.2406 8.04077C26.9494 8.16038 26.6582 8.27479 26.3722 8.3892C26.0809 8.48801 25.7897 8.59203 25.4985 8.69084C25.2072 8.77405 24.916 8.85725 24.6351 8.94046C24.3491 9.02367 24.0683 9.08089 23.7927 9.1485C23.6522 9.1797 23.517 9.2161 23.3818 9.24211C23.2466 9.26811 23.1114 9.29411 22.9762 9.32011C22.7109 9.36692 22.4509 9.42412 22.2013 9.46052C21.9464 9.49693 21.7072 9.53334 21.4732 9.56454C21.0052 9.63735 20.5735 9.66855 20.1886 9.71016C19.9962 9.72576 19.8194 9.75176 19.653 9.76217C19.4866 9.77257 19.3358 9.78296 19.1953 9.78816C18.6441 9.81936 18.332 9.84017 18.332 9.84017C18.332 9.84017 18.6493 9.82457 19.2006 9.79337C19.3358 9.78817 19.4918 9.77777 19.6582 9.76737C19.8246 9.75697 20.0014 9.73615 20.1939 9.72055C20.5787 9.68415 21.0103 9.65295 21.4784 9.58014C21.7124 9.54894 21.9569 9.51253 22.2117 9.48133C22.4613 9.43972 22.7213 9.39292 22.9918 9.34092C23.127 9.31491 23.2622 9.29411 23.3974 9.2681C23.5326 9.2421 23.6731 9.2057 23.8083 9.1745C24.0839 9.10689 24.3699 9.05487 24.656 8.97166C24.942 8.88846 25.228 8.81046 25.5245 8.72725C25.8157 8.62844 26.1069 8.52963 26.3982 8.43081C26.6894 8.3164 26.9806 8.20199 27.2719 8.08757C27.5579 7.95756 27.8439 7.82755 28.13 7.68713C28.6916 7.3959 29.2429 7.08906 29.7525 6.72502C30.2726 6.38178 30.7407 5.98133 31.1775 5.58088C31.604 5.17004 31.9888 4.7384 32.3216 4.30675C32.6441 3.8699 32.9249 3.43304 33.1485 3.017C33.3669 2.59575 33.5438 2.1953 33.679 1.83126C33.809 1.46722 33.8974 1.14478 33.9598 0.874353C33.9234 0.858752 33.8818 0.837941 33.8454 0.817139C33.8454 0.82754 33.8454 0.832745 33.8454 0.837945C33.783 1.10318 33.6946 1.42562 33.5698 1.78446L33.5594 1.79485Z" fill="white"/>
<path d="M34.1571 3.2927C34.1571 3.2927 34.1571 3.2823 34.1571 3.2771C34.0791 3.49032 33.9855 3.70874 33.8815 3.93757C33.6579 4.40562 33.3926 4.90488 33.0494 5.39893C32.9714 5.52375 32.8726 5.64337 32.7842 5.76819C32.7374 5.8306 32.6906 5.89299 32.649 5.9554C32.6022 6.01781 32.5501 6.07502 32.4981 6.13743C32.3993 6.25704 32.2953 6.37664 32.1913 6.50146C32.0821 6.61587 31.9677 6.73549 31.8585 6.8499C31.7493 6.96952 31.6244 7.07873 31.5048 7.19315C31.38 7.30236 31.2656 7.42196 31.1356 7.52598C30.8756 7.734 30.6155 7.95763 30.3295 8.14485C30.1891 8.24366 30.0487 8.34767 29.9082 8.43608C29.7626 8.52449 29.6118 8.61811 29.4662 8.70652L29.2426 8.84172L29.0138 8.96134L28.5509 9.20577C28.2389 9.36179 27.9164 9.497 27.6044 9.64262C27.282 9.76743 26.9595 9.88704 26.6371 10.0119C26.3094 10.1159 25.987 10.2147 25.6646 10.3187C25.3421 10.4071 25.0197 10.4851 24.7024 10.5683C24.5464 10.6099 24.3852 10.6411 24.2292 10.6723C24.0732 10.7035 23.9172 10.7347 23.7611 10.766C23.6051 10.7972 23.4543 10.8284 23.3035 10.8544C23.1527 10.8752 23.0019 10.9012 22.851 10.922C22.5546 10.9636 22.2686 11.0104 21.9878 11.0468C21.7069 11.0728 21.4365 11.0988 21.1765 11.1248C20.6564 11.1872 20.178 11.1976 19.7515 11.2236C19.5383 11.234 19.3407 11.2496 19.1586 11.2496C18.9766 11.2496 18.805 11.2496 18.6542 11.2548C18.0457 11.26 17.6973 11.2652 17.6973 11.2652C17.6973 11.2652 18.0457 11.2652 18.6542 11.26C18.805 11.26 18.9766 11.26 19.1586 11.26C19.3407 11.26 19.5435 11.2444 19.7515 11.234C20.178 11.208 20.6564 11.2028 21.1765 11.1456C21.4365 11.1196 21.7069 11.0936 21.9878 11.0676C22.2686 11.0364 22.5546 10.9896 22.851 10.948C23.0019 10.9272 23.1475 10.9064 23.3035 10.8856C23.4543 10.8596 23.6051 10.8284 23.7611 10.7972C23.9172 10.7659 24.0732 10.7348 24.2292 10.7088C24.3852 10.6775 24.5464 10.6515 24.7024 10.6047C25.0197 10.5267 25.3421 10.4487 25.6698 10.3603C25.9922 10.2615 26.3198 10.1627 26.6475 10.0587C26.9699 9.93906 27.2923 9.81424 27.62 9.69463C27.9372 9.54901 28.2597 9.419 28.5717 9.26299L29.0346 9.01856L29.2686 8.89894L29.4922 8.76372C29.643 8.67531 29.7886 8.5817 29.9395 8.49329C30.0851 8.39968 30.2255 8.29567 30.3659 8.20206C30.6519 8.01484 30.912 7.79121 31.1824 7.58319C31.3124 7.47918 31.432 7.35956 31.5568 7.25034C31.6816 7.13593 31.8065 7.02673 31.9157 6.90712C32.0301 6.78751 32.1445 6.67309 32.2537 6.55867C32.3577 6.43386 32.4617 6.31424 32.5657 6.19462C32.6177 6.13222 32.6698 6.07502 32.7166 6.01262C32.7634 5.95021 32.8102 5.88779 32.857 5.82539C32.9454 5.70057 33.0442 5.58096 33.1274 5.45615C33.4707 4.96209 33.7463 4.45763 33.9751 3.98437C34.0427 3.84396 34.0999 3.70875 34.1571 3.57354C34.1571 3.53193 34.1519 3.49032 34.1467 3.45392C34.1467 3.39151 34.1467 3.34471 34.1467 3.29791L34.1571 3.2927Z" fill="white"/>
<path d="M34.3861 2.61151C34.3237 2.80913 34.2561 3.02236 34.1729 3.24598L34.2821 3.27719C34.3653 3.05876 34.4381 2.84554 34.5005 2.64792C34.6253 2.23707 34.7033 1.87303 34.7605 1.57139C34.7865 1.42058 34.8073 1.28535 34.8229 1.17094C34.7813 1.16574 34.7397 1.15535 34.6981 1.15015C34.6825 1.26976 34.6669 1.39977 34.6409 1.55059C34.5889 1.84702 34.5109 2.21107 34.3913 2.61672L34.3861 2.61151Z" fill="white"/>
<path d="M32.8835 8.67537C32.8835 8.67537 32.8159 8.72737 32.6911 8.83138C32.5662 8.93019 32.379 9.07582 32.1398 9.24744C31.6561 9.59588 30.9385 10.0587 30.0336 10.5372C29.5811 10.7764 29.0819 11.0156 28.5462 11.2445C28.0105 11.4785 27.4281 11.6917 26.8248 11.8893C26.2215 12.0922 25.5819 12.2586 24.9266 12.4146C24.5989 12.4822 24.2713 12.5602 23.9333 12.6122C23.7669 12.6382 23.6004 12.6746 23.4288 12.7006L22.9244 12.7734C22.5863 12.8254 22.2483 12.8515 21.9102 12.8879C21.5722 12.9087 21.2342 12.9398 20.9013 12.9554C20.2305 12.9815 19.57 12.9919 18.9303 12.9659C18.6131 12.9503 18.2958 12.9451 17.989 12.9139C17.6822 12.8878 17.3805 12.8723 17.0893 12.8358C16.7981 12.7994 16.5172 12.7734 16.2416 12.7318C15.9712 12.6902 15.7059 12.6486 15.4511 12.6122C15.1963 12.5706 14.9571 12.5186 14.7282 12.477C14.4994 12.4354 14.281 12.3938 14.0782 12.347C13.6725 12.2534 13.3189 12.1806 13.0328 12.1026C12.4556 11.9517 12.1279 11.8633 12.1279 11.8633C12.1279 11.8633 12.4556 11.9517 13.0328 12.113C13.3189 12.1962 13.6725 12.269 14.0782 12.3678C14.281 12.4198 14.4994 12.4614 14.7282 12.503C14.9571 12.5446 15.1963 12.5966 15.4511 12.6382C15.7059 12.6798 15.966 12.7214 16.2416 12.763C16.512 12.8046 16.7981 12.8306 17.0893 12.867C17.3805 12.9087 17.6822 12.9243 17.989 12.9503C18.2958 12.9815 18.6079 12.9919 18.9303 13.0023C19.57 13.0283 20.2305 13.0283 20.9013 13.0023C21.2394 12.9919 21.5722 12.9607 21.9154 12.9398C22.0871 12.9242 22.2535 12.9035 22.4251 12.8879C22.5967 12.8723 22.7632 12.8514 22.9348 12.8254L23.4392 12.7526C23.6056 12.7266 23.7773 12.6954 23.9437 12.6642C24.2817 12.607 24.6094 12.529 24.937 12.4614C25.5923 12.3054 26.232 12.1338 26.8352 11.9309C27.4437 11.7281 28.021 11.5097 28.5618 11.2757C29.1027 11.0416 29.6019 10.8024 30.0492 10.558C30.5016 10.3188 30.9073 10.0795 31.2557 9.8559C31.6042 9.63228 31.9058 9.42426 32.145 9.24744C32.3842 9.07062 32.5715 8.92499 32.6963 8.82618C32.8211 8.72217 32.8835 8.67017 32.8835 8.67017V8.67537Z" fill="white"/>
<path d="M11.7219 10.5164C11.5919 10.4904 11.4307 10.454 11.2487 10.4176C11.2019 10.4072 11.155 10.3968 11.1082 10.3864C11.0614 10.376 11.0094 10.3604 10.9626 10.3448C10.8586 10.3188 10.7546 10.2928 10.6402 10.2616C10.4166 10.1992 10.1721 10.1524 9.92252 10.064C9.67289 9.98078 9.40245 9.90798 9.13202 9.80917C8.86159 9.70516 8.58077 9.61154 8.29994 9.49713C8.02431 9.37752 7.73828 9.26311 7.46265 9.1331C7.18702 8.99788 6.90618 8.87826 6.64095 8.73264C6.50573 8.65983 6.37571 8.59223 6.2457 8.52462C6.11568 8.45181 5.99088 8.379 5.86606 8.30619C5.61644 8.16577 5.38242 8.00976 5.15879 7.86934C4.94037 7.72372 4.73232 7.58331 4.54509 7.44809C4.35787 7.31288 4.19147 7.18807 4.04586 7.06846C3.89504 6.95405 3.77541 6.84482 3.6714 6.76161C3.46857 6.58479 3.35938 6.47559 3.35938 6.47559C3.35938 6.47559 3.46857 6.5848 3.66619 6.76682C3.7702 6.85523 3.88983 6.96445 4.03545 7.08406C4.10825 7.14127 4.18627 7.20887 4.26948 7.27128C4.35269 7.33368 4.4411 7.40129 4.53471 7.4689C4.71673 7.60932 4.92475 7.74973 5.14317 7.90054C5.3668 8.04096 5.59561 8.20218 5.84524 8.3426C5.97006 8.41541 6.09489 8.48821 6.22491 8.56622C6.35492 8.63903 6.49014 8.70664 6.62016 8.77944C6.88539 8.93026 7.1662 9.05508 7.44183 9.1903C7.72266 9.32031 8.00869 9.42952 8.28432 9.54914C8.56515 9.65835 8.85121 9.75716 9.12164 9.85597C9.39207 9.94958 9.66249 10.0224 9.91732 10.1056C10.1669 10.1888 10.4166 10.2356 10.635 10.298C10.8586 10.35 11.0614 10.4124 11.2487 10.4384C11.4307 10.4696 11.5919 10.5008 11.7271 10.5269C11.9923 10.5737 12.1432 10.5997 12.1432 10.5997C12.1432 10.5997 11.9923 10.5685 11.7271 10.5113L11.7219 10.5164Z" fill="white"/>
<path d="M7.96214 7.66123C8.15977 7.72884 8.373 7.81725 8.61742 7.89006C8.73704 7.92646 8.86704 7.96807 8.99706 8.00968C9.12707 8.04608 9.26751 8.08768 9.40792 8.12928C9.54834 8.17088 9.69394 8.20729 9.84476 8.24369C9.99557 8.2801 10.1464 8.32171 10.3024 8.35292C10.4584 8.38932 10.6145 8.42052 10.7757 8.45692C10.9369 8.48812 11.0981 8.51932 11.2645 8.55053C11.431 8.58173 11.5974 8.60774 11.7638 8.63374C11.9302 8.65974 12.0966 8.68575 12.2683 8.70655C12.4347 8.72736 12.6063 8.74295 12.7727 8.76375C12.9391 8.77935 13.1107 8.78976 13.2772 8.80537C13.61 8.83657 13.9377 8.84177 14.2601 8.85738C14.5773 8.86258 14.8841 8.86257 15.1806 8.86257C15.4718 8.85216 15.7474 8.84697 16.0023 8.83657C16.2571 8.82097 16.4911 8.80017 16.694 8.78977C16.902 8.77416 17.0788 8.74815 17.2296 8.73255C17.526 8.70135 17.6925 8.68054 17.6925 8.68054C17.6925 8.68054 17.5208 8.69615 17.2296 8.72216C17.084 8.73256 16.902 8.75335 16.694 8.76375C16.4859 8.77415 16.2571 8.78976 16.0023 8.80016C15.7474 8.80536 15.4718 8.81057 15.1806 8.82097C14.8893 8.82097 14.5825 8.82097 14.2653 8.80537C13.948 8.78456 13.6204 8.77936 13.2875 8.74815C13.1211 8.73255 12.9547 8.71696 12.7831 8.70655C12.6167 8.68575 12.445 8.66495 12.2786 8.64415C12.1122 8.62855 11.9406 8.60254 11.7742 8.57654C11.6078 8.55054 11.4413 8.52974 11.2749 8.49853C11.1085 8.46733 10.9473 8.44132 10.7861 8.41012C10.6248 8.37371 10.4688 8.34251 10.3128 8.3113C10.1568 8.2801 10.006 8.23851 9.85517 8.2073C9.70435 8.1709 9.55872 8.13968 9.4183 8.09808C9.27789 8.05647 9.14268 8.02007 9.00747 7.98366C8.87745 7.94206 8.74745 7.90567 8.62784 7.86406C8.38341 7.79125 8.16497 7.70804 7.96735 7.64563C7.77493 7.57282 7.60332 7.51561 7.46291 7.4636C7.18728 7.35439 7.03125 7.29199 7.03125 7.29199C7.03125 7.29199 7.18728 7.3596 7.46291 7.47402C7.60332 7.52602 7.76972 7.59363 7.96214 7.66644V7.66123Z" fill="white"/>
<path d="M26.3409 11.0833C26.4813 11.0469 26.6321 11.0104 26.7881 10.9584C26.8661 10.9324 26.9494 10.9116 27.0326 10.8856C27.1158 10.8596 27.199 10.8284 27.2822 10.7972C27.4538 10.74 27.6254 10.6724 27.8022 10.6048C27.9791 10.5372 28.1559 10.4592 28.3327 10.3812C28.5043 10.298 28.6812 10.2148 28.8528 10.1368C29.0192 10.0483 29.1856 9.96512 29.3468 9.88192C29.5028 9.79351 29.6536 9.7051 29.7993 9.62189C29.9449 9.53868 30.0749 9.45028 30.1945 9.37747C30.3141 9.29946 30.4285 9.23185 30.5221 9.16425C30.6158 9.09664 30.7042 9.03942 30.7718 8.99262C30.907 8.89381 30.9902 8.8418 30.9902 8.8418C30.9902 8.8418 30.907 8.89381 30.7666 8.98222C30.6938 9.02903 30.6106 9.08103 30.5118 9.14344C30.413 9.20585 30.2985 9.27345 30.1737 9.34626C30.0489 9.41906 29.9189 9.50228 29.7733 9.58029C29.6276 9.6583 29.4768 9.74151 29.3208 9.82992C29.1596 9.91313 28.9932 9.99633 28.8267 10.0795C28.6551 10.1575 28.4835 10.2408 28.3067 10.324C28.1299 10.3968 27.9531 10.48 27.7815 10.5476C27.6046 10.6152 27.433 10.688 27.2614 10.7452C27.095 10.8076 26.9286 10.8648 26.7725 10.9116C26.6165 10.9636 26.4657 11.0053 26.3253 11.0469C26.0496 11.1197 25.8156 11.1769 25.6492 11.2133C25.4828 11.2497 25.3892 11.2601 25.3892 11.2601C25.3892 11.2601 25.4828 11.2497 25.6492 11.2237C25.8156 11.1977 26.0496 11.1509 26.3305 11.0833H26.3409Z" fill="white"/>
<path d="M17.1149 10.48C16.7821 10.4488 16.4492 10.4072 16.1372 10.3604C15.8251 10.3136 15.5339 10.2668 15.2895 10.22C15.0398 10.1732 14.837 10.1316 14.6914 10.1003C14.5458 10.0691 14.4678 10.0483 14.4678 10.0483C14.4678 10.0483 14.7902 10.1471 15.2843 10.2564C15.4091 10.2824 15.5443 10.3084 15.6847 10.3396C15.8251 10.3656 15.976 10.3968 16.132 10.4176C16.444 10.4696 16.7769 10.5112 17.1149 10.5476C17.2813 10.5684 17.4529 10.5736 17.6141 10.5892C17.7805 10.6048 17.9418 10.61 18.0978 10.6204C18.2538 10.6308 18.4098 10.6308 18.5554 10.636C18.701 10.636 18.8363 10.636 18.9611 10.636C19.2159 10.636 19.4239 10.6256 19.5696 10.6152C19.7152 10.61 19.7984 10.6048 19.7984 10.6048C19.7984 10.6048 19.7152 10.6048 19.5643 10.6048C19.4915 10.6048 19.4031 10.6048 19.2991 10.6048C19.1951 10.6048 19.0807 10.5996 18.9559 10.5996C18.8311 10.5996 18.6907 10.5996 18.5503 10.5892C18.4046 10.5788 18.2538 10.5788 18.0978 10.5684C17.9418 10.558 17.7805 10.5476 17.6141 10.5372C17.4477 10.5216 17.2813 10.5112 17.1149 10.4904V10.48Z" fill="white"/>
<path d="M39.561 1.48285C39.8471 1.85729 40.1955 2.25255 40.6168 2.64779C41.038 3.04304 41.5269 3.42788 42.0677 3.80233C42.3434 3.97915 42.6242 4.17156 42.9258 4.33278C43.2223 4.5096 43.5395 4.66562 43.8567 4.82684C44.0127 4.91005 44.1844 4.97766 44.3456 5.05046C44.512 5.12327 44.6784 5.20127 44.85 5.26888C45.0216 5.33649 45.1933 5.4041 45.3701 5.46651C45.4585 5.49771 45.5417 5.53411 45.6301 5.56532L45.8953 5.65374C46.0722 5.71094 46.2542 5.77335 46.431 5.83055C46.613 5.88776 46.7951 5.93456 46.9771 5.98657C47.1591 6.03857 47.3411 6.09059 47.5283 6.14259L48.0848 6.27261C48.272 6.31421 48.4541 6.36101 48.6413 6.39742C48.8285 6.43382 49.0157 6.47022 49.2029 6.50142C49.3901 6.53782 49.5722 6.57423 49.7594 6.60544C49.9466 6.63144 50.1338 6.66265 50.3159 6.68865C50.5031 6.71465 50.6851 6.74066 50.8671 6.77186C51.0491 6.79786 51.2364 6.81346 51.4184 6.83426C51.6004 6.85507 51.7824 6.87586 51.9593 6.89146C52.1413 6.91227 52.3181 6.92788 52.4949 6.93828C52.8485 6.96429 53.2022 6.99028 53.5402 7.01108C53.8835 7.03188 54.2163 7.03709 54.5439 7.0527C55.194 7.0839 55.8129 7.07349 56.385 7.07349C56.671 7.07349 56.9414 7.06829 57.2014 7.05789C57.4615 7.04748 57.7059 7.0423 57.9399 7.0371C58.4028 7.02669 58.8032 6.99548 59.1361 6.97988C59.8017 6.93828 60.1762 6.91748 60.1762 6.91748C60.1762 6.91748 59.7965 6.93828 59.1361 6.96948C58.8032 6.98509 58.4028 7.01109 57.9399 7.01629C57.7111 7.01629 57.4615 7.02669 57.2014 7.03189C56.9414 7.03709 56.671 7.04229 56.385 7.03189C55.8181 7.02149 55.1992 7.03188 54.5491 6.99028C54.2215 6.97467 53.8887 6.96429 53.5454 6.93828C53.2022 6.91228 52.8537 6.88107 52.5001 6.85507C52.3233 6.84467 52.1465 6.82386 51.9645 6.80306C51.7876 6.78226 51.6056 6.76146 51.4236 6.74066C51.2416 6.71985 51.0595 6.69905 50.8775 6.67305C50.6955 6.64184 50.5135 6.61583 50.3263 6.58463C50.1442 6.55343 49.957 6.52743 49.7698 6.49623C49.5826 6.46503 49.4006 6.42343 49.2133 6.38702C49.0261 6.35062 48.8441 6.3142 48.6569 6.2778C48.4696 6.23619 48.2876 6.18939 48.1056 6.14778L47.5543 6.01258C47.3723 5.96057 47.1903 5.90856 47.0083 5.85655C46.8263 5.79934 46.6443 5.75254 46.4674 5.69533C46.2906 5.63293 46.1138 5.57572 45.937 5.51331L45.6717 5.42491C45.5833 5.3937 45.5001 5.3573 45.4117 5.3261C45.2401 5.25849 45.0685 5.19087 44.902 5.12326C44.7304 5.05566 44.5692 4.97245 44.408 4.89964C44.2468 4.82163 44.0804 4.75923 43.9243 4.67082C43.6123 4.5096 43.3003 4.35358 43.009 4.17156C42.7126 4.00514 42.437 3.81792 42.1665 3.6359C41.6361 3.26146 41.1628 2.87662 40.7572 2.48658C40.3515 2.09133 40.0135 1.70128 39.7431 1.33723C39.4674 0.973192 39.2646 0.629951 39.1138 0.343919C39.067 0.250308 39.0254 0.167104 38.989 0.0890946C38.8902 0.0630917 38.7913 0.0370862 38.6821 0.0214844C38.7393 0.151499 38.807 0.297114 38.8954 0.458332C39.0566 0.754766 39.2698 1.10842 39.5558 1.47766L39.561 1.48285Z" fill="white"/>
<path d="M38.1515 0.83795C38.2868 1.10838 38.4532 1.40481 38.6664 1.71165C38.8797 2.01328 39.1241 2.33572 39.4153 2.64256C39.4829 2.72057 39.5609 2.79858 39.6389 2.87659C39.7169 2.9546 39.7898 3.0326 39.873 3.11061C40.0394 3.26142 40.2006 3.41745 40.3826 3.55787C40.7363 3.8595 41.1263 4.12992 41.5319 4.39515C41.74 4.51997 41.9428 4.64999 42.156 4.7748C42.3744 4.88922 42.5825 5.01402 42.8061 5.12323C43.2429 5.34686 43.6954 5.54448 44.1426 5.7265C44.3663 5.81491 44.5899 5.90332 44.8135 5.98133C45.0372 6.05934 45.2608 6.13735 45.474 6.21016C45.916 6.34537 46.3373 6.4806 46.7481 6.57941C46.951 6.63142 47.1486 6.68861 47.341 6.73022C47.5334 6.77182 47.7206 6.81344 47.9027 6.85504C48.2615 6.94345 48.5943 6.99546 48.8856 7.05267C49.1768 7.10987 49.4369 7.15148 49.6501 7.18268C50.0765 7.25029 50.3157 7.28668 50.3157 7.28668C50.3157 7.28668 50.0713 7.24508 49.6501 7.17747C49.4369 7.14107 49.182 7.09946 48.8908 7.04225C48.5995 6.97985 48.2667 6.92785 47.9079 6.83944C47.731 6.79783 47.5438 6.75623 47.3514 6.70942C47.159 6.66262 46.9614 6.6054 46.7586 6.5534C46.3477 6.44938 45.9265 6.30898 45.4896 6.17376C45.2712 6.09575 45.0527 6.01774 44.8291 5.93973C44.6055 5.86172 44.3871 5.76291 44.1635 5.6797C43.7162 5.49768 43.2741 5.28966 42.8373 5.06603C42.6189 4.95682 42.4056 4.83201 42.1924 4.7124C41.9792 4.58758 41.7764 4.45756 41.5735 4.33275C41.1731 4.06232 40.7883 3.79189 40.4398 3.49026C40.263 3.34464 40.1018 3.18861 39.9354 3.043C39.8574 2.96499 39.7794 2.88699 39.7065 2.80898C39.6285 2.73097 39.5557 2.65816 39.4881 2.57495C39.2021 2.26811 38.9629 1.95088 38.76 1.64924C38.552 1.34761 38.3908 1.05117 38.2608 0.785941C38.1308 0.520711 38.0371 0.276291 37.9695 0.0786681C37.9695 0.068267 37.9695 0.0630619 37.9643 0.0578613C37.9227 0.0682625 37.8863 0.0786624 37.8447 0.0890636C37.8447 0.0994648 37.8499 0.109865 37.8551 0.120266C37.9227 0.32829 38.0215 0.572725 38.1567 0.843156L38.1515 0.83795Z" fill="white"/>
<path d="M37.4131 0.988838C37.4755 1.18646 37.5743 1.39968 37.6731 1.63371C37.7303 1.74812 37.7927 1.86773 37.8552 1.98734C37.8864 2.04975 37.9176 2.11217 37.954 2.17457C37.9904 2.23698 38.0268 2.29419 38.0684 2.3566C38.1464 2.48141 38.2192 2.61142 38.3076 2.73623C38.4012 2.86104 38.4896 2.98586 38.5884 3.11588C38.6768 3.24589 38.7913 3.36551 38.8953 3.49032C39.0045 3.61514 39.1085 3.73995 39.2229 3.85956C39.3425 3.97397 39.4673 4.09359 39.5869 4.20801C39.7065 4.32762 39.8314 4.44723 39.9666 4.54604C40.0966 4.65005 40.2318 4.75926 40.3618 4.86327C40.4294 4.91528 40.4918 4.97249 40.5594 5.0193C40.627 5.0661 40.6999 5.1129 40.7675 5.15971C40.9079 5.25332 41.0431 5.34693 41.1783 5.43534C41.2459 5.48214 41.3135 5.52375 41.3811 5.57056C41.4539 5.61216 41.5216 5.64857 41.5892 5.68497C41.8648 5.83579 42.1352 5.99181 42.3901 6.12703C42.6553 6.24664 42.9049 6.36105 43.1337 6.46506C43.2481 6.51707 43.3626 6.56906 43.4666 6.61587C43.5758 6.65747 43.6798 6.69388 43.7734 6.73028C43.9659 6.80309 44.1375 6.8603 44.2727 6.9123C44.5483 7.01112 44.7095 7.07352 44.7095 7.07352C44.7095 7.07352 44.5535 7.01633 44.2727 6.90711C44.1322 6.85511 43.9659 6.79269 43.7734 6.71989C43.6746 6.68348 43.5758 6.64708 43.4666 6.60547C43.3626 6.55867 43.2534 6.50667 43.1389 6.44946C42.9101 6.34025 42.6605 6.22583 42.4005 6.10101C42.1456 5.9658 41.8804 5.80459 41.6048 5.65377C41.5372 5.61217 41.4644 5.57576 41.3968 5.53415C41.3291 5.48735 41.2615 5.44054 41.1991 5.39893C41.0639 5.30532 40.9287 5.21172 40.7935 5.11811C40.7259 5.0713 40.6583 5.02449 40.5855 4.97768C40.5179 4.93088 40.4554 4.87368 40.3878 4.82167C40.2578 4.71246 40.1278 4.60845 39.9978 4.49924C39.8626 4.39523 39.7482 4.27561 39.6285 4.156C39.5089 4.03638 39.3893 3.92196 39.2697 3.80755C39.1553 3.68794 39.0565 3.55792 38.9473 3.43311C38.8433 3.30829 38.734 3.18868 38.6456 3.05866C38.552 2.92865 38.4636 2.80383 38.3752 2.68422C38.2868 2.55941 38.2192 2.4294 38.1412 2.30459C38.1048 2.24218 38.0684 2.17977 38.032 2.12256C37.9956 2.06016 37.9696 1.99775 37.9383 1.94054C37.8759 1.82093 37.8187 1.70132 37.7615 1.5869C37.6679 1.35288 37.5691 1.14485 37.5119 0.947224C37.4443 0.754802 37.4027 0.583182 37.3611 0.442766C37.3455 0.375158 37.3351 0.312748 37.3247 0.260742C37.2831 0.276344 37.2467 0.29715 37.2051 0.312751C37.2155 0.359557 37.2259 0.411572 37.2415 0.468779C37.2831 0.614395 37.3247 0.79121 37.3975 0.983632L37.4131 0.988838Z" fill="white"/>
<path d="M36.4456 1.83132C36.5756 2.19536 36.7524 2.59581 36.976 3.01706C37.1997 3.43831 37.4805 3.86996 37.8029 4.30681C38.1358 4.73846 38.5154 5.1701 38.9471 5.58095C39.3839 5.98139 39.852 6.38184 40.372 6.72508C40.8817 7.08392 41.4329 7.39076 41.9946 7.6872C42.2806 7.82761 42.5667 7.95242 42.8527 8.08764C43.1439 8.20205 43.4352 8.31646 43.7264 8.43088C44.0228 8.52969 44.3141 8.6285 44.6001 8.72731C44.8913 8.81052 45.1826 8.89372 45.4686 8.97173C45.7546 9.05494 46.0407 9.10695 46.3163 9.17456C46.4567 9.20576 46.5919 9.23696 46.7272 9.26816C46.8624 9.29417 46.9976 9.31498 47.1328 9.34098C47.398 9.38779 47.658 9.43979 47.9129 9.48139C48.1677 9.5178 48.4121 9.549 48.6462 9.5802C49.1142 9.65301 49.5459 9.67901 49.9307 9.72061C50.1231 9.73622 50.3 9.75703 50.4664 9.76743C50.6328 9.77783 50.7836 9.78303 50.924 9.79343C51.4753 9.82463 51.7925 9.84023 51.7925 9.84023C51.7925 9.84023 51.4753 9.81943 50.9292 9.78822C50.794 9.77782 50.638 9.77263 50.4716 9.76223C50.3051 9.75183 50.1283 9.73102 49.9359 9.71022C49.5563 9.66861 49.1194 9.63741 48.6513 9.5646C48.4173 9.5334 48.1729 9.49699 47.9233 9.46058C47.6737 9.41898 47.4136 9.36698 47.1484 9.32017C47.0132 9.29417 46.878 9.26817 46.7427 9.24217C46.6075 9.21097 46.4723 9.17976 46.3319 9.14856C46.0563 9.08095 45.7702 9.02373 45.4894 8.94053C45.2034 8.85732 44.9173 8.77412 44.6261 8.69091C44.3401 8.5921 44.0488 8.49328 43.7524 8.38926C43.4664 8.27485 43.1751 8.15525 42.8839 8.04083C42.5979 7.90562 42.3118 7.7756 42.031 7.63519C41.4745 7.33875 40.9285 7.03191 40.424 6.66787C39.9092 6.31943 39.4463 5.92419 39.0147 5.52375C38.5934 5.1129 38.2138 4.68645 37.8913 4.2548C37.5741 3.81795 37.2985 3.3863 37.08 2.97025C36.8668 2.55421 36.6952 2.15376 36.5652 1.79492C36.4404 1.43607 36.352 1.11363 36.2896 0.848404C36.2896 0.832802 36.2896 0.822413 36.2844 0.812012C36.2479 0.832814 36.2063 0.848408 36.1699 0.869211C36.1699 0.869211 36.1699 0.869216 36.1699 0.874416C36.2323 1.14485 36.326 1.47249 36.456 1.83653L36.4456 1.83132Z" fill="white"/>
<path d="M35.619 2.64269C35.6814 2.84031 35.7542 3.05353 35.8374 3.27196L35.9466 3.24076C35.8634 3.02233 35.7958 2.80911 35.7334 2.60628C35.6138 2.20064 35.5358 1.8418 35.4838 1.54017C35.4578 1.38935 35.437 1.25414 35.4266 1.13452C35.385 1.14492 35.3434 1.15012 35.3018 1.16052C35.3174 1.28013 35.3382 1.41014 35.3642 1.56096C35.4214 1.86259 35.4994 2.22664 35.6242 2.63748L35.619 2.64269Z" fill="white"/>
<path d="M35.9674 3.45392C35.9674 3.49032 35.9674 3.53193 35.957 3.57354C36.0142 3.70875 36.0714 3.84396 36.139 3.98437C36.3679 4.45763 36.6383 4.96209 36.9867 5.45615C37.0699 5.58096 37.1688 5.70057 37.2572 5.82539C37.304 5.88779 37.3508 5.95021 37.3976 6.01262C37.4444 6.07502 37.4964 6.13222 37.5484 6.19462C37.6524 6.31424 37.7564 6.43386 37.8604 6.55867C37.9748 6.67309 38.0841 6.79271 38.1985 6.90712C38.3077 7.02673 38.4325 7.13593 38.5573 7.25034C38.6821 7.35956 38.8017 7.47918 38.9318 7.58319C39.197 7.79121 39.457 8.01484 39.7483 8.20206C39.8887 8.30087 40.0291 8.39968 40.1747 8.49329C40.3255 8.5817 40.4711 8.67011 40.6219 8.76372L40.8456 8.89894L41.0796 9.01856L41.5425 9.26299C41.8545 9.419 42.1821 9.54901 42.4942 9.69463C42.8218 9.81424 43.1443 9.93906 43.4667 10.0587C43.7943 10.1575 44.122 10.2615 44.4444 10.3603C44.772 10.4435 45.0945 10.5215 45.4117 10.6047C45.5677 10.6463 45.729 10.6775 45.885 10.7088C46.041 10.74 46.197 10.7711 46.353 10.7972C46.509 10.8284 46.6598 10.8596 46.8107 10.8856C46.9615 10.9064 47.1123 10.9272 47.2631 10.948C47.5595 10.9896 47.8508 11.0364 48.1264 11.0676C48.4073 11.0936 48.6777 11.1196 48.9377 11.1456C49.4578 11.2028 49.9362 11.208 50.3627 11.234C50.5759 11.2444 50.7735 11.26 50.9556 11.26C51.1376 11.26 51.3092 11.26 51.46 11.26C52.0685 11.26 52.4169 11.2652 52.4169 11.2652C52.4169 11.2652 52.0685 11.2652 51.46 11.2548C51.3092 11.2548 51.1376 11.2548 50.9556 11.2496C50.7735 11.2496 50.5707 11.2288 50.3627 11.2236C49.9362 11.1976 49.4578 11.1872 48.9377 11.1248C48.6777 11.0988 48.4073 11.0728 48.1264 11.0468C47.8456 11.0156 47.5595 10.9636 47.2631 10.922C47.1175 10.9012 46.9667 10.8804 46.8107 10.8544C46.6598 10.8284 46.509 10.7972 46.353 10.766C46.197 10.7347 46.041 10.7035 45.885 10.6723C45.729 10.6411 45.5677 10.6099 45.4117 10.5683C45.0945 10.4851 44.772 10.4071 44.4496 10.3187C44.1272 10.2199 43.8047 10.1159 43.4771 10.0119C43.1547 9.89224 42.8322 9.76743 42.5098 9.64262C42.1925 9.497 41.8753 9.36179 41.5633 9.20577L41.1004 8.96134L40.8716 8.84172L40.648 8.70652C40.5024 8.61811 40.3515 8.52449 40.2059 8.43608C40.0603 8.34247 39.9251 8.23846 39.7847 8.14485C39.4986 7.95763 39.2438 7.734 38.9786 7.52598C38.8486 7.42196 38.7289 7.30236 38.6093 7.19315C38.4897 7.07873 38.3649 6.97472 38.2557 6.8499C38.1413 6.73029 38.0321 6.61587 37.9229 6.50146C37.8189 6.38184 37.7148 6.25704 37.616 6.13743C37.564 6.07502 37.512 6.01781 37.4652 5.9554C37.4184 5.89299 37.3716 5.8306 37.33 5.76819C37.2416 5.64337 37.1428 5.52895 37.0648 5.39893C36.7267 4.90488 36.4563 4.41082 36.2327 3.93757C36.1287 3.71394 36.035 3.49032 35.957 3.2771C35.957 3.2823 35.957 3.2875 35.957 3.2927C35.9622 3.33951 35.957 3.38631 35.957 3.44871L35.9674 3.45392Z" fill="white"/>
<path d="M56.0261 12.3418C55.8232 12.3886 55.6048 12.4302 55.376 12.4718C55.1472 12.5134 54.9079 12.5654 54.6531 12.607C54.3983 12.6434 54.1382 12.685 53.8626 12.7266C53.5922 12.7682 53.3061 12.7942 53.0149 12.8306C52.7237 12.867 52.422 12.8826 52.1152 12.9086C51.8084 12.9398 51.4963 12.9451 51.1739 12.9607C50.5342 12.9867 49.8737 12.9815 49.2029 12.9503C48.87 12.9347 48.532 12.9087 48.194 12.8826C47.8559 12.841 47.5179 12.815 47.1799 12.7682L46.6754 12.6954C46.509 12.6694 46.3426 12.6382 46.1709 12.607C45.8381 12.555 45.5052 12.477 45.1776 12.4094C44.5275 12.2534 43.8879 12.0922 43.2794 11.8841C42.6709 11.6865 42.0937 11.4733 41.558 11.2393C41.0171 11.0104 40.5179 10.7712 40.0706 10.532C39.1657 10.0535 38.448 9.59067 37.9644 9.24223C37.72 9.07061 37.5379 8.92499 37.4131 8.82618C37.2883 8.72737 37.2207 8.67017 37.2207 8.67017C37.2207 8.67017 37.2883 8.72217 37.4079 8.82618C37.5327 8.92499 37.7148 9.07062 37.9592 9.24744C38.1984 9.42426 38.4949 9.63228 38.8485 9.8559C39.1969 10.0795 39.6026 10.3188 40.055 10.558C40.5075 10.8024 41.0067 11.0416 41.5424 11.2757C42.0781 11.5097 42.6605 11.7281 43.269 11.9309C43.8775 12.139 44.5172 12.3054 45.1672 12.4614C45.4949 12.529 45.8277 12.607 46.1605 12.6642C46.3269 12.6954 46.4934 12.7266 46.665 12.7526L47.1694 12.8254C47.3359 12.8514 47.5075 12.8671 47.6791 12.8879C47.8507 12.9035 48.0171 12.9242 48.1888 12.9398C48.5268 12.9607 48.8648 12.9919 49.2029 13.0023C49.8737 13.0283 50.5342 13.0335 51.1739 13.0023C51.4911 12.9867 51.8084 12.9763 52.1152 12.9503C52.422 12.9243 52.7237 12.9087 53.0149 12.867C53.3061 12.8306 53.5922 12.8046 53.8626 12.763C54.133 12.7214 54.3983 12.6798 54.6531 12.6382C54.9079 12.5966 55.1472 12.5446 55.376 12.503C55.6048 12.4562 55.8232 12.4146 56.0261 12.3678C56.4317 12.269 56.7853 12.1962 57.0714 12.113C57.6486 11.9517 57.9763 11.8633 57.9763 11.8633C57.9763 11.8633 57.6486 11.9517 57.0714 12.1026C56.7853 12.1806 56.4265 12.2534 56.0261 12.347V12.3418Z" fill="white"/>
<path d="M66.0734 7.06838C65.9278 7.1828 65.7562 7.3128 65.5741 7.44802C65.3869 7.58323 65.1841 7.72365 64.9605 7.86926C64.7368 8.00968 64.508 8.16569 64.2532 8.30611C64.1283 8.37892 64.0035 8.45173 63.8735 8.52454C63.7435 8.59215 63.6083 8.66495 63.4783 8.73256C63.213 8.87818 62.9322 9.003 62.6566 9.13302C62.381 9.26823 62.0949 9.37744 61.8193 9.49705C61.5385 9.61146 61.2576 9.71028 60.9872 9.80909C60.7168 9.9027 60.4463 9.9807 60.1967 10.0639C59.9471 10.1471 59.7026 10.1991 59.479 10.2615C59.3698 10.2927 59.2606 10.3187 59.1566 10.3447C59.1046 10.3604 59.0578 10.3707 59.0058 10.3863C58.959 10.3967 58.9122 10.4072 58.8654 10.4176C58.6833 10.454 58.5221 10.4904 58.3921 10.5164C58.1269 10.5684 57.9761 10.6048 57.9761 10.6048C57.9761 10.6048 58.1269 10.5788 58.3921 10.532C58.5221 10.506 58.6833 10.48 58.8706 10.4436C59.0578 10.4176 59.2606 10.3552 59.4842 10.3032C59.7079 10.2459 59.9523 10.1939 60.2019 10.1107C60.4515 10.0327 60.722 9.95471 60.9976 9.8611C61.268 9.76229 61.5489 9.66348 61.8349 9.55427C62.1157 9.43465 62.4018 9.32544 62.6774 9.19542C62.953 9.06021 63.2339 8.93539 63.4991 8.78457C63.6343 8.71176 63.7643 8.63895 63.8943 8.57135C64.0243 8.49334 64.1492 8.42053 64.274 8.34772C64.5236 8.20211 64.7576 8.04609 64.9761 7.90567C65.1945 7.75485 65.4025 7.61444 65.5845 7.47403C65.6781 7.40642 65.7665 7.33881 65.8497 7.2764C65.933 7.2088 66.011 7.14638 66.0838 7.08917C66.2294 6.96956 66.349 6.86035 66.453 6.77194C66.6507 6.58992 66.7599 6.48071 66.7599 6.48071C66.7599 6.48071 66.6507 6.58992 66.4478 6.76674C66.3438 6.84995 66.219 6.95916 66.0734 7.07357V7.06838Z" fill="white"/>
<path d="M53.4258 8.77933C53.6338 8.79493 53.8678 8.81053 54.1174 8.82613C54.3723 8.83653 54.6479 8.84175 54.9391 8.85215C55.2304 8.85215 55.5372 8.85214 55.8597 8.84694C56.1769 8.83134 56.5097 8.82613 56.8425 8.79493C57.009 8.77933 57.1754 8.76894 57.347 8.75333C57.5134 8.73253 57.685 8.71692 57.8515 8.69612C58.0231 8.68052 58.1895 8.64932 58.3559 8.62332C58.5224 8.59732 58.6888 8.57651 58.8552 8.54011C59.0216 8.5089 59.1828 8.4777 59.344 8.4465C59.5052 8.4101 59.6613 8.37889 59.8173 8.34248C59.9733 8.31128 60.1241 8.26968 60.275 8.23327C60.4258 8.19687 60.5714 8.16047 60.7118 8.11886C60.8522 8.07726 60.9874 8.04085 61.1227 7.99924C61.2527 7.95764 61.3827 7.91604 61.5023 7.87964C61.7467 7.80683 61.9651 7.71842 62.1576 7.65081C62.35 7.578 62.5164 7.5104 62.6568 7.45839C62.9325 7.34398 63.0885 7.27637 63.0885 7.27637C63.0885 7.27637 62.9325 7.33877 62.6568 7.44798C62.5164 7.49999 62.35 7.5624 62.1524 7.63C61.9547 7.69241 61.7363 7.77563 61.4919 7.84844C61.3723 7.88484 61.2423 7.92643 61.1122 7.96804C60.9822 8.00444 60.8418 8.04085 60.7014 8.08245C60.561 8.12406 60.4154 8.15526 60.2645 8.19166C60.1137 8.22806 59.9629 8.26968 59.8069 8.29568C59.6509 8.32688 59.4949 8.36329 59.3336 8.39449C59.1724 8.4257 59.0112 8.4517 58.8448 8.48291C58.6784 8.51411 58.5119 8.53491 58.3455 8.56091C58.1791 8.58692 58.0127 8.61292 57.8411 8.62852C57.6747 8.64933 57.503 8.67013 57.3366 8.69093C57.1702 8.70653 56.9986 8.72213 56.8322 8.73253C56.4993 8.76373 56.1717 8.77414 55.8545 8.78974C55.5372 8.80014 55.2304 8.80014 54.9391 8.80534C54.6479 8.80014 54.3723 8.78974 54.1174 8.78454C53.8626 8.76893 53.6286 8.75853 53.4258 8.74813C53.2178 8.73773 53.0409 8.71693 52.8901 8.70653C52.5937 8.68053 52.4272 8.66492 52.4272 8.66492C52.4272 8.66492 52.5937 8.68572 52.8901 8.71693C53.0357 8.73253 53.2178 8.75854 53.4258 8.77414V8.77933Z" fill="white"/>
<path d="M39.5922 9.16425C39.6858 9.23185 39.8002 9.30466 39.9199 9.37747C40.0447 9.45548 40.1747 9.53868 40.3151 9.62189C40.4607 9.7051 40.6115 9.79351 40.7676 9.88192C40.9288 9.96512 41.0952 10.0535 41.2616 10.1368C41.4332 10.22 41.6049 10.3032 41.7817 10.3812C41.9585 10.454 42.1353 10.532 42.3121 10.6048C42.4889 10.6724 42.6606 10.74 42.8322 10.7972C42.9154 10.8284 43.0038 10.8544 43.0818 10.8856C43.165 10.9116 43.2482 10.9376 43.3262 10.9584C43.4823 11.0104 43.6383 11.0469 43.7735 11.0833C44.0543 11.1509 44.2884 11.1977 44.4548 11.2237C44.6212 11.2497 44.7148 11.2601 44.7148 11.2601C44.7148 11.2601 44.6212 11.2497 44.4548 11.2133C44.2884 11.1821 44.0543 11.1249 43.7787 11.0469C43.6435 11.0053 43.4927 10.9636 43.3314 10.9116C43.1754 10.8596 43.009 10.8076 42.8426 10.7452C42.671 10.688 42.4993 10.6152 42.3225 10.5476C42.1457 10.4748 41.9741 10.3968 41.7973 10.324C41.6256 10.2408 41.4488 10.1628 41.2772 10.0795C41.1108 9.99633 40.9444 9.90793 40.7832 9.82992C40.6272 9.74151 40.4711 9.6583 40.3307 9.58029C40.1851 9.50228 40.0551 9.41906 39.9303 9.34626C39.8055 9.27345 39.691 9.20585 39.5922 9.14344C39.4934 9.08103 39.4102 9.02383 39.3374 8.98222C39.197 8.89381 39.1138 8.8418 39.1138 8.8418C39.1138 8.8418 39.1918 8.89901 39.3322 8.99262C39.3998 9.03942 39.483 9.10184 39.5818 9.16425H39.5922Z" fill="white"/>
<path d="M53.0097 10.5476C53.3425 10.5112 53.6805 10.4696 53.9926 10.4176C54.1486 10.3968 54.2994 10.3656 54.4398 10.3396C54.5802 10.3084 54.7155 10.2876 54.8403 10.2564C55.3343 10.1471 55.6568 10.0483 55.6568 10.0483C55.6568 10.0483 55.5736 10.0691 55.4332 10.1003C55.2875 10.1316 55.0847 10.1732 54.8351 10.22C54.5854 10.2668 54.2994 10.3136 53.9874 10.3604C53.6753 10.4072 53.3425 10.4488 53.0097 10.48C52.8432 10.5008 52.6768 10.5112 52.5104 10.5268C52.344 10.5424 52.1828 10.5476 52.0268 10.558C51.8708 10.5684 51.7199 10.5736 51.5743 10.5788C51.4287 10.5892 51.2935 10.5892 51.1687 10.5892C51.0439 10.5892 50.9295 10.5944 50.8254 10.5944C50.7214 10.5944 50.633 10.5944 50.5602 10.5944C50.4146 10.5944 50.3262 10.5944 50.3262 10.5944C50.3262 10.5944 50.4094 10.5944 50.555 10.6048C50.7006 10.61 50.9138 10.6256 51.1635 10.6256C51.2883 10.6256 51.4287 10.6256 51.5691 10.6256C51.7147 10.6256 51.8656 10.6256 52.0268 10.61C52.1828 10.5996 52.3492 10.5944 52.5104 10.5788C52.6768 10.5632 52.8432 10.5528 53.0097 10.5372V10.5476Z" fill="white"/>
<path d="M34.1679 3.24072C34.1679 3.24072 34.1679 3.25113 34.1575 3.27713C34.1575 3.28233 34.1575 3.28753 34.1575 3.29273C34.1523 3.33954 34.1575 3.38634 34.1575 3.44874C34.1575 3.48515 34.1575 3.52676 34.1679 3.56836C34.1783 3.67757 34.1939 3.8128 34.2095 3.96361C34.2564 4.38486 34.324 4.94653 34.3448 5.50819C34.3656 6.06985 34.3292 6.63672 34.2408 7.05277C34.2199 7.15678 34.1991 7.25038 34.1731 7.33359C34.1523 7.4168 34.1263 7.48961 34.1055 7.54681C34.0847 7.60402 34.0639 7.65083 34.0535 7.68203C34.0431 7.71324 34.0327 7.72884 34.0327 7.72884C34.0327 7.72884 34.0379 7.71324 34.0535 7.68203C34.0639 7.65083 34.0899 7.60923 34.1107 7.55202C34.1315 7.49481 34.1575 7.42201 34.1836 7.344C34.2096 7.26079 34.2355 7.16717 34.2615 7.06316C34.3604 6.64711 34.4124 6.08024 34.4124 5.51338C34.4124 4.94651 34.3604 4.37966 34.3239 3.95841C34.3083 3.74518 34.2927 3.57356 34.2875 3.44874C34.2875 3.39154 34.2875 3.33953 34.2875 3.31873C34.2875 3.29273 34.298 3.27192 34.298 3.27192H34.2875L34.1783 3.24072H34.1731H34.1679Z" fill="white"/>
<path d="M34.9946 1.49854C34.9946 1.74296 34.9894 2.11221 34.9686 2.56467C34.9478 2.98071 34.9166 3.46437 34.8646 3.97923C34.8438 4.23926 34.8074 4.50449 34.7762 4.77492C34.7398 5.04535 34.7034 5.32097 34.6566 5.5914C34.6046 5.86183 34.5681 6.13748 34.5109 6.40271C34.4537 6.66794 34.407 6.93317 34.3393 7.1828C34.2769 7.43242 34.2197 7.67684 34.1469 7.90567C34.0741 8.1345 34.0221 8.35293 33.9493 8.54535C33.8817 8.74297 33.8141 8.91979 33.7621 9.08101C33.7049 9.23703 33.6425 9.37224 33.5957 9.48665C33.5021 9.71028 33.4448 9.83508 33.4448 9.83508C33.4448 9.83508 33.502 9.71028 33.6008 9.48665C33.6476 9.37744 33.7153 9.24222 33.7725 9.0862C33.8297 8.93018 33.8973 8.74817 33.9701 8.55574C34.0429 8.36332 34.1053 8.14489 34.1781 7.91606C34.2561 7.69244 34.3133 7.44282 34.3809 7.19319C34.4537 6.94356 34.5058 6.67833 34.563 6.4131C34.6254 6.14787 34.667 5.87224 34.7242 5.60181C34.771 5.32618 34.8126 5.05574 34.8542 4.78531C34.8854 4.51488 34.927 4.24965 34.953 3.98962C34.9998 3.58398 35.031 3.19393 35.057 2.84549C35.0518 2.75188 35.0466 2.65827 35.0362 2.57506C35.0102 2.12261 34.9946 1.74817 34.9946 1.50374V1.49854Z" fill="white"/>
<path d="M35.8268 3.27192C35.8268 3.27192 35.8372 3.29273 35.8372 3.31873C35.8372 3.33953 35.8424 3.38634 35.8372 3.44874C35.8372 3.56836 35.8216 3.74518 35.8008 3.95841C35.7644 4.37966 35.7124 4.94651 35.7124 5.51338C35.7124 6.08024 35.7592 6.64711 35.8632 7.06316C35.8892 7.16717 35.91 7.26079 35.9412 7.344C35.9672 7.42721 35.9932 7.49481 36.014 7.55202C36.0348 7.60923 36.0556 7.65603 36.0712 7.68203C36.0608 7.65083 36.04 7.60922 36.0192 7.54681C35.9984 7.48961 35.9724 7.4168 35.9516 7.33359C35.9256 7.25038 35.9048 7.15678 35.884 7.05277C35.7956 6.63672 35.7592 6.07505 35.78 5.50819C35.8008 4.94653 35.8632 4.38486 35.9152 3.96361C35.9308 3.8128 35.9464 3.68278 35.9568 3.56836C35.9568 3.52676 35.962 3.48515 35.9672 3.44874C35.9672 3.38634 35.9672 3.33954 35.9672 3.29273C35.9672 3.28753 35.9672 3.28233 35.9672 3.27713C35.9672 3.25113 35.9568 3.24072 35.9568 3.24072H35.9516L35.8424 3.27192H35.832H35.8268Z" fill="white"/>
<path d="M34.9946 1.49846C34.9946 1.74289 35.0102 2.11733 35.0362 2.56978C35.0414 2.65819 35.0466 2.75181 35.057 2.84022C35.083 3.18866 35.1142 3.5787 35.161 3.98434C35.187 4.24437 35.2286 4.5096 35.2598 4.78003C35.3014 5.05046 35.343 5.3261 35.3898 5.59653C35.4419 5.86696 35.4887 6.14259 35.5511 6.40782C35.6135 6.67305 35.6655 6.93828 35.7331 7.18791C35.8007 7.43754 35.8579 7.68197 35.9359 7.9108C36.0087 8.13963 36.0659 8.35284 36.1439 8.55046C36.2167 8.74288 36.2844 8.92492 36.3416 9.08093C36.404 9.23695 36.4664 9.37216 36.5132 9.48137C36.612 9.705 36.6692 9.82982 36.6692 9.82982C36.6692 9.82982 36.6172 9.6998 36.5184 9.48137C36.4716 9.36696 36.4092 9.23695 36.352 9.07573C36.2948 8.91451 36.2324 8.73769 36.1648 8.54007C36.092 8.34764 36.0399 8.12401 35.9671 7.90039C35.8943 7.67156 35.8423 7.42714 35.7747 7.17751C35.7071 6.92789 35.6603 6.66266 35.6031 6.39743C35.5459 6.13219 35.5043 5.85656 35.4575 5.58613C35.4159 5.3105 35.3743 5.04007 35.3379 4.76964C35.3067 4.49921 35.2703 4.23398 35.2495 3.97395C35.1974 3.45909 35.1662 2.97543 35.1454 2.55938C35.1246 2.10693 35.1194 1.7377 35.1194 1.49327C35.1194 1.29045 35.1194 1.17603 35.1194 1.17603H35.057H34.9946C34.9946 1.17603 34.9946 1.29045 34.9946 1.49327V1.49846Z" fill="white"/>
<path d="M34.2095 10.0015C34.1731 10.0327 34.1367 10.0691 34.0951 10.1107C34.0535 10.1523 34.0067 10.1887 33.9547 10.2355C33.9027 10.2771 33.8507 10.3239 33.7934 10.3655C33.6842 10.4591 33.5542 10.5475 33.4294 10.6359C33.3046 10.7244 33.1745 10.8076 33.0497 10.8856C32.9249 10.9584 32.8105 11.0312 32.7065 11.0832C32.5037 11.1976 32.3633 11.2652 32.3633 11.2652C32.3633 11.2652 32.5089 11.2132 32.7221 11.1144C32.8261 11.0624 32.9509 11.0052 33.0758 10.9324C33.2006 10.8596 33.3358 10.7764 33.4606 10.688C33.5854 10.5995 33.7102 10.5059 33.8246 10.4123C33.8819 10.3655 33.9339 10.3187 33.9807 10.2719C34.0275 10.2251 34.0743 10.1835 34.1159 10.1419C34.1991 10.0587 34.2615 9.98588 34.3031 9.92867C34.3447 9.87666 34.3707 9.84546 34.3707 9.84546C34.3707 9.84546 34.3447 9.87146 34.2979 9.92346C34.2719 9.94947 34.2459 9.97546 34.2147 10.0119L34.2095 10.0015Z" fill="white"/>
<path d="M37.0697 10.8752C36.9449 10.8024 36.8148 10.7192 36.69 10.6256C36.5652 10.5372 36.4352 10.4488 36.326 10.3552C36.2688 10.3084 36.2168 10.2668 36.1648 10.2251C36.1128 10.1835 36.066 10.1419 36.0243 10.1003C35.9827 10.0587 35.9411 10.0275 35.9099 9.99113C35.8787 9.95993 35.8475 9.92872 35.8267 9.90271C35.7799 9.85591 35.7539 9.82471 35.7539 9.82471C35.7539 9.82471 35.7799 9.85591 35.8215 9.90792C35.8631 9.95992 35.9255 10.0379 36.0087 10.1211C36.0503 10.1627 36.0971 10.2044 36.144 10.2512C36.1908 10.298 36.2428 10.3448 36.3 10.3916C36.4092 10.4852 36.534 10.5788 36.664 10.6672C36.794 10.7556 36.924 10.8388 37.0488 10.9116C37.1737 10.9844 37.2985 11.0468 37.4025 11.0937C37.6105 11.1925 37.7613 11.2445 37.7613 11.2445C37.7613 11.2445 37.6209 11.1769 37.4181 11.0625C37.3141 11.0052 37.1997 10.9376 37.0749 10.8648L37.0697 10.8752Z" fill="white"/>
</svg>
